<svg xmlns="http://www.w3.org/2000/svg" xmlns:xlink="http://www.w3.org/1999/xlink" width="300" zoomAndPan="magnify" viewBox="0 0 224.87999 225" height="300" preserveAspectRatio="xMidYMid meet" version="1.0"><defs><clipPath id="c81e8db12e"><path d="M 6 104 L 63 104 L 63 186.65625 L 6 186.65625 Z M 6 104 " clip-rule="nonzero"/></clipPath><clipPath id="56c3f10f65"><path d="M 91 26.242188 L 211 26.242188 L 211 174 L 91 174 Z M 91 26.242188 " clip-rule="nonzero"/></clipPath><clipPath id="434de516bd"><path d="M 190 26.242188 L 206 26.242188 L 206 53 L 190 53 Z M 190 26.242188 " clip-rule="nonzero"/></clipPath><clipPath id="2d5742405a"><path d="M 32.421875 112.761719 L 45.910156 112.761719 L 45.910156 186.621094 L 32.421875 186.621094 Z M 32.421875 112.761719 " clip-rule="nonzero"/></clipPath><clipPath id="eea9947703"><path d="M 127 26.242188 L 208 26.242188 L 208 99 L 127 99 Z M 127 26.242188 " clip-rule="nonzero"/></clipPath><clipPath id="e16635da5a"><path d="M 107 173 L 224.761719 173 L 224.761719 186 L 107 186 Z M 107 173 " clip-rule="nonzero"/></clipPath></defs><g clip-path="url(#c81e8db12e)"><path fill="#7fb8b8" d="M 7.15625 127.742188 C 7.15625 127.742188 35.609375 94.460938 48.847656 108.277344 C 51.882812 111.441406 54.4375 118.203125 56.082031 125.011719 C 56.589844 127.125 55.757812 131.585938 56.15625 133.867188 C 57.675781 142.613281 61.660156 151.570312 62.238281 159.765625 C 62.675781 165.980469 61.394531 169.910156 60.78125 174.074219 C 60.125 178.53125 60.121094 183.011719 60.121094 183.011719 C 60.121094 183.011719 46.8125 186.320312 33.574219 186.320312 C 20.332031 186.320312 7.15625 183.011719 7.15625 183.011719 C 7.15625 183.011719 6.988281 173.269531 6.972656 163.898438 C 6.960938 154.53125 7.105469 145.535156 7.105469 145.535156 L 7.15625 127.742188 " fill-opacity="1" fill-rule="evenodd"/></g><path fill="#df4527" d="M 59.128906 58.3125 C 67.972656 51.585938 75.476562 51.210938 81.121094 52.683594 C 88.414062 54.585938 92.613281 59.714844 92.613281 59.714844 C 92.613281 59.714844 97.746094 64.925781 101.191406 67.773438 C 104.636719 70.625 106.394531 71.109375 106.394531 71.109375 L 102.96875 71.597656 C 102.96875 71.597656 105.425781 73.714844 106.429688 76.386719 C 107.429688 79.054688 106.972656 82.28125 106.972656 82.28125 L 95.960938 98.84375 L 93.863281 99.730469 L 91.554688 100.09375 L 84.289062 107.238281 L 69.230469 116.109375 C 69.230469 116.109375 66.839844 119.398438 63.382812 120.941406 C 59.925781 122.480469 55.402344 122.277344 55.402344 122.277344 C 55.402344 122.277344 53.574219 117.542969 51.761719 113.964844 C 49.953125 110.382812 48.160156 107.957031 48.160156 107.957031 C 48.160156 107.957031 43.191406 109.203125 38.523438 110.140625 C 32.375 111.378906 26.492188 113.15625 22.199219 115.519531 C 12.921875 120.621094 9.589844 128.496094 8.960938 135.339844 C 8.335938 142.128906 10.378906 147.898438 10.378906 147.898438 L 7.246094 145.015625 C 7.246094 145.015625 7.460938 147.902344 5.890625 150.296875 C 4.320312 152.695312 0.738281 154.632812 0.738281 154.632812 C 0.738281 154.632812 3.199219 149.785156 3.167969 142.96875 C 3.140625 137.636719 0.667969 130.710938 3.1875 123.640625 C 4.3125 120.488281 6.136719 115.246094 9.804688 111.195312 C 14.738281 105.746094 21.480469 100.949219 26.535156 97.003906 C 29.691406 94.542969 32.125 92.183594 33.246094 90.914062 C 33.625 90.484375 31.785156 90.851562 30.042969 90.902344 C 28.28125 90.953125 26.613281 90.695312 26.613281 90.695312 C 26.613281 90.695312 34.382812 87.359375 38.570312 82.914062 C 43.210938 77.992188 47.484375 71.203125 51.609375 65.90625 C 54.171875 62.609375 56.730469 60.132812 59.128906 58.3125 " fill-opacity="1" fill-rule="evenodd"/><g clip-path="url(#56c3f10f65)"><path fill="#efefef" d="M 118.207031 125.984375 C 118.207031 125.984375 115.84375 123.074219 114.539062 120.941406 C 113.234375 118.8125 112.988281 117.460938 112.988281 117.460938 C 112.988281 117.460938 109.96875 118.953125 106.488281 118.296875 C 104.847656 117.988281 102.964844 116.820312 101.503906 115.503906 C 100.117188 114.25 97.953125 110.917969 96.867188 109.777344 C 95.742188 108.597656 92.324219 110.921875 92.042969 109.761719 C 91.796875 108.753906 92.152344 106.519531 92.675781 104.992188 C 93.492188 102.605469 94.722656 100.972656 94.722656 100.972656 C 94.722656 100.972656 95.652344 96.898438 96.980469 93.496094 C 97.894531 91.148438 99.28125 88.996094 99.792969 87.328125 C 100.589844 84.734375 100.113281 81.851562 100.234375 80.210938 C 100.351562 78.628906 100.914062 78.191406 101.589844 78.796875 C 102.652344 79.753906 104.894531 81.003906 106.28125 82.023438 C 110.078125 84.816406 115.269531 83.269531 120.800781 86.335938 C 123.5 87.828125 125.582031 92.515625 125.582031 92.515625 C 125.582031 92.515625 141.054688 98.65625 155.566406 98.285156 C 161.296875 98.140625 166.710938 95.914062 171.390625 93.855469 C 174.375 92.546875 176.921875 91.140625 179.507812 90.925781 C 180.96875 90.800781 182.722656 90.609375 183.890625 90.585938 C 184.621094 90.574219 188.644531 91.6875 191.75 89.125 C 196.136719 85.492188 199.886719 76.894531 200.308594 68.066406 C 200.589844 62.203125 199.234375 51.449219 196.550781 44.558594 C 195 40.578125 193.363281 37.453125 192 35.125 C 190.679688 32.867188 189.609375 31.371094 190.101562 29.875 C 190.671875 28.160156 192.375 27.175781 193.117188 26.996094 C 195.375 26.453125 199.414062 30.84375 202.222656 38.089844 C 205.496094 46.558594 207.34375 58.738281 206.625 68.679688 C 206.175781 74.941406 204.359375 80.929688 201.859375 85.113281 C 198.125 91.363281 193.371094 94.351562 193.371094 94.351562 C 193.371094 94.351562 197.367188 97.03125 200.355469 106.972656 C 202.34375 113.585938 202.992188 126.125 204.976562 133.355469 C 206.125 137.550781 209.460938 140.328125 210.007812 144.101562 C 212.242188 159.484375 209.242188 173.730469 209.242188 173.730469 L 199.804688 173.480469 C 199.804688 173.480469 199.480469 172.230469 199.972656 171.535156 C 200.667969 170.539062 202.277344 169.6875 202.503906 166.785156 C 202.78125 163.277344 201.71875 157.296875 199.832031 153.0625 C 197.601562 148.066406 193.128906 143.917969 189.203125 140.125 C 185.113281 136.183594 181.613281 132.691406 181.613281 132.691406 C 181.613281 132.691406 179.765625 135.882812 180.167969 139.269531 C 180.636719 143.175781 183.359375 147.671875 183.328125 153.148438 C 183.277344 163.375 181.398438 173.589844 181.398438 173.589844 L 171.925781 173.566406 C 171.925781 173.566406 171.671875 172.363281 171.976562 171.855469 C 172.417969 171.121094 173.523438 170.816406 174.050781 169.144531 C 174.914062 166.398438 175.457031 162.492188 174.21875 157.765625 C 172.90625 152.742188 168.855469 148.714844 165.996094 144.1875 C 163.394531 140.070312 161.902344 135.203125 161.902344 135.203125 C 161.902344 135.203125 159.824219 135.582031 157.613281 135.820312 C 155.402344 136.058594 153.054688 136.152344 153.054688 136.152344 C 153.054688 136.152344 155.191406 146.234375 156.128906 155.578125 C 157.0625 164.921875 156.800781 173.527344 156.800781 173.527344 L 146.914062 173.621094 C 146.914062 173.621094 146.914062 172.472656 147.421875 171.769531 C 148.117188 170.804688 149.378906 170.113281 149.351562 169.230469 C 149.285156 167.011719 147.746094 159.988281 146.882812 157.304688 C 145.570312 153.246094 143.21875 148.429688 140.878906 144.753906 C 137.96875 140.183594 135.148438 137.171875 135.148438 137.171875 C 135.148438 137.171875 136.699219 145.96875 136.667969 155.082031 C 136.640625 164.191406 135.03125 173.617188 135.03125 173.617188 L 125.34375 173.589844 C 125.34375 173.589844 125.285156 171.816406 126.164062 171.242188 C 127.042969 170.667969 127.777344 170.246094 128.039062 167.109375 C 128.21875 164.921875 127.898438 161.078125 127.394531 157.714844 C 126.488281 151.691406 123.941406 144.367188 121.847656 137.882812 C 119.804688 131.550781 118.207031 125.984375 118.207031 125.984375 " fill-opacity="1" fill-rule="evenodd"/></g><path fill="#ffd3ae" d="M 63.335938 89.304688 C 63.335938 89.304688 61.300781 86.300781 61.847656 83.207031 C 62.304688 80.640625 64.539062 77.878906 67.375 77.421875 C 68.355469 77.265625 69.8125 78.019531 70.824219 79.433594 C 71.859375 80.882812 72.425781 82.925781 72.425781 82.925781 C 72.425781 82.925781 69.898438 86.6875 68.613281 89.988281 C 67.332031 93.292969 67.292969 96.132812 67.292969 96.132812 C 67.292969 96.132812 70.65625 90.273438 74.996094 86.929688 C 79.339844 83.585938 84.664062 82.761719 84.664062 82.761719 L 82.207031 84.777344 L 78.667969 86.152344 C 78.667969 86.152344 80.070312 87.449219 83.769531 86.425781 C 86.660156 85.625 91.488281 82.191406 94.128906 82.632812 C 96.34375 83.003906 98.847656 85.453125 99.179688 87.257812 C 99.429688 88.609375 95.910156 94.875 95.910156 94.875 C 95.910156 94.875 93.238281 97.023438 91.027344 100.203125 C 90.457031 101.019531 91.484375 106.867188 90.871094 107.863281 C 90.402344 108.625 89.757812 108.6875 89.074219 108.859375 C 87.707031 109.207031 86.128906 109.09375 85.140625 109.566406 C 84.820312 109.71875 77.1875 116.65625 74.707031 117.46875 C 73.667969 117.808594 71.273438 117.679688 69.503906 116.308594 C 67.210938 114.535156 65.476562 111.363281 64.035156 111.546875 C 62.203125 111.773438 61.425781 113.136719 60.132812 114.046875 C 56.742188 116.421875 54.546875 119.726562 54.546875 119.726562 C 54.546875 119.726562 53.210938 116.386719 51.769531 113.496094 C 50.328125 110.605469 48.609375 107.929688 48.609375 107.929688 C 48.609375 107.929688 53.203125 105.421875 56.886719 100.765625 C 60.566406 96.109375 63.335938 89.304688 63.335938 89.304688 " fill-opacity="1" fill-rule="evenodd"/><path fill="#997c69" d="M 100.296875 79.785156 C 99.820312 80.210938 100.191406 80.992188 100.207031 81.617188 C 100.246094 83.179688 100.0625 84.554688 99.894531 86.113281 C 99.683594 88.046875 98.996094 89.394531 98.410156 91.246094 C 98.121094 92.164062 98.199219 94.230469 98.878906 95.097656 C 99.851562 96.339844 100.910156 96.039062 102.261719 95.828125 C 103.804688 95.585938 106.230469 93.867188 107.75 93.503906 C 110.828125 92.773438 113.089844 93.910156 115.632812 92.375 C 117.316406 91.359375 118.332031 89.390625 118.113281 87.484375 C 117.890625 85.582031 117.457031 85.347656 116.316406 84.917969 C 113.613281 83.90625 110.359375 84.089844 107.667969 83.011719 C 106.578125 82.578125 105.488281 81.675781 104.605469 80.894531 C 103.925781 80.289062 102.546875 78.972656 101.574219 78.835938 C 100.804688 78.726562 100.765625 79.367188 100.296875 79.785156 " fill-opacity="1" fill-rule="evenodd"/><path fill="#997c69" d="M 154.183594 142.84375 C 153.726562 142.484375 152.066406 143.496094 151.835938 146.222656 C 151.609375 148.953125 152.546875 151 151.179688 153.191406 C 149.367188 156.09375 147.308594 155.96875 147.914062 159.207031 C 148.46875 162.199219 149.429688 165.683594 149.375 168.640625 C 149.351562 170.019531 148.160156 170.585938 147.429688 171.652344 C 147.203125 171.980469 146.992188 173.5 146.992188 173.5 L 156.261719 173.539062 C 156.261719 173.539062 156.449219 173.847656 156.910156 172.414062 C 157.203125 171.507812 156.84375 165.585938 156.757812 163.96875 C 156.601562 161.058594 155.875 153.308594 155.785156 151.691406 C 155.671875 149.664062 154.746094 143.292969 154.183594 142.84375 " fill-opacity="1" fill-rule="evenodd"/><g clip-path="url(#434de516bd)"><path fill="#997c69" d="M 191.921875 27.253906 C 191.117188 27.644531 190.617188 28.808594 190.476562 29.640625 C 190.230469 31.121094 190.21875 31.425781 190.664062 32.847656 C 191.28125 34.824219 193.417969 37.929688 194.613281 40.320312 C 195.8125 42.714844 196.28125 43.929688 197.753906 45.425781 C 199.230469 46.917969 199.421875 48.949219 200.703125 50.976562 C 201.984375 53.003906 205.125 52.34375 205.320312 51.101562 C 205.511719 49.867188 204.878906 47.445312 204.421875 45.703125 C 203.289062 41.40625 202.394531 37.65625 200.277344 33.722656 C 199.476562 32.238281 198.144531 30.203125 196.941406 29.003906 C 195.546875 27.609375 194.011719 26.246094 191.921875 27.253906 " fill-opacity="1" fill-rule="evenodd"/></g><path fill="#f08746" d="M 161.769531 135.363281 C 161.769531 135.363281 167.714844 133.613281 171.871094 131.832031 C 176.023438 130.054688 178.386719 128.246094 178.386719 128.246094 L 181.328125 132.367188 C 181.328125 132.367188 179.972656 134.722656 179.972656 137.96875 C 179.972656 141.25 183.257812 145.839844 183.1875 150.191406 C 183.113281 154.621094 179.90625 151.378906 178.871094 154.851562 C 177.304688 160.105469 175.203125 158.097656 174.589844 158.089844 C 173.78125 158.078125 172.867188 154.554688 172.867188 154.554688 C 172.867188 154.554688 168.039062 147.890625 165.261719 143.089844 C 162.488281 138.292969 161.769531 135.363281 161.769531 135.363281 " fill-opacity="1" fill-rule="evenodd"/><path fill="#f08746" d="M 135.464844 98.808594 C 134.792969 100.652344 134.480469 102.75 135.335938 104.605469 C 136.839844 107.859375 140.960938 108.542969 144.039062 109.265625 C 145.527344 109.617188 147.042969 110.164062 148.449219 110.78125 C 150.957031 111.875 152.5625 114.078125 154.625 115.753906 C 155.773438 116.6875 157.28125 117.527344 158.691406 117.949219 C 163.550781 119.40625 170.066406 117.757812 173.472656 113.867188 C 174.90625 112.226562 175.914062 110.160156 177.382812 108.511719 C 179.320312 106.332031 181.984375 105.78125 183.441406 102.984375 C 184.777344 100.425781 185.15625 95.390625 182.324219 92.453125 C 178.625 88.613281 171.773438 94 167.949219 95.363281 C 167.027344 95.691406 162.917969 97.386719 161.742188 97.625 C 158.929688 98.1875 156.621094 98.234375 153.761719 98.414062 C 149.96875 98.648438 141.265625 97.105469 139.085938 96.671875 C 136.90625 96.234375 135.632812 98.339844 135.464844 98.808594 " fill-opacity="1" fill-rule="evenodd"/><path fill="#997c69" d="M 118.628906 126.464844 C 118.691406 126.429688 120.726562 128.117188 121.101562 128.433594 C 122.882812 129.917969 123.949219 130.859375 126.460938 131.988281 C 128.976562 133.121094 131.78125 133.539062 131.78125 133.539062 L 135.089844 136.765625 C 135.089844 136.765625 136.335938 146.558594 136.347656 148.191406 C 136.386719 153.644531 133.15625 149.074219 131.894531 153.863281 C 130.511719 159.105469 127.488281 158.492188 127.300781 157.738281 C 126.910156 156.175781 126.941406 155.292969 126.625 153.710938 C 126.300781 152.085938 123.59375 142.253906 122.441406 139.191406 C 121.527344 136.753906 119.925781 132.515625 119.214844 130.023438 C 118.976562 129.191406 118.535156 126.519531 118.628906 126.464844 " fill-opacity="1" fill-rule="evenodd"/><path fill="#f08746" d="M 128.324219 165.191406 C 128.324219 165.191406 129.734375 163.675781 131.171875 164.863281 C 132.609375 166.054688 132.375 167.410156 132.953125 168.894531 C 133.53125 170.378906 135.566406 170.832031 135.148438 172.933594 C 135.015625 173.597656 133.617188 173.585938 133.136719 173.640625 C 131.242188 173.878906 125.417969 173.570312 125.417969 173.570312 C 125.417969 173.570312 125.523438 172.285156 125.652344 171.988281 C 126.039062 171.082031 126.910156 170.605469 127.394531 169.800781 C 128.023438 168.757812 128.136719 167.191406 128.136719 166.015625 L 128.324219 165.191406 " fill-opacity="1" fill-rule="evenodd"/><path fill="#000000" d="M 64.152344 90.726562 C 64.011719 90.726562 63.875 90.667969 63.785156 90.550781 C 61.160156 87.15625 60.109375 82.25 63.667969 78.9375 C 65.285156 77.4375 66.703125 76.792969 68.003906 76.96875 C 69.304688 77.144531 70.464844 78.117188 71.648438 80.039062 C 71.785156 80.257812 71.714844 80.542969 71.5 80.679688 C 71.28125 80.8125 70.996094 80.742188 70.863281 80.527344 C 69.832031 78.859375 68.886719 78.019531 67.878906 77.882812 C 66.871094 77.746094 65.699219 78.3125 64.300781 79.613281 C 61.164062 82.527344 62.148438 86.921875 64.515625 89.980469 C 64.671875 90.1875 64.636719 90.476562 64.433594 90.632812 C 64.347656 90.695312 64.25 90.726562 64.152344 90.726562 " fill-opacity="1" fill-rule="nonzero"/><path fill="#000000" d="M 66.742188 86.1875 C 66.699219 86.1875 66.652344 86.183594 66.609375 86.167969 C 66.367188 86.097656 66.226562 85.839844 66.296875 85.59375 C 66.546875 84.753906 66.699219 83.542969 66.023438 82.558594 C 65.875 82.347656 65.929688 82.0625 66.140625 81.914062 C 66.351562 81.773438 66.640625 81.824219 66.785156 82.035156 C 67.664062 83.320312 67.488281 84.820312 67.183594 85.855469 C 67.125 86.058594 66.941406 86.1875 66.742188 86.1875 " fill-opacity="1" fill-rule="nonzero"/><path fill="#000000" d="M 93.453125 94.535156 C 93.265625 94.535156 93.089844 94.425781 93.019531 94.242188 C 92.1875 92.109375 89.917969 90.84375 88.074219 90.371094 C 87.824219 90.308594 87.675781 90.054688 87.738281 89.808594 C 87.800781 89.5625 88.054688 89.410156 88.304688 89.476562 C 89.304688 89.734375 92.671875 90.8125 93.882812 93.902344 C 93.976562 94.144531 93.855469 94.410156 93.621094 94.503906 C 93.5625 94.527344 93.507812 94.535156 93.453125 94.535156 " fill-opacity="1" fill-rule="nonzero"/><path fill="#000000" d="M 79.464844 110.574219 C 79.40625 110.574219 79.34375 110.5625 79.285156 110.539062 C 79.140625 110.476562 75.644531 108.96875 74.300781 104.398438 C 74.230469 104.152344 74.371094 103.894531 74.613281 103.824219 C 74.859375 103.753906 75.117188 103.894531 75.1875 104.136719 C 76.402344 108.269531 79.613281 109.671875 79.644531 109.6875 C 79.878906 109.785156 79.992188 110.054688 79.890625 110.292969 C 79.816406 110.46875 79.644531 110.574219 79.464844 110.574219 " fill-opacity="1" fill-rule="nonzero"/><path fill="#000000" d="M 64.183594 108.914062 C 62.628906 106.285156 62.261719 102.867188 61.894531 100.539062 C 61.894531 100.539062 59.972656 104.230469 59.644531 107.539062 C 59.203125 111.964844 60.617188 114.027344 60.617188 114.027344 C 60.617188 114.027344 62.96875 111.386719 64.179688 111.792969 C 65.136719 112.117188 66.761719 114.003906 67.105469 114.054688 C 67.734375 114.144531 65.636719 111.375 64.183594 108.914062 " fill-opacity="1" fill-rule="evenodd"/><path fill="#000000" d="M 60.121094 183.6875 C 60.117188 183.6875 60.113281 183.6875 60.109375 183.683594 C 59.851562 183.679688 59.652344 183.46875 59.65625 183.214844 C 59.789062 177.195312 60.488281 172.945312 61.101562 169.1875 C 62.023438 163.5625 62.691406 159.5 60.761719 153.085938 L 60.703125 152.882812 C 57.625 142.628906 55.925781 136.980469 55.695312 133.164062 C 55.617188 131.914062 55.710938 130.976562 55.804688 130.066406 C 55.941406 128.738281 56.070312 127.488281 55.640625 125.335938 C 55.066406 122.484375 52.738281 115.226562 48.007812 108.15625 C 47.867188 107.945312 47.921875 107.65625 48.136719 107.515625 C 48.347656 107.375 48.636719 107.429688 48.777344 107.644531 C 53.585938 114.832031 55.960938 122.242188 56.546875 125.152344 C 57.003906 127.441406 56.863281 128.828125 56.726562 130.164062 C 56.636719 131.03125 56.546875 131.933594 56.617188 133.105469 C 56.84375 136.816406 58.53125 142.429688 61.589844 152.617188 L 61.648438 152.820312 C 63.636719 159.441406 62.957031 163.589844 62.015625 169.335938 C 61.40625 173.0625 60.714844 177.285156 60.582031 183.234375 C 60.578125 183.484375 60.371094 183.6875 60.121094 183.6875 " fill-opacity="1" fill-rule="nonzero"/><path fill="#000000" d="M 54.601562 120 C 54.496094 120 54.390625 119.964844 54.304688 119.890625 C 54.105469 119.730469 54.082031 119.4375 54.246094 119.242188 C 58.765625 113.835938 62.25 111.867188 64.785156 110.757812 C 65.019531 110.65625 65.292969 110.761719 65.394531 110.996094 C 65.496094 111.230469 65.390625 111.503906 65.15625 111.605469 C 62.714844 112.675781 59.347656 114.574219 54.957031 119.835938 C 54.863281 119.945312 54.734375 120 54.601562 120 " fill-opacity="1" fill-rule="nonzero"/><path fill="#000000" d="M 72.976562 118.175781 C 71.789062 118.175781 70.71875 117.644531 69.492188 116.777344 C 67.96875 115.703125 67.058594 114.695312 66.324219 113.882812 C 65.5 112.972656 64.902344 112.3125 63.851562 111.996094 C 63.605469 111.925781 63.464844 111.667969 63.542969 111.421875 C 63.613281 111.179688 63.871094 111.042969 64.117188 111.113281 C 65.417969 111.503906 66.121094 112.28125 67.011719 113.265625 C 67.75 114.078125 68.589844 115.003906 70.027344 116.023438 C 72.1875 117.550781 73.546875 117.855469 76.375 115.804688 C 77.910156 114.691406 79.460938 113.386719 80.824219 112.238281 C 82.148438 111.125 83.289062 110.160156 84.199219 109.546875 C 85.191406 108.875 86.371094 108.726562 87.511719 108.582031 C 88.578125 108.445312 89.582031 108.316406 90.210938 107.761719 C 90.730469 107.296875 90.609375 106.535156 90.351562 105.226562 C 90.011719 103.5 89.546875 101.132812 91.476562 98.777344 C 92.175781 97.925781 92.992188 97.089844 93.855469 96.207031 C 94.75 95.292969 95.671875 94.351562 96.523438 93.328125 C 96.683594 93.132812 96.976562 93.105469 97.171875 93.269531 C 97.367188 93.433594 97.398438 93.722656 97.234375 93.917969 C 96.363281 94.96875 95.425781 95.925781 94.519531 96.851562 C 93.667969 97.722656 92.863281 98.542969 92.195312 99.359375 C 90.539062 101.378906 90.921875 103.328125 91.261719 105.050781 C 91.519531 106.371094 91.765625 107.617188 90.824219 108.453125 C 89.984375 109.199219 88.789062 109.351562 87.628906 109.5 C 86.597656 109.628906 85.527344 109.765625 84.714844 110.3125 C 83.851562 110.898438 82.722656 111.847656 81.421875 112.945312 C 80.042969 114.105469 78.480469 115.417969 76.917969 116.550781 C 75.34375 117.695312 74.105469 118.175781 72.976562 118.175781 " fill-opacity="1" fill-rule="nonzero"/><path fill="#000000" d="M 7.269531 183.464844 C 7.019531 183.464844 6.816406 183.269531 6.804688 183.019531 C 6.738281 181.0625 6.679688 177.519531 6.613281 173.417969 C 6.554688 169.859375 6.488281 165.84375 6.402344 161.972656 C 6.203125 152.964844 6.859375 144.769531 6.863281 144.683594 C 6.886719 144.433594 7.113281 144.242188 7.363281 144.261719 C 7.617188 144.285156 7.808594 144.507812 7.785156 144.761719 C 7.777344 144.839844 7.128906 152.996094 7.328125 161.949219 C 7.414062 165.824219 7.480469 169.839844 7.539062 173.402344 C 7.605469 177.5 7.664062 181.039062 7.730469 182.988281 C 7.742188 183.242188 7.539062 183.457031 7.285156 183.464844 C 7.28125 183.464844 7.273438 183.464844 7.269531 183.464844 " fill-opacity="1" fill-rule="nonzero"/><path fill="#000000" d="M 15.414062 185.125 C 15.164062 185.125 14.960938 184.933594 14.949219 184.683594 C 14.941406 184.414062 13.953125 157.757812 15.179688 140.785156 C 15.199219 140.53125 15.421875 140.339844 15.675781 140.359375 C 15.929688 140.378906 16.121094 140.597656 16.101562 140.851562 C 14.878906 157.773438 15.863281 184.378906 15.875 184.648438 C 15.886719 184.902344 15.683594 185.117188 15.429688 185.125 C 15.421875 185.125 15.417969 185.125 15.414062 185.125 " fill-opacity="1" fill-rule="nonzero"/><g clip-path="url(#2d5742405a)"><path fill="#000000" d="M 39.554688 186.621094 C 39.539062 186.621094 39.523438 186.621094 39.507812 186.617188 C 39.253906 186.59375 39.066406 186.363281 39.097656 186.113281 C 39.636719 180.949219 40.351562 174.625 41.042969 168.507812 C 41.363281 165.699219 41.679688 162.902344 41.976562 160.222656 C 42 160.011719 42.082031 159.492188 42.203125 158.714844 C 43.046875 153.257812 45.621094 136.648438 44.363281 126.433594 C 43.507812 119.484375 39.371094 114.878906 33.011719 113.808594 C 32.761719 113.765625 32.589844 113.527344 32.632812 113.273438 C 32.675781 113.023438 32.914062 112.851562 33.164062 112.894531 C 39.855469 114.027344 44.382812 119.042969 45.28125 126.320312 C 46.554688 136.664062 43.964844 153.367188 43.113281 158.855469 C 42.996094 159.613281 42.917969 160.121094 42.898438 160.328125 C 42.597656 163.003906 42.28125 165.800781 41.960938 168.613281 C 41.269531 174.726562 40.554688 181.046875 40.015625 186.207031 C 39.988281 186.445312 39.789062 186.621094 39.554688 186.621094 " fill-opacity="1" fill-rule="nonzero"/></g><path fill="#000000" d="M 107.023438 82.785156 C 106.996094 82.785156 106.964844 82.78125 106.9375 82.777344 C 106.683594 82.726562 106.523438 82.484375 106.570312 82.234375 C 107.382812 78.050781 105.695312 74.214844 101.941406 71.710938 C 101.730469 71.566406 101.675781 71.28125 101.816406 71.070312 C 101.957031 70.855469 102.246094 70.800781 102.457031 70.941406 C 106.535156 73.664062 108.367188 77.847656 107.476562 82.410156 C 107.433594 82.632812 107.242188 82.785156 107.023438 82.785156 " fill-opacity="1" fill-rule="nonzero"/><path fill="#000000" d="M 91.871094 100.488281 C 91.667969 100.488281 91.453125 100.480469 91.226562 100.46875 C 90.972656 100.453125 90.777344 100.234375 90.792969 99.980469 C 90.808594 99.726562 91.023438 99.535156 91.28125 99.546875 C 94.617188 99.734375 94.917969 98.335938 94.921875 98.320312 C 94.964844 98.074219 95.199219 97.902344 95.445312 97.945312 C 95.695312 97.980469 95.867188 98.203125 95.835938 98.453125 C 95.824219 98.539062 95.523438 100.488281 91.871094 100.488281 " fill-opacity="1" fill-rule="nonzero"/><path fill="#000000" d="M 98.085938 85.824219 C 97.914062 85.824219 97.75 85.730469 97.671875 85.5625 C 97.558594 85.332031 97.65625 85.054688 97.886719 84.945312 C 98.535156 84.636719 99.144531 84.488281 99.925781 84.453125 C 100.1875 84.441406 100.398438 84.640625 100.40625 84.894531 C 100.417969 85.148438 100.222656 85.367188 99.964844 85.378906 C 99.308594 85.40625 98.820312 85.523438 98.289062 85.78125 C 98.222656 85.8125 98.15625 85.824219 98.085938 85.824219 " fill-opacity="1" fill-rule="nonzero"/><path fill="#000000" d="M 80.90625 87.40625 C 78.960938 87.40625 78.234375 86.636719 78.101562 86.476562 C 78.003906 86.355469 77.972656 86.191406 78.019531 86.042969 C 78.066406 85.894531 78.1875 85.78125 78.335938 85.738281 C 78.390625 85.722656 83.984375 84.117188 87.871094 79.886719 C 88.046875 79.699219 88.339844 79.6875 88.527344 79.859375 C 88.714844 80.03125 88.726562 80.324219 88.554688 80.511719 C 85.46875 83.875 81.464844 85.617188 79.605469 86.289062 C 80.875 86.664062 83.875 86.71875 90.050781 83.207031 C 93.8125 81.066406 95.511719 80.488281 96.53125 80.988281 C 97.332031 81.382812 97.535156 82.363281 97.695312 83.511719 C 97.730469 83.765625 97.554688 83.996094 97.304688 84.03125 C 97.050781 84.066406 96.816406 83.894531 96.78125 83.640625 C 96.632812 82.59375 96.484375 81.996094 96.125 81.820312 C 95.289062 81.410156 92.683594 82.773438 90.507812 84.011719 C 85.796875 86.6875 82.785156 87.40625 80.90625 87.40625 " fill-opacity="1" fill-rule="nonzero"/><path fill="#000000" d="M 98.410156 79.746094 C 98.378906 79.746094 98.347656 79.742188 98.316406 79.734375 C 98.066406 79.683594 97.90625 79.4375 97.957031 79.191406 C 98.765625 75.25 95.03125 72.78125 93.867188 72.121094 C 93.648438 71.992188 93.570312 71.710938 93.695312 71.488281 C 93.820312 71.265625 94.105469 71.191406 94.328125 71.316406 C 95.625 72.058594 99.796875 74.824219 98.863281 79.375 C 98.816406 79.59375 98.625 79.746094 98.410156 79.746094 " fill-opacity="1" fill-rule="nonzero"/><path fill="#000000" d="M 67.027344 97.773438 C 66.996094 97.773438 66.964844 97.769531 66.933594 97.761719 C 66.710938 97.71875 66.554688 97.519531 66.566406 97.292969 C 66.574219 97.03125 66.863281 90.867188 69.898438 85.839844 C 72.933594 80.824219 78.582031 77.148438 78.824219 76.996094 C 79.035156 76.855469 79.320312 76.917969 79.460938 77.132812 C 79.601562 77.347656 79.539062 77.632812 79.324219 77.769531 C 79.265625 77.808594 73.609375 81.488281 70.691406 86.320312 C 68.984375 89.140625 68.179688 92.417969 67.804688 94.65625 C 70 90.726562 75.34375 83.421875 85.171875 82.28125 C 85.429688 82.257812 85.65625 82.433594 85.6875 82.691406 C 85.714844 82.941406 85.535156 83.171875 85.28125 83.203125 C 72.367188 84.695312 67.507812 97.34375 67.457031 97.472656 C 67.390625 97.65625 67.214844 97.773438 67.027344 97.773438 " fill-opacity="1" fill-rule="nonzero"/><path fill="#000000" d="M 76.320312 79.277344 C 76.277344 79.277344 76.234375 79.269531 76.191406 79.257812 C 70.226562 77.523438 67.71875 72.910156 67.617188 72.710938 C 67.519531 72.523438 67.558594 72.292969 67.71875 72.152344 C 67.875 72.007812 68.109375 71.992188 68.285156 72.113281 C 68.363281 72.167969 76.304688 77.421875 84.46875 72.660156 C 84.6875 72.53125 84.972656 72.605469 85.101562 72.824219 C 85.230469 73.046875 85.152344 73.328125 84.933594 73.457031 C 78.632812 77.132812 72.476562 75.195312 69.542969 73.835938 C 70.753906 75.285156 72.996094 77.367188 76.449219 78.371094 C 76.695312 78.441406 76.835938 78.695312 76.765625 78.941406 C 76.707031 79.144531 76.523438 79.277344 76.320312 79.277344 " fill-opacity="1" fill-rule="nonzero"/><path fill="#000000" d="M 29.492188 91.496094 C 27.664062 91.496094 26.539062 91.105469 26.414062 91.058594 C 26.226562 90.988281 26.105469 90.808594 26.113281 90.605469 C 26.121094 90.410156 26.253906 90.238281 26.449219 90.179688 C 26.5 90.164062 31.976562 88.542969 37.996094 82.9375 C 40.117188 80.964844 42.109375 78.0625 44.21875 74.992188 C 45.15625 73.628906 46.125 72.214844 47.140625 70.84375 C 54.875 60.324219 62.332031 53.058594 73.558594 51.765625 C 84.46875 50.511719 92.335938 58.449219 98.660156 64.828125 C 99.660156 65.835938 100.605469 66.789062 101.53125 67.675781 C 104.679688 70.695312 107.066406 70.511719 107.085938 70.511719 C 107.308594 70.484375 107.507812 70.625 107.574219 70.832031 C 107.636719 71.042969 107.546875 71.269531 107.355469 71.375 C 107.222656 71.449219 104.011719 73.167969 99.234375 70.660156 C 99.007812 70.542969 98.921875 70.261719 99.039062 70.035156 C 99.160156 69.8125 99.4375 69.722656 99.664062 69.839844 C 101.941406 71.035156 103.800781 71.191406 105.066406 71.058594 C 103.960938 70.671875 102.507812 69.890625 100.890625 68.34375 C 99.957031 67.449219 99.007812 66.488281 98.003906 65.476562 C 91.816406 59.242188 84.121094 51.484375 73.664062 52.683594 C 62.769531 53.9375 55.476562 61.066406 47.882812 71.390625 C 46.878906 72.753906 45.914062 74.15625 44.980469 75.515625 C 42.84375 78.632812 40.820312 81.574219 38.628906 83.617188 C 34.351562 87.597656 30.402344 89.601562 28.296875 90.484375 C 31.082031 90.75 37.265625 90.234375 44.125 82.472656 C 44.292969 82.28125 44.585938 82.261719 44.777344 82.433594 C 44.96875 82.601562 44.984375 82.890625 44.816406 83.082031 C 38.539062 90.191406 32.835938 91.496094 29.492188 91.496094 " fill-opacity="1" fill-rule="nonzero"/><path fill="#000000" d="M 88.191406 98.574219 C 88.152344 98.574219 88.113281 98.570312 88.074219 98.558594 C 87.960938 98.527344 85.324219 97.804688 85.003906 94.769531 C 84.976562 94.515625 85.160156 94.285156 85.414062 94.261719 C 85.671875 94.238281 85.898438 94.417969 85.921875 94.671875 C 86.175781 97.058594 88.222656 97.640625 88.308594 97.664062 C 88.554688 97.730469 88.703125 97.984375 88.636719 98.230469 C 88.582031 98.433594 88.394531 98.574219 88.191406 98.574219 " fill-opacity="1" fill-rule="nonzero"/><path fill="#000000" d="M 147.070312 174.023438 C 146.871094 174.023438 146.691406 173.898438 146.625 173.699219 C 146.078125 171.925781 147.445312 170.832031 148.175781 170.242188 C 148.355469 170.101562 148.539062 169.953125 148.601562 169.871094 C 148.761719 169.65625 149.007812 169.074219 148.859375 167.570312 C 148.574219 164.730469 148.179688 162.9375 147.011719 159.234375 C 145.980469 155.945312 143.472656 149.980469 139.808594 144.003906 C 137.234375 139.796875 133.464844 135.628906 130.433594 132.28125 C 129.386719 131.125 128.398438 130.035156 127.617188 129.113281 C 127.453125 128.917969 127.476562 128.625 127.671875 128.460938 C 127.867188 128.296875 128.160156 128.320312 128.324219 128.515625 C 129.09375 129.425781 130.078125 130.511719 131.117188 131.660156 C 134.175781 135.039062 137.976562 139.242188 140.597656 143.519531 C 144.304688 149.570312 146.84375 155.617188 147.894531 158.960938 C 149.070312 162.6875 149.488281 164.601562 149.777344 167.476562 C 149.917969 168.882812 149.777344 169.847656 149.34375 170.425781 C 149.210938 170.601562 149.011719 170.761719 148.753906 170.964844 C 147.875 171.667969 147.175781 172.339844 147.511719 173.425781 C 147.585938 173.671875 147.449219 173.929688 147.207031 174.003906 C 147.160156 174.019531 147.113281 174.023438 147.070312 174.023438 " fill-opacity="1" fill-rule="nonzero"/><path fill="#000000" d="M 149.507812 173.917969 C 149.308594 173.917969 149.125 173.789062 149.066406 173.589844 C 149.046875 173.515625 148.570312 171.796875 150.640625 170.578125 C 150.859375 170.449219 151.144531 170.523438 151.273438 170.742188 C 151.402344 170.960938 151.328125 171.246094 151.109375 171.375 C 149.679688 172.214844 149.941406 173.289062 149.957031 173.332031 C 150.019531 173.578125 149.875 173.832031 149.632812 173.898438 C 149.59375 173.914062 149.550781 173.917969 149.507812 173.917969 " fill-opacity="1" fill-rule="nonzero"/><path fill="#000000" d="M 154.753906 174.109375 C 153.832031 174.109375 152.914062 173.988281 152.679688 173.84375 C 152.347656 173.636719 152.144531 173.292969 152.109375 172.875 C 152.054688 172.234375 152.390625 171.542969 153.027344 170.976562 C 153.21875 170.8125 153.507812 170.828125 153.679688 171.019531 C 153.851562 171.210938 153.832031 171.5 153.640625 171.671875 C 153.15625 172.097656 153.007812 172.53125 153.03125 172.796875 C 153.039062 172.917969 153.085938 173.007812 153.167969 173.054688 C 153.585938 173.207031 155.890625 173.289062 156.308594 172.980469 C 156.734375 170.675781 156.414062 150.027344 151.734375 132.589844 C 151.667969 132.34375 151.816406 132.089844 152.0625 132.023438 C 152.308594 131.957031 152.5625 132.105469 152.628906 132.351562 C 157.179688 149.3125 157.773438 170.585938 157.199219 173.222656 C 157.160156 173.414062 157.023438 173.679688 156.601562 173.859375 C 156.175781 174.039062 155.460938 174.109375 154.753906 174.109375 " fill-opacity="1" fill-rule="nonzero"/><path fill="#000000" d="M 125.480469 174.066406 C 125.285156 174.066406 125.101562 173.9375 125.039062 173.742188 C 124.539062 172.121094 125.316406 171.472656 126.066406 170.84375 C 126.386719 170.570312 126.71875 170.292969 127.015625 169.910156 C 127.90625 168.746094 128.5 161.433594 124.464844 147.285156 C 123.207031 142.878906 121.988281 139.460938 120.917969 136.445312 C 119.617188 132.796875 118.496094 129.644531 117.636719 125.761719 C 117.582031 125.511719 117.738281 125.265625 117.988281 125.210938 C 118.238281 125.152344 118.484375 125.3125 118.539062 125.5625 C 119.386719 129.386719 120.5 132.515625 121.789062 136.136719 C 122.867188 139.164062 124.085938 142.597656 125.351562 147.03125 C 129.375 161.132812 128.957031 168.890625 127.75 170.46875 C 127.394531 170.933594 127.003906 171.261719 126.660156 171.550781 C 125.957031 172.140625 125.605469 172.4375 125.921875 173.464844 C 126 173.710938 125.863281 173.96875 125.617188 174.042969 C 125.574219 174.058594 125.527344 174.066406 125.480469 174.066406 " fill-opacity="1" fill-rule="nonzero"/><path fill="#000000" d="M 124.398438 131.496094 C 124.304688 131.496094 124.214844 131.46875 124.132812 131.410156 C 116.996094 126.40625 113.109375 120.390625 112.625 117.71875 C 112.582031 117.464844 112.746094 117.226562 113 117.179688 C 113.25 117.132812 113.488281 117.304688 113.535156 117.554688 C 113.894531 119.53125 117.082031 125.335938 124.664062 130.65625 C 124.871094 130.804688 124.921875 131.089844 124.777344 131.300781 C 124.6875 131.429688 124.542969 131.496094 124.398438 131.496094 " fill-opacity="1" fill-rule="nonzero"/><path fill="#000000" d="M 127.917969 173.957031 C 127.71875 173.957031 127.535156 173.832031 127.480469 173.628906 C 127.457031 173.554688 126.980469 171.835938 129.050781 170.621094 C 129.273438 170.488281 129.554688 170.5625 129.683594 170.78125 C 129.8125 171.003906 129.738281 171.285156 129.519531 171.417969 C 128.089844 172.253906 128.355469 173.328125 128.367188 173.375 C 128.433594 173.617188 128.289062 173.871094 128.042969 173.941406 C 128.003906 173.953125 127.960938 173.957031 127.917969 173.957031 " fill-opacity="1" fill-rule="nonzero"/><path fill="#000000" d="M 132.953125 174.132812 C 132.0625 174.132812 131.230469 174.027344 131.007812 173.894531 C 130.695312 173.695312 130.503906 173.371094 130.46875 172.976562 C 130.414062 172.335938 130.777344 171.605469 131.4375 171.019531 C 131.628906 170.847656 131.921875 170.867188 132.089844 171.058594 C 132.261719 171.246094 132.242188 171.539062 132.050781 171.710938 C 131.53125 172.175781 131.371094 172.636719 131.390625 172.894531 C 131.402344 173.015625 131.445312 173.066406 131.476562 173.09375 C 132 173.25 134.363281 173.269531 134.765625 172.953125 C 135.25 170.621094 137.554688 152.917969 134.53125 136.800781 C 134.488281 136.546875 134.652344 136.308594 134.902344 136.261719 C 135.160156 136.210938 135.394531 136.378906 135.441406 136.632812 C 138.511719 153.011719 136.125 171.042969 135.660156 173.199219 C 135.597656 173.480469 135.386719 173.699219 135.039062 173.847656 C 134.554688 174.054688 133.734375 174.132812 132.953125 174.132812 " fill-opacity="1" fill-rule="nonzero"/><path fill="#000000" d="M 199.765625 173.78125 C 199.566406 173.78125 199.382812 173.65625 199.324219 173.457031 C 198.8125 171.808594 199.796875 170.917969 200.585938 170.199219 C 200.886719 169.925781 201.175781 169.667969 201.375 169.382812 C 202.058594 168.417969 202.832031 163.855469 200.6875 156.589844 C 198.878906 150.480469 195.726562 146.878906 188.886719 140.609375 C 183.953125 136.089844 177.214844 129.339844 175.734375 122.964844 C 175.679688 122.71875 175.832031 122.46875 176.082031 122.410156 C 176.332031 122.355469 176.578125 122.507812 176.636719 122.757812 C 178.226562 129.589844 186.425781 137.101562 189.511719 139.929688 C 195.664062 145.566406 199.546875 149.484375 201.574219 156.328125 C 203.757812 163.714844 203.074219 168.582031 202.128906 169.914062 C 201.871094 170.28125 201.535156 170.585938 201.210938 170.882812 C 200.378906 171.636719 199.886719 172.148438 200.207031 173.183594 C 200.28125 173.429688 200.144531 173.6875 199.902344 173.761719 C 199.855469 173.777344 199.808594 173.78125 199.765625 173.78125 " fill-opacity="1" fill-rule="nonzero"/><path fill="#000000" d="M 202.382812 173.695312 C 202.183594 173.695312 202 173.570312 201.941406 173.367188 C 201.917969 173.292969 201.441406 171.574219 203.511719 170.359375 C 203.730469 170.226562 204.015625 170.300781 204.144531 170.519531 C 204.277344 170.742188 204.203125 171.023438 203.980469 171.15625 C 202.554688 171.992188 202.816406 173.066406 202.832031 173.113281 C 202.894531 173.359375 202.75 173.613281 202.507812 173.679688 C 202.464844 173.691406 202.421875 173.695312 202.382812 173.695312 " fill-opacity="1" fill-rule="nonzero"/><g clip-path="url(#eea9947703)"><path fill="#000000" d="M 154.046875 98.84375 C 146.648438 98.84375 137.097656 97 127.433594 93.625 C 127.195312 93.542969 127.066406 93.28125 127.152344 93.039062 C 127.234375 92.796875 127.496094 92.671875 127.742188 92.753906 C 141.609375 97.59375 152.828125 98.445312 158.703125 97.625 C 163.769531 96.921875 167.046875 95.328125 170.214844 93.789062 C 173.410156 92.238281 176.425781 90.769531 180.988281 90.253906 C 182.257812 90.109375 183.480469 90.191406 184.664062 90.269531 C 186.832031 90.414062 188.882812 90.550781 190.789062 89.230469 C 203.472656 80.425781 201.90625 52.03125 191.777344 35.820312 C 188.820312 31.09375 189.28125 29.25 191.257812 27.324219 C 191.988281 26.609375 192.90625 26.339844 193.90625 26.535156 C 196.464844 27.046875 199.40625 30.519531 201.582031 35.601562 C 208.429688 51.585938 212.335938 81.773438 193.652344 94.722656 C 193.445312 94.871094 193.15625 94.820312 193.007812 94.609375 C 192.863281 94.398438 192.917969 94.109375 193.125 93.964844 C 211.355469 81.324219 207.464844 51.679688 200.734375 35.964844 C 198.734375 31.304688 195.921875 27.878906 193.726562 27.445312 C 193.015625 27.304688 192.421875 27.480469 191.90625 27.984375 C 190.648438 29.210938 189.460938 30.367188 192.5625 35.332031 C 197.476562 43.203125 200.632812 54.582031 200.792969 65.03125 C 200.972656 76.761719 197.609375 85.625 191.316406 89.988281 C 189.144531 91.496094 186.835938 91.339844 184.601562 91.195312 C 183.460938 91.117188 182.277344 91.039062 181.089844 91.171875 C 176.6875 91.671875 173.742188 93.105469 170.621094 94.617188 C 167.386719 96.191406 164.042969 97.816406 158.832031 98.539062 C 157.371094 98.742188 155.765625 98.84375 154.046875 98.84375 " fill-opacity="1" fill-rule="nonzero"/></g><path fill="#000000" d="M 207.117188 174.039062 C 206.410156 174.039062 205.738281 173.914062 205.328125 173.65625 C 205.0625 173.492188 204.898438 173.214844 204.867188 172.878906 C 204.8125 172.230469 205.273438 171.367188 206.042969 170.6875 C 206.234375 170.515625 206.527344 170.535156 206.695312 170.726562 C 206.863281 170.917969 206.847656 171.207031 206.65625 171.378906 C 206.0625 171.90625 205.765625 172.503906 205.789062 172.800781 C 205.796875 172.859375 205.8125 172.867188 205.816406 172.875 C 206.246094 173.140625 207.675781 173.246094 208.5625 172.867188 C 208.769531 172.78125 209.027344 172.632812 209.074219 172.417969 C 209.25 171.609375 209.882812 167.441406 209.953125 163.226562 C 209.96875 162.234375 210.023438 161.050781 210.074219 159.796875 C 210.265625 155.546875 210.496094 150.253906 209.769531 145.382812 C 209.429688 143.136719 208.601562 141.679688 207.546875 139.839844 C 206.601562 138.179688 205.53125 136.300781 204.585938 133.398438 C 203.746094 130.820312 202.851562 125.511719 202.296875 119.871094 C 201.632812 113.09375 199.125 96.921875 190.171875 93.140625 C 189.9375 93.042969 189.828125 92.773438 189.925781 92.535156 C 190.023438 92.300781 190.296875 92.191406 190.53125 92.289062 C 199.941406 96.261719 202.539062 112.839844 203.21875 119.78125 C 203.765625 125.359375 204.648438 130.59375 205.46875 133.113281 C 206.378906 135.921875 207.425781 137.761719 208.351562 139.378906 C 209.410156 141.230469 210.320312 142.828125 210.683594 145.246094 C 211.421875 150.207031 211.179688 155.773438 211 159.835938 C 210.945312 161.085938 210.894531 162.261719 210.878906 163.242188 C 210.808594 167.488281 210.183594 171.652344 209.980469 172.609375 C 209.90625 172.945312 209.664062 173.40625 208.921875 173.71875 C 208.417969 173.933594 207.753906 174.039062 207.117188 174.039062 " fill-opacity="1" fill-rule="nonzero"/><path fill="#000000" d="M 171.886719 173.867188 C 171.6875 173.867188 171.503906 173.738281 171.441406 173.535156 C 170.957031 171.902344 171.890625 171.140625 172.636719 170.527344 C 172.949219 170.273438 173.242188 170.035156 173.453125 169.742188 C 174.109375 168.835938 175.53125 164.578125 173.476562 157.191406 C 172.714844 154.453125 170.757812 151.773438 168.683594 148.9375 C 166.003906 145.269531 162.964844 141.109375 161.566406 135.679688 C 161.503906 135.433594 161.652344 135.179688 161.898438 135.117188 C 162.148438 135.054688 162.398438 135.203125 162.460938 135.449219 C 163.816406 140.710938 166.800781 144.789062 169.433594 148.394531 C 171.554688 151.296875 173.5625 154.042969 174.367188 156.945312 C 176.449219 164.441406 175.171875 168.949219 174.203125 170.285156 C 173.917969 170.671875 173.566406 170.964844 173.222656 171.242188 C 172.496094 171.835938 172.019531 172.226562 172.328125 173.277344 C 172.402344 173.519531 172.261719 173.777344 172.015625 173.847656 C 171.976562 173.863281 171.929688 173.867188 171.886719 173.867188 " fill-opacity="1" fill-rule="nonzero"/><path fill="#000000" d="M 174.328125 173.789062 C 174.125 173.789062 173.941406 173.65625 173.882812 173.453125 C 173.863281 173.378906 173.40625 171.65625 175.488281 170.460938 C 175.710938 170.335938 175.996094 170.414062 176.121094 170.632812 C 176.25 170.855469 176.171875 171.136719 175.949219 171.265625 C 174.511719 172.089844 174.765625 173.164062 174.773438 173.210938 C 174.835938 173.457031 174.691406 173.707031 174.445312 173.773438 C 174.40625 173.78125 174.367188 173.789062 174.328125 173.789062 " fill-opacity="1" fill-rule="nonzero"/><path fill="#000000" d="M 179.417969 174.109375 C 179.402344 174.109375 179.390625 174.109375 179.375 174.109375 L 179.171875 174.109375 C 178.53125 174.109375 177.867188 174.105469 177.480469 173.859375 C 177.15625 173.652344 176.960938 173.296875 176.929688 172.863281 C 176.878906 172.183594 177.230469 171.445312 177.871094 170.890625 C 178.0625 170.722656 178.355469 170.742188 178.523438 170.933594 C 178.691406 171.128906 178.671875 171.421875 178.476562 171.589844 C 177.984375 172.019531 177.828125 172.507812 177.851562 172.796875 C 177.859375 172.875 177.878906 173.015625 177.980469 173.082031 C 178.140625 173.183594 178.8125 173.183594 179.175781 173.183594 L 179.378906 173.183594 C 180.003906 173.203125 181.03125 173.117188 181.148438 172.597656 C 181.347656 171.722656 182.054688 167.015625 182.421875 162.859375 C 182.90625 157.371094 183.121094 150.652344 182.269531 148.269531 C 182.140625 147.910156 182.003906 147.53125 181.859375 147.144531 C 180.316406 142.933594 178.199219 137.171875 180.953125 132.671875 C 181.089844 132.453125 181.371094 132.382812 181.589844 132.519531 C 181.808594 132.652344 181.878906 132.9375 181.742188 133.15625 C 179.222656 137.273438 181.246094 142.792969 182.730469 146.828125 C 182.871094 147.21875 183.011719 147.59375 183.140625 147.957031 C 184.277344 151.136719 183.582031 160.230469 183.34375 162.941406 C 182.964844 167.207031 182.261719 171.886719 182.050781 172.800781 C 181.855469 173.667969 180.96875 174.109375 179.417969 174.109375 " fill-opacity="1" fill-rule="nonzero"/><path fill="#000000" d="M 154.667969 136.570312 C 154.117188 136.570312 153.601562 136.546875 153.121094 136.496094 C 152.871094 136.46875 152.683594 136.242188 152.714844 135.988281 C 152.738281 135.734375 152.960938 135.542969 153.222656 135.578125 C 159.421875 136.226562 173.011719 132.097656 177.871094 128.082031 C 178.070312 127.917969 178.359375 127.945312 178.523438 128.140625 C 178.6875 128.339844 178.660156 128.628906 178.460938 128.792969 C 173.738281 132.699219 161.597656 136.570312 154.667969 136.570312 " fill-opacity="1" fill-rule="nonzero"/><path fill="#000000" d="M 95.066406 104.867188 C 94.847656 104.867188 94.652344 104.710938 94.609375 104.488281 C 93.601562 98.804688 97.308594 91.019531 98.824219 88.496094 C 99.636719 87.140625 99.628906 84.832031 99.617188 82.800781 C 99.613281 81.308594 99.609375 80.023438 99.929688 79.238281 C 100.125 78.757812 100.425781 78.460938 100.828125 78.355469 C 101.765625 78.105469 102.902344 78.992188 104.472656 80.222656 C 104.914062 80.566406 105.378906 80.933594 105.867188 81.289062 C 108.039062 82.886719 109.210938 83.078125 110.6875 83.328125 C 110.898438 83.359375 111.113281 83.398438 111.339844 83.441406 C 112.082031 83.574219 112.84375 83.683594 113.578125 83.789062 C 115.160156 84.011719 116.800781 84.246094 118.375 84.757812 C 118.761719 84.878906 127.820312 87.933594 125.953125 97.375 C 125.902344 97.625 125.664062 97.789062 125.410156 97.742188 C 125.160156 97.691406 124.996094 97.449219 125.046875 97.199219 C 126.753906 88.546875 118.445312 85.75 118.089844 85.636719 C 116.589844 85.148438 114.992188 84.921875 113.449219 84.703125 C 112.703125 84.597656 111.933594 84.488281 111.175781 84.347656 C 110.953125 84.308594 110.742188 84.273438 110.535156 84.238281 C 109 83.980469 107.671875 83.761719 105.320312 82.035156 C 104.824219 81.671875 104.347656 81.300781 103.902344 80.949219 C 102.75 80.046875 101.5625 79.121094 101.0625 79.25 C 101.027344 79.257812 100.90625 79.292969 100.785156 79.589844 C 100.535156 80.199219 100.539062 81.460938 100.542969 82.796875 C 100.554688 84.949219 100.5625 87.394531 99.617188 88.972656 C 98.152344 91.410156 94.5625 98.925781 95.523438 104.328125 C 95.566406 104.578125 95.398438 104.816406 95.148438 104.863281 C 95.121094 104.867188 95.09375 104.867188 95.066406 104.867188 " fill-opacity="1" fill-rule="nonzero"/><path fill="#000000" d="M 107.917969 118.984375 C 106.191406 118.984375 104.644531 118.539062 103.3125 117.644531 C 100.761719 115.929688 98.742188 113.109375 97.535156 111.425781 C 97.066406 110.769531 96.660156 110.207031 96.464844 110.046875 C 95.949219 109.621094 95.011719 109.914062 94.183594 110.167969 C 93.402344 110.410156 92.664062 110.640625 92.125 110.324219 C 91.859375 110.167969 91.683594 109.914062 91.609375 109.5625 C 91.210938 107.746094 92.996094 102.171875 94.546875 100.382812 C 94.714844 100.191406 95.007812 100.167969 95.199219 100.335938 C 95.394531 100.503906 95.414062 100.792969 95.246094 100.988281 C 93.78125 102.679688 92.199219 107.929688 92.511719 109.363281 C 92.523438 109.414062 92.546875 109.5 92.589844 109.523438 C 92.78125 109.636719 93.433594 109.433594 93.910156 109.285156 C 94.90625 108.980469 96.152344 108.59375 97.050781 109.332031 C 97.339844 109.566406 97.714844 110.09375 98.285156 110.886719 C 99.457031 112.519531 101.414062 115.257812 103.828125 116.875 C 106.445312 118.632812 109.914062 118.460938 114.140625 116.363281 C 114.367188 116.25 114.644531 116.34375 114.761719 116.570312 C 114.875 116.800781 114.78125 117.078125 114.554688 117.191406 C 112.144531 118.382812 109.914062 118.984375 107.917969 118.984375 " fill-opacity="1" fill-rule="nonzero"/><path fill="#000000" d="M 101.449219 100.898438 C 100.695312 100.398438 102.167969 96.46875 103.054688 96.445312 C 103.941406 96.417969 104.71875 98.984375 104.414062 99.722656 C 104.109375 100.457031 102.117188 101.34375 101.449219 100.898438 " fill-opacity="1" fill-rule="evenodd"/><path fill="#000000" d="M 104.824219 105.039062 C 104.707031 105.039062 104.589844 104.992188 104.5 104.902344 C 104.316406 104.726562 104.316406 104.433594 104.496094 104.25 C 105.757812 102.976562 105.46875 101.945312 105.210938 101.03125 C 105.074219 100.550781 104.957031 100.136719 105.105469 99.746094 C 105.253906 99.351562 105.617188 99.105469 106.042969 98.820312 C 106.84375 98.28125 107.839844 97.613281 108.015625 95.722656 C 108.039062 95.464844 108.265625 95.273438 108.519531 95.304688 C 108.773438 95.324219 108.960938 95.550781 108.9375 95.804688 C 108.722656 98.136719 107.421875 99.007812 106.5625 99.589844 C 106.304688 99.761719 106.015625 99.957031 105.96875 100.074219 C 105.929688 100.179688 106.023438 100.511719 106.101562 100.78125 C 106.359375 101.703125 106.796875 103.246094 105.152344 104.902344 C 105.0625 104.992188 104.945312 105.039062 104.824219 105.039062 " fill-opacity="1" fill-rule="nonzero"/><path fill="#000000" d="M 110.433594 88.402344 C 110.414062 88.402344 110.390625 88.398438 110.367188 88.394531 C 110.113281 88.355469 109.941406 88.125 109.980469 87.867188 C 110.488281 84.4375 111.925781 79.878906 114.4375 77.367188 C 114.617188 77.1875 114.910156 77.1875 115.09375 77.367188 C 115.273438 77.546875 115.273438 77.835938 115.09375 78.019531 C 112.738281 80.371094 111.378906 84.71875 110.890625 88.003906 C 110.859375 88.234375 110.660156 88.402344 110.433594 88.402344 " fill-opacity="1" fill-rule="nonzero"/><path fill="#000000" d="M 108.492188 86.585938 C 108.488281 86.585938 108.484375 86.585938 108.480469 86.585938 C 108.226562 86.582031 108.023438 86.367188 108.03125 86.113281 C 108.105469 83.085938 108.714844 80.5 109.835938 78.425781 C 109.960938 78.203125 110.238281 78.117188 110.464844 78.238281 C 110.6875 78.363281 110.773438 78.640625 110.652344 78.867188 C 109.597656 80.8125 109.027344 83.257812 108.953125 86.136719 C 108.949219 86.386719 108.742188 86.585938 108.492188 86.585938 " fill-opacity="1" fill-rule="nonzero"/><path fill="#000000" d="M 113.839844 87.476562 C 113.773438 87.476562 113.703125 87.460938 113.640625 87.429688 C 113.410156 87.320312 113.3125 87.042969 113.425781 86.8125 C 114.8125 83.972656 116.445312 82.15625 118.894531 80.730469 C 119.113281 80.601562 119.398438 80.675781 119.527344 80.894531 C 119.65625 81.117188 119.578125 81.398438 119.359375 81.527344 C 117.082031 82.851562 115.554688 84.554688 114.257812 87.21875 C 114.175781 87.382812 114.011719 87.476562 113.839844 87.476562 " fill-opacity="1" fill-rule="nonzero"/><path fill="#000000" d="M 97.132812 121.085938 C 97.128906 121.085938 97.125 121.085938 97.121094 121.085938 C 96.863281 121.078125 96.664062 120.867188 96.667969 120.613281 C 96.730469 117.960938 98.007812 115.175781 99.070312 113.308594 C 99.742188 112.125 100.320312 111.5625 100.34375 111.539062 C 100.527344 111.363281 100.820312 111.367188 100.996094 111.550781 C 101.175781 111.734375 101.167969 112.027344 100.988281 112.203125 C 100.976562 112.214844 100.46875 112.71875 99.875 113.765625 C 98.863281 115.539062 97.648438 118.175781 97.59375 120.632812 C 97.589844 120.886719 97.382812 121.085938 97.132812 121.085938 " fill-opacity="1" fill-rule="nonzero"/><path fill="#000000" d="M 94.699219 117.160156 C 94.652344 117.160156 94.605469 117.152344 94.554688 117.136719 C 94.3125 117.058594 94.179688 116.796875 94.257812 116.554688 C 94.863281 114.675781 95.980469 112.8125 97.574219 111.007812 C 97.742188 110.816406 98.03125 110.796875 98.222656 110.964844 C 98.414062 111.132812 98.433594 111.425781 98.265625 111.617188 C 96.757812 113.324219 95.707031 115.082031 95.140625 116.839844 C 95.078125 117.035156 94.894531 117.160156 94.699219 117.160156 " fill-opacity="1" fill-rule="nonzero"/><path fill="#000000" d="M 102.628906 121.863281 C 102.421875 121.863281 102.230469 121.722656 102.179688 121.507812 C 101.464844 118.527344 101.832031 116.484375 102.3125 114.488281 C 102.371094 114.238281 102.621094 114.085938 102.867188 114.148438 C 103.117188 114.203125 103.269531 114.453125 103.210938 114.703125 C 102.761719 116.589844 102.410156 118.507812 103.078125 121.292969 C 103.140625 121.542969 102.984375 121.792969 102.738281 121.851562 C 102.703125 121.859375 102.664062 121.863281 102.628906 121.863281 " fill-opacity="1" fill-rule="nonzero"/><path fill="#000000" d="M 109.726562 111.433594 C 109.472656 111.433594 109.265625 111.230469 109.265625 110.972656 C 109.265625 110.714844 109.472656 110.507812 109.726562 110.507812 C 111.75 110.507812 114.550781 109.105469 116.101562 107.3125 C 116.265625 107.121094 116.558594 107.097656 116.75 107.261719 C 116.945312 107.429688 116.964844 107.722656 116.800781 107.917969 C 115.066406 109.921875 112.023438 111.433594 109.726562 111.433594 " fill-opacity="1" fill-rule="nonzero"/><path fill="#000000" d="M 102.902344 93.515625 L 102.910156 93.515625 Z M 102.496094 94.160156 C 102.363281 94.160156 102.230469 94.105469 102.140625 94.003906 C 101.777344 93.605469 101.828125 91.234375 103.066406 89.285156 C 103.203125 89.066406 103.488281 89.003906 103.703125 89.136719 C 103.714844 89.148438 103.730469 89.15625 103.742188 89.164062 C 103.820312 89.050781 103.902344 88.941406 103.992188 88.828125 C 104.148438 88.625 104.4375 88.589844 104.640625 88.746094 C 104.839844 88.902344 104.878906 89.191406 104.722656 89.390625 C 103.617188 90.820312 103.226562 92.613281 103.0625 93.378906 C 102.964844 93.832031 102.929688 94 102.703125 94.109375 C 102.636719 94.144531 102.566406 94.160156 102.496094 94.160156 " fill-opacity="1" fill-rule="nonzero"/><path fill="#000000" d="M 97.65625 106.488281 C 97.632812 106.488281 97.609375 106.488281 97.582031 106.484375 C 97.328125 106.445312 97.15625 106.207031 97.199219 105.957031 C 97.21875 105.835938 97.238281 105.714844 97.265625 105.597656 C 97.25 105.597656 97.234375 105.59375 97.222656 105.589844 C 96.972656 105.523438 96.828125 105.269531 96.894531 105.023438 C 97.425781 103.011719 99.058594 101.644531 99.574219 101.632812 C 99.78125 101.621094 99.980469 101.765625 100.042969 101.960938 C 100.128906 102.21875 100.003906 102.378906 99.753906 102.703125 C 99.335938 103.246094 98.359375 104.519531 98.113281 106.097656 C 98.078125 106.328125 97.878906 106.488281 97.65625 106.488281 " fill-opacity="1" fill-rule="nonzero"/><g clip-path="url(#e16635da5a)"><path fill="#000000" d="M 108.183594 185.035156 C 107.925781 185.035156 107.71875 184.828125 107.71875 184.570312 L 107.71875 175.019531 C 107.71875 174.0625 108.441406 173.28125 109.332031 173.28125 L 224.417969 173.28125 C 224.671875 173.28125 224.878906 173.488281 224.878906 173.742188 C 224.878906 174 224.671875 174.207031 224.417969 174.207031 L 109.332031 174.207031 C 108.953125 174.207031 108.644531 174.570312 108.644531 175.019531 L 108.644531 184.570312 C 108.644531 184.828125 108.4375 185.035156 108.183594 185.035156 " fill-opacity="1" fill-rule="nonzero"/></g><path fill="#000000" d="M 10.664062 148.96875 C 10.574219 148.96875 10.484375 148.941406 10.410156 148.890625 C 10.324219 148.835938 1.898438 143.085938 5.46875 129.429688 C 5.53125 129.183594 5.785156 129.035156 6.03125 129.101562 C 6.28125 129.164062 6.429688 129.417969 6.363281 129.664062 C 3.792969 139.503906 7.542969 144.902344 9.65625 147.035156 C 8.6875 143.949219 7.0625 137.007812 9.292969 130.164062 C 11.085938 124.664062 15.027344 119.632812 20.398438 116.007812 C 26.46875 111.902344 34.683594 110.332031 37.929688 109.851562 L 38.050781 109.832031 C 46.4375 108.582031 54.363281 107.402344 61.40625 92.378906 C 61.515625 92.148438 61.792969 92.046875 62.023438 92.15625 C 62.253906 92.265625 62.355469 92.539062 62.246094 92.769531 C 54.988281 108.242188 46.828125 109.460938 38.1875 110.75 L 38.070312 110.765625 C 34.878906 111.238281 26.832031 112.777344 20.914062 116.773438 C 15.714844 120.285156 11.902344 125.144531 10.171875 130.453125 C 7.355469 139.105469 11.054688 148.238281 11.089844 148.328125 C 11.167969 148.519531 11.113281 148.734375 10.957031 148.863281 C 10.871094 148.933594 10.769531 148.96875 10.664062 148.96875 " fill-opacity="1" fill-rule="nonzero"/><path fill="#000000" d="M 0.507812 155.167969 C 0.355469 155.167969 0.210938 155.09375 0.125 154.96875 C 0.0195312 154.8125 0.0195312 154.609375 0.121094 154.453125 C 0.140625 154.417969 2.214844 151.207031 2.699219 145.003906 C 2.863281 142.902344 2.523438 139.996094 2.191406 137.183594 C 2.0625 136.117188 1.9375 135.058594 1.84375 134.058594 C 0.882812 124.03125 4.523438 115.339844 12.976562 107.484375 C 15.96875 104.703125 18.890625 102.421875 21.71875 100.214844 C 25.355469 97.375 29.117188 94.4375 33.128906 90.367188 C 33.308594 90.183594 33.601562 90.183594 33.785156 90.363281 C 33.96875 90.539062 33.96875 90.832031 33.789062 91.015625 C 29.738281 95.128906 25.949219 98.082031 22.289062 100.941406 C 19.476562 103.136719 16.570312 105.40625 13.605469 108.160156 C 5.378906 115.808594 1.832031 124.25 2.765625 133.96875 C 2.859375 134.964844 2.980469 136.015625 3.109375 137.074219 C 3.445312 139.929688 3.792969 142.882812 3.621094 145.078125 C 3.277344 149.46875 2.183594 152.390625 1.488281 153.859375 C 2.941406 153.167969 5.480469 151.378906 6.664062 147.03125 C 6.730469 146.785156 6.984375 146.640625 7.230469 146.707031 C 7.476562 146.773438 7.621094 147.027344 7.554688 147.273438 C 5.726562 154.003906 0.8125 155.113281 0.605469 155.160156 C 0.570312 155.164062 0.539062 155.167969 0.507812 155.167969 " fill-opacity="1" fill-rule="nonzero"/><path fill="#000000" d="M 30.808594 107.953125 C 30.601562 107.953125 30.414062 107.816406 30.359375 107.609375 C 30.292969 107.363281 30.441406 107.109375 30.6875 107.042969 C 44.578125 103.339844 55.449219 94.613281 59.671875 88.074219 C 59.8125 87.859375 60.09375 87.796875 60.3125 87.933594 C 60.527344 88.074219 60.585938 88.359375 60.449219 88.574219 C 56.132812 95.261719 45.054688 104.171875 30.925781 107.9375 C 30.886719 107.949219 30.84375 107.953125 30.808594 107.953125 " fill-opacity="1" fill-rule="nonzero"/><path fill="#000000" d="M 57.480469 122.738281 C 56.78125 122.738281 56.089844 122.679688 55.421875 122.554688 C 55.171875 122.507812 55.007812 122.265625 55.054688 122.015625 C 55.101562 121.761719 55.34375 121.59375 55.59375 121.644531 C 60.28125 122.527344 66.171875 119.953125 68.722656 115.910156 C 68.859375 115.691406 69.144531 115.628906 69.359375 115.765625 C 69.574219 115.902344 69.640625 116.1875 69.503906 116.402344 C 67.132812 120.164062 62.0625 122.738281 57.480469 122.738281 " fill-opacity="1" fill-rule="nonzero"/><path fill="#000000" d="M 52.339844 126.601562 C 52.15625 126.601562 51.988281 126.496094 51.910156 126.320312 C 49 119.511719 44.265625 113.582031 40.804688 110.304688 C 40.617188 110.128906 40.613281 109.839844 40.789062 109.652344 C 40.964844 109.46875 41.253906 109.460938 41.441406 109.636719 C 44.96875 112.972656 49.796875 119.015625 52.761719 125.957031 C 52.863281 126.191406 52.753906 126.464844 52.519531 126.5625 C 52.460938 126.589844 52.398438 126.601562 52.339844 126.601562 " fill-opacity="1" fill-rule="nonzero"/><path fill="#000000" d="M 12.976562 147.078125 C 12.769531 147.078125 12.578125 146.9375 12.527344 146.726562 C 11.125 141.109375 12.390625 129.804688 16.070312 124.191406 C 16.210938 123.980469 16.5 123.917969 16.710938 124.058594 C 16.925781 124.199219 16.984375 124.488281 16.84375 124.699219 C 13.289062 130.125 12.066406 141.0625 13.425781 146.503906 C 13.488281 146.75 13.335938 147 13.089844 147.0625 C 13.050781 147.074219 13.011719 147.078125 12.976562 147.078125 " fill-opacity="1" fill-rule="nonzero"/><path fill="#f23b20" d="M 122.117188 66.109375 C 122.0625 64.515625 121.011719 64 119.933594 64.074219 C 118.84375 64.144531 117.992188 64.78125 117.992188 64.78125 C 117.992188 64.78125 117.964844 63.847656 117.59375 63.042969 C 117.144531 62.070312 116.117188 61.304688 114.667969 62.105469 C 111.890625 63.640625 113.734375 69.902344 114.929688 70.480469 C 116.035156 71.007812 122.230469 69.222656 122.117188 66.109375 " fill-opacity="1" fill-rule="evenodd"/><path fill="#f23b20" d="M 98.265625 51.085938 C 98.335938 49.050781 99.679688 48.394531 101.054688 48.484375 C 102.449219 48.578125 103.542969 49.390625 103.542969 49.390625 C 103.542969 49.390625 103.574219 48.199219 104.046875 47.167969 C 104.625 45.925781 105.9375 44.941406 107.789062 45.96875 C 111.339844 47.933594 108.984375 55.941406 107.457031 56.675781 C 106.042969 57.355469 98.125 55.070312 98.265625 51.085938 " fill-opacity="1" fill-rule="evenodd"/><path fill="#f23b20" d="M 122.960938 32.070312 C 122.144531 29.449219 120.167969 29.070312 118.410156 29.675781 C 116.632812 30.292969 115.503906 31.734375 115.503906 31.734375 C 115.503906 31.734375 115.039062 30.195312 114.054688 29.03125 C 112.871094 27.613281 110.816406 26.804688 108.769531 28.792969 C 104.855469 32.601562 110.75 42.171875 113 42.582031 C 115.078125 42.964844 124.554688 37.191406 122.960938 32.070312 " fill-opacity="1" fill-rule="evenodd"/></svg>