<svg xmlns="http://www.w3.org/2000/svg" xmlns:xlink="http://www.w3.org/1999/xlink" width="200" zoomAndPan="magnify" viewBox="0 0 375 374.999991" height="200" preserveAspectRatio="xMidYMid meet" version="1.0"><defs><clipPath id="e5f435590e"><path d="M 147.53125 2.265625 L 198.515625 2.265625 L 198.515625 65.019531 L 147.53125 65.019531 Z M 147.53125 2.265625 " clip-rule="nonzero"/></clipPath><clipPath id="007526daa9"><path d="M 179 29 L 222 29 L 222 70 L 179 70 Z M 179 29 " clip-rule="nonzero"/></clipPath><clipPath id="9c34379253"><path d="M 172.957031 33.457031 L 222.226562 27.089844 L 227.3125 66.417969 L 178.042969 72.785156 Z M 172.957031 33.457031 " clip-rule="nonzero"/></clipPath><clipPath id="0d2e35b4c9"><path d="M 172.957031 33.457031 L 222.226562 27.089844 L 227.3125 66.417969 L 178.042969 72.785156 Z M 172.957031 33.457031 " clip-rule="nonzero"/></clipPath><clipPath id="30a03388e1"><path d="M 176.699219 32.972656 L 218.476562 27.574219 L 223.570312 66.980469 L 181.792969 72.382812 Z M 176.699219 32.972656 " clip-rule="nonzero"/></clipPath><clipPath id="b52beb7315"><path d="M 176.699219 32.972656 L 218.476562 27.574219 L 223.558594 66.90625 L 181.785156 72.304688 Z M 176.699219 32.972656 " clip-rule="nonzero"/></clipPath><clipPath id="b984ad6e83"><path d="M 179 29 L 222 29 L 222 67 L 179 67 Z M 179 29 " clip-rule="nonzero"/></clipPath><clipPath id="f1ebd2402a"><path d="M 172.957031 33.457031 L 222.226562 27.089844 L 227.3125 66.417969 L 178.042969 72.785156 Z M 172.957031 33.457031 " clip-rule="nonzero"/></clipPath><clipPath id="1d80f02b87"><path d="M 172.957031 33.457031 L 222.226562 27.089844 L 227.3125 66.417969 L 178.042969 72.785156 Z M 172.957031 33.457031 " clip-rule="nonzero"/></clipPath><clipPath id="91f0249328"><path d="M 185 48 L 219 48 L 219 70 L 185 70 Z M 185 48 " clip-rule="nonzero"/></clipPath><clipPath id="7242fb6b75"><path d="M 172.957031 33.457031 L 222.226562 27.089844 L 227.3125 66.417969 L 178.042969 72.785156 Z M 172.957031 33.457031 " clip-rule="nonzero"/></clipPath><clipPath id="38642f6b07"><path d="M 172.957031 33.457031 L 222.226562 27.089844 L 227.3125 66.417969 L 178.042969 72.785156 Z M 172.957031 33.457031 " clip-rule="nonzero"/></clipPath><clipPath id="cd76bf8808"><path d="M 182.964844 50.59375 L 216.308594 46.285156 L 219.058594 67.566406 L 185.714844 71.875 Z M 182.964844 50.59375 " clip-rule="nonzero"/></clipPath><clipPath id="bee9981a11"><path d="M 182.964844 50.59375 L 216.308594 46.285156 L 219.046875 67.488281 L 185.707031 71.796875 Z M 182.964844 50.59375 " clip-rule="nonzero"/></clipPath><clipPath id="61de48ec7a"><path d="M 186 38 L 212 38 L 212 45 L 186 45 Z M 186 38 " clip-rule="nonzero"/></clipPath><clipPath id="6149395b89"><path d="M 172.957031 33.457031 L 222.226562 27.089844 L 227.3125 66.417969 L 178.042969 72.785156 Z M 172.957031 33.457031 " clip-rule="nonzero"/></clipPath><clipPath id="8137b33eb5"><path d="M 172.957031 33.457031 L 222.226562 27.089844 L 227.3125 66.417969 L 178.042969 72.785156 Z M 172.957031 33.457031 " clip-rule="nonzero"/></clipPath><clipPath id="2530853479"><path d="M 198 57 L 204 57 L 204 61 L 198 61 Z M 198 57 " clip-rule="nonzero"/></clipPath><clipPath id="64bd3e53ea"><path d="M 172.957031 33.457031 L 222.226562 27.089844 L 227.3125 66.417969 L 178.042969 72.785156 Z M 172.957031 33.457031 " clip-rule="nonzero"/></clipPath><clipPath id="4e74644c25"><path d="M 172.957031 33.457031 L 222.226562 27.089844 L 227.3125 66.417969 L 178.042969 72.785156 Z M 172.957031 33.457031 " clip-rule="nonzero"/></clipPath><clipPath id="7a52adafac"><path d="M 175 34 L 225 34 L 225 70 L 175 70 Z M 175 34 " clip-rule="nonzero"/></clipPath><clipPath id="b5db649b4e"><path d="M 172.957031 33.457031 L 222.226562 27.089844 L 227.3125 66.417969 L 178.042969 72.785156 Z M 172.957031 33.457031 " clip-rule="nonzero"/></clipPath><clipPath id="9c516c27d9"><path d="M 172.957031 33.457031 L 222.226562 27.089844 L 227.3125 66.417969 L 178.042969 72.785156 Z M 172.957031 33.457031 " clip-rule="nonzero"/></clipPath></defs><g clip-path="url(#e5f435590e)"><path fill="#fac264" d="M 198.253906 26.210938 C 198.105469 26.03125 197.90625 25.902344 197.710938 25.78125 C 194.796875 23.984375 191.382812 23.03125 187.964844 22.996094 C 186.941406 22.988281 185.980469 22.496094 185.40625 21.652344 C 184.230469 19.917969 182.734375 18.328125 180.941406 16.972656 C 179.730469 16.0625 178.457031 15.3125 177.148438 14.722656 C 176.128906 14.265625 175.429688 13.304688 175.316406 12.191406 C 175 9.136719 173.996094 6.148438 172.375 3.535156 C 172.023438 2.972656 171.566406 2.371094 170.902344 2.277344 C 170.117188 2.167969 169.449219 2.816406 168.945312 3.425781 C 166.65625 6.199219 164.882812 9.394531 163.726562 12.804688 C 163.429688 13.683594 162.816406 14.421875 161.992188 14.851562 C 160.148438 15.820312 158.511719 17.175781 157.207031 18.910156 C 154.246094 22.839844 152.550781 27.367188 153.628906 31.910156 C 153.878906 32.976562 153.644531 34.097656 153.03125 35.003906 C 152.851562 35.269531 152.679688 35.539062 152.507812 35.808594 C 151.699219 37.09375 150.984375 38.4375 150.371094 39.828125 C 148.457031 44.144531 147.488281 48.890625 147.535156 53.617188 C 147.546875 54.945312 148.101562 56.210938 149.054688 57.132812 C 153.816406 61.742188 160.25 64.625 166.875 64.984375 C 172.089844 65.265625 177.355469 63.980469 181.914062 61.433594 C 183.417969 60.59375 184.371094 59.03125 184.4375 57.3125 L 184.4375 57.285156 C 184.535156 54.757812 184.28125 52.210938 183.675781 49.757812 C 183.429688 48.761719 183.128906 47.78125 182.765625 46.820312 C 182.234375 45.398438 182.5625 43.800781 183.617188 42.707031 C 184.3125 41.984375 184.976562 41.1875 185.625 40.328125 C 186.578125 39.0625 187.289062 37.683594 187.769531 36.234375 C 188.144531 35.101562 189.0625 34.234375 190.210938 33.914062 C 193.335938 33.050781 196.164062 31.25 197.941406 28.5625 C 198.410156 27.855469 198.789062 26.871094 198.253906 26.210938 " fill-opacity="1" fill-rule="nonzero"/><path fill="#fac264" d="M 147.535156 53.617188 C 147.488281 48.890625 148.457031 44.144531 150.371094 39.828125 C 153.339844 45.023438 158.039062 49.21875 163.542969 51.558594 C 163.996094 51.753906 164.53125 51.929688 164.957031 51.6875 C 165.433594 51.414062 165.515625 50.71875 165.28125 50.222656 C 165.046875 49.726562 164.585938 49.378906 164.152344 49.042969 C 159.464844 45.4375 155.492188 40.910156 152.507812 35.808594 C 152.679688 35.539062 152.851562 35.269531 153.03125 35.003906 C 153.644531 34.097656 153.878906 32.976562 153.628906 31.910156 C 152.550781 27.367188 154.246094 22.839844 157.207031 18.910156 C 158.511719 17.175781 160.148438 15.820312 161.992188 14.851562 C 162.816406 14.421875 163.429688 13.683594 163.726562 12.804688 C 164.882812 9.394531 166.65625 6.199219 168.945312 3.425781 C 169.449219 2.816406 170.117188 2.167969 170.902344 2.277344 C 171.566406 2.371094 172.023438 2.972656 172.375 3.535156 C 173.996094 6.148438 175 9.136719 175.316406 12.191406 C 175.429688 13.304688 176.128906 14.265625 177.148438 14.722656 C 178.457031 15.3125 179.730469 16.0625 180.941406 16.972656 C 182.734375 18.328125 184.230469 19.917969 185.40625 21.652344 C 185.980469 22.496094 186.941406 22.988281 187.964844 22.996094 C 191.382812 23.03125 194.796875 23.984375 197.710938 25.78125 C 197.90625 25.902344 198.105469 26.03125 198.253906 26.210938 C 198.789062 26.871094 198.410156 27.855469 197.941406 28.5625 C 196.164062 31.25 193.335938 33.050781 190.210938 33.914062 C 189.0625 34.234375 188.144531 35.101562 187.769531 36.234375 C 187.289062 37.683594 186.578125 39.0625 185.625 40.328125 C 184.976562 41.1875 184.3125 41.984375 183.617188 42.707031 C 182.5625 43.800781 182.234375 45.398438 182.765625 46.820312 C 183.128906 47.78125 183.429688 48.761719 183.675781 49.757812 C 183.054688 51.644531 181.375 53.25 179.558594 54.214844 C 177.082031 55.53125 174.25 56.082031 171.78125 57.414062 C 171.171875 57.746094 170.503906 58.289062 170.617188 58.972656 C 170.71875 59.597656 171.414062 59.921875 172.023438 60.089844 C 175.394531 61.03125 179.132812 60.585938 182.1875 58.878906 C 182.992188 58.429688 183.746094 57.890625 184.4375 57.285156 L 184.4375 57.3125 C 184.371094 59.03125 183.417969 60.59375 181.914062 61.433594 C 177.355469 63.980469 172.089844 65.265625 166.875 64.984375 C 160.25 64.625 153.816406 61.742188 149.054688 57.132812 C 148.101562 56.210938 147.546875 54.945312 147.535156 53.617188 Z M 166.132812 13.386719 C 167.992188 13.007812 169.941406 12.949219 171.898438 13.210938 C 171.773438 11.78125 171.433594 10.367188 170.898438 9.035156 C 170.601562 8.292969 170.105469 7.476562 169.3125 7.414062 C 168.445312 7.34375 167.8125 8.199219 167.4375 8.984375 C 166.777344 10.371094 166.335938 11.863281 166.132812 13.386719 Z M 188.488281 30.46875 C 189.984375 30.515625 191.488281 30.191406 192.832031 29.535156 C 193.722656 29.097656 194.652344 28.257812 194.421875 27.289062 C 194.226562 26.480469 193.320312 26.078125 192.507812 25.894531 C 190.886719 25.523438 189.179688 25.535156 187.5625 25.929688 C 188.082031 27.417969 188.394531 28.945312 188.488281 30.46875 " fill-opacity="1" fill-rule="nonzero"/></g><path fill="#f37052" d="M 152.507812 35.808594 C 151.699219 37.09375 150.984375 38.4375 150.371094 39.828125 C 153.339844 45.023438 158.039062 49.21875 163.542969 51.558594 C 163.996094 51.753906 164.53125 51.929688 164.957031 51.6875 C 165.433594 51.414062 165.515625 50.71875 165.28125 50.222656 C 165.046875 49.726562 164.585938 49.378906 164.152344 49.042969 C 159.464844 45.4375 155.492188 40.910156 152.507812 35.808594 Z M 167.4375 8.984375 C 166.777344 10.371094 166.335938 11.863281 166.132812 13.386719 C 167.992188 13.007812 169.941406 12.949219 171.898438 13.210938 C 171.773438 11.78125 171.433594 10.367188 170.898438 9.035156 C 170.601562 8.292969 170.105469 7.476562 169.3125 7.414062 C 168.445312 7.34375 167.8125 8.199219 167.4375 8.984375 Z M 179.558594 54.214844 C 177.082031 55.53125 174.25 56.082031 171.78125 57.414062 C 171.171875 57.746094 170.503906 58.289062 170.617188 58.972656 C 170.71875 59.597656 171.414062 59.921875 172.023438 60.089844 C 175.394531 61.03125 179.132812 60.585938 182.1875 58.878906 C 182.992188 58.429688 183.746094 57.890625 184.4375 57.285156 C 184.535156 54.757812 184.28125 52.210938 183.675781 49.757812 C 183.054688 51.644531 181.375 53.25 179.558594 54.214844 Z M 187.5625 25.929688 C 189.179688 25.535156 190.886719 25.523438 192.507812 25.894531 C 193.320312 26.078125 194.226562 26.480469 194.421875 27.289062 C 194.652344 28.257812 193.722656 29.097656 192.832031 29.535156 C 191.488281 30.191406 189.984375 30.515625 188.488281 30.46875 C 188.394531 28.945312 188.082031 27.417969 187.5625 25.929688 " fill-opacity="1" fill-rule="nonzero"/><path fill="#f1dbc6" d="M 175.648438 35.710938 C 174.167969 38.941406 169.558594 40 165.355469 38.074219 C 161.148438 36.144531 158.941406 31.964844 160.421875 28.734375 C 161.902344 25.5 166.507812 24.445312 170.714844 26.371094 C 174.917969 28.296875 177.128906 32.480469 175.648438 35.710938 " fill-opacity="1" fill-rule="nonzero"/><path fill="#a1733a" d="M 182.414062 23.101562 C 181.355469 22.488281 180.125 22.632812 179.667969 23.421875 C 179.214844 24.210938 180.46875 24.394531 181.527344 25.007812 C 182.589844 25.621094 183.058594 26.429688 183.511719 25.640625 C 183.96875 24.851562 183.476562 23.714844 182.414062 23.101562 Z M 170.324219 17.761719 C 169.867188 18.550781 169.402344 17.742188 168.339844 17.128906 C 167.277344 16.515625 166.027344 16.332031 166.480469 15.542969 C 166.9375 14.753906 168.167969 14.609375 169.226562 15.222656 C 170.289062 15.835938 170.78125 16.972656 170.324219 17.761719 " fill-opacity="1" fill-rule="nonzero"/><path fill="#000000" d="M 173.152344 33.960938 C 172.054688 34.710938 170.511719 34.777344 169.453125 33.914062 C 168.503906 33.140625 168.253906 31.957031 168.40625 30.816406 C 168.445312 30.773438 168.484375 30.730469 168.523438 30.6875 C 168.644531 30.710938 168.773438 30.707031 168.90625 30.675781 L 171.625 29.960938 C 172.382812 29.761719 172.519531 28.746094 171.839844 28.351562 L 168.378906 26.355469 C 167.699219 25.960938 166.886719 26.589844 167.09375 27.34375 L 167.835938 30.058594 C 167.871094 30.175781 167.921875 30.277344 167.992188 30.367188 C 167.367188 31.042969 166.480469 31.460938 165.53125 31.3125 C 164.230469 31.109375 163.242188 29.988281 163.074219 28.710938 C 163.050781 28.53125 162.71875 28.570312 162.730469 28.75 C 162.824219 30.316406 164.066406 31.703125 165.652344 31.855469 C 166.425781 31.929688 167.195312 31.71875 167.824219 31.300781 C 167.632812 32.488281 168.164062 33.804688 169.117188 34.523438 C 170.421875 35.503906 172.378906 35.445312 173.585938 34.339844 C 173.914062 34.035156 173.449219 33.761719 173.152344 33.960938 Z M 177.90625 25.714844 C 178.347656 25.671875 178.773438 25.640625 179.171875 25.863281 C 178.660156 26.226562 178.289062 27.285156 178.289062 28.535156 C 178.289062 30.082031 178.859375 31.335938 179.5625 31.335938 C 180.261719 31.335938 180.832031 30.082031 180.832031 28.535156 C 180.832031 27.3125 180.480469 26.277344 179.984375 25.890625 C 179.449219 25.3125 178.507812 25.0625 177.832031 25.542969 C 177.734375 25.609375 177.792969 25.726562 177.90625 25.714844 Z M 164.304688 18.445312 C 164.914062 18.398438 165.386719 18.570312 165.796875 18.867188 C 165.316406 19.265625 164.972656 20.289062 164.972656 21.492188 C 164.972656 23.039062 165.542969 24.292969 166.246094 24.292969 C 166.945312 24.292969 167.515625 23.039062 167.515625 21.492188 C 167.515625 20.285156 167.171875 19.257812 166.6875 18.863281 C 166.101562 18.222656 165.019531 17.984375 164.230469 18.1875 C 164.042969 18.234375 164.136719 18.457031 164.304688 18.445312 Z M 177.226562 36.78125 C 177.144531 36.703125 176.933594 36.785156 177.027344 36.898438 C 179.105469 39.320312 180.488281 42.113281 181.339844 45.179688 C 181.386719 45.339844 181.691406 45.320312 181.664062 45.144531 C 181.148438 41.980469 179.507812 39.023438 177.226562 36.78125 Z M 182.820312 37.601562 C 181.429688 36.261719 179.703125 34.871094 177.851562 34.242188 C 177.796875 34.222656 177.691406 34.285156 177.769531 34.335938 C 178.574219 34.902344 179.4375 35.367188 180.234375 35.953125 C 181.019531 36.53125 181.753906 37.171875 182.4375 37.863281 C 183.867188 39.308594 185.070312 40.957031 186.078125 42.71875 C 186.160156 42.863281 186.46875 42.789062 186.390625 42.613281 C 185.539062 40.722656 184.316406 39.035156 182.820312 37.601562 Z M 192.210938 42.148438 C 190 36.589844 184.375 32.652344 178.46875 32.09375 C 178.289062 32.078125 178.210938 32.316406 178.414062 32.339844 C 184.320312 33.046875 189.355469 36.929688 191.894531 42.257812 C 191.96875 42.414062 192.285156 42.328125 192.210938 42.148438 Z M 158.789062 27.242188 C 156.269531 25.824219 153.402344 25.25 150.527344 25.527344 C 150.382812 25.539062 150.398438 25.726562 150.542969 25.710938 C 153.363281 25.464844 156.171875 26.0625 158.675781 27.375 C 158.757812 27.417969 158.886719 27.296875 158.789062 27.242188 Z M 150.070312 18.425781 C 149.910156 18.394531 149.773438 18.640625 149.96875 18.691406 C 153.855469 19.6875 157.296875 22.070312 159.417969 25.496094 C 159.519531 25.660156 159.882812 25.554688 159.773438 25.367188 C 157.6875 21.804688 154.144531 19.191406 150.070312 18.425781 Z M 161.980469 25.59375 C 162.003906 25.734375 161.734375 25.78125 161.691406 25.652344 C 160.769531 22.917969 159.457031 20.464844 157.394531 18.410156 C 155.378906 16.398438 152.894531 14.992188 150.171875 14.191406 C 149.917969 14.117188 150.136719 13.859375 150.332031 13.898438 C 155.851562 15.019531 161.050781 19.941406 161.980469 25.59375 " fill-opacity="1" fill-rule="nonzero"/><g clip-path="url(#007526daa9)"><g clip-path="url(#9c34379253)"><g clip-path="url(#0d2e35b4c9)"><g clip-path="url(#30a03388e1)"><g clip-path="url(#b52beb7315)"><path fill="#e7e1ca" d="M 216.9375 40.253906 C 216.992188 40.226562 217.042969 40.191406 217.089844 40.160156 C 217.824219 39.648438 218.195312 38.738281 218.257812 37.847656 C 218.320312 36.957031 218.109375 36.074219 217.886719 35.210938 C 217.617188 34.175781 217.324219 33.140625 216.796875 32.210938 C 216.269531 31.285156 215.488281 30.464844 214.488281 30.085938 C 213.195312 29.601562 211.710938 29.914062 210.515625 30.597656 C 209.65625 31.089844 208.917969 31.746094 208.21875 32.453125 C 204.925781 30.679688 201.285156 29.796875 197.589844 30.273438 C 193.894531 30.75 190.59375 32.53125 187.863281 35.082031 C 187.011719 34.578125 186.128906 34.128906 185.171875 33.875 C 183.839844 33.519531 182.324219 33.589844 181.199219 34.390625 C 180.328125 35.007812 179.78125 36 179.507812 37.03125 C 179.234375 38.0625 179.210938 39.140625 179.214844 40.207031 C 179.21875 41.101562 179.242188 42.007812 179.527344 42.855469 C 179.8125 43.699219 180.402344 44.484375 181.242188 44.792969 C 181.300781 44.8125 181.355469 44.832031 181.414062 44.84375 C 179.917969 48.710938 179.304688 52.832031 179.78125 56.523438 C 180.335938 60.828125 182.242188 64.046875 185.082031 66.25 C 189.242188 69.484375 195.402344 70.542969 202.25 69.660156 C 208.949219 68.792969 214.828125 66.257812 218.304688 62.199219 C 220.804688 59.277344 222.0625 55.570312 221.488281 51.132812 C 221.011719 47.441406 219.367188 43.613281 216.9375 40.253906 " fill-opacity="1" fill-rule="nonzero"/></g></g></g></g></g><g clip-path="url(#b984ad6e83)"><g clip-path="url(#f1ebd2402a)"><g clip-path="url(#1d80f02b87)"><path fill="#a1733a" d="M 179.78125 56.523438 C 179.304688 52.832031 179.917969 48.710938 181.414062 44.84375 C 181.355469 44.832031 181.300781 44.8125 181.242188 44.792969 C 180.402344 44.484375 179.8125 43.699219 179.527344 42.855469 C 179.242188 42.007812 179.21875 41.101562 179.214844 40.207031 C 179.210938 39.140625 179.234375 38.0625 179.507812 37.03125 C 179.78125 36 180.328125 35.007812 181.199219 34.390625 C 182.324219 33.589844 183.839844 33.519531 185.171875 33.875 C 186.128906 34.128906 187.011719 34.578125 187.863281 35.082031 C 190.59375 32.53125 193.894531 30.75 197.589844 30.273438 C 201.285156 29.796875 204.925781 30.679688 208.21875 32.453125 C 208.917969 31.746094 209.65625 31.089844 210.515625 30.597656 C 211.710938 29.914062 213.195312 29.601562 214.488281 30.085938 C 215.488281 30.464844 216.269531 31.285156 216.796875 32.210938 C 217.324219 33.140625 217.617188 34.175781 217.886719 35.210938 C 218.109375 36.074219 218.320312 36.957031 218.257812 37.847656 C 218.195312 38.738281 217.824219 39.648438 217.089844 40.160156 C 217.042969 40.191406 216.992188 40.226562 216.9375 40.253906 C 219.367188 43.613281 221.011719 47.441406 221.488281 51.132812 C 222.0625 55.570312 220.804688 59.277344 218.304688 62.199219 C 216.699219 62.910156 214.988281 63.414062 213.230469 63.671875 C 210.875 64.019531 207.90625 63.605469 207.117188 61.578125 C 206.453125 59.871094 207.75 58.074219 208.203125 56.292969 C 208.917969 53.472656 207.253906 50.363281 204.433594 49.078125 C 201.613281 47.792969 197.90625 48.378906 195.589844 50.390625 C 193.277344 52.402344 192.457031 55.671875 193.488281 58.382812 C 194.101562 59.992188 195.320312 61.582031 194.863281 63.25 C 194.394531 64.960938 192.347656 65.917969 190.445312 66.265625 C 188.675781 66.59375 186.839844 66.582031 185.082031 66.25 C 182.242188 64.046875 180.335938 60.828125 179.78125 56.523438 " fill-opacity="1" fill-rule="nonzero"/></g></g></g><g clip-path="url(#91f0249328)"><g clip-path="url(#7242fb6b75)"><g clip-path="url(#38642f6b07)"><g clip-path="url(#cd76bf8808)"><g clip-path="url(#bee9981a11)"><path fill="#e7e1ca" d="M 208.203125 56.292969 C 207.75 58.074219 206.453125 59.871094 207.117188 61.578125 C 207.90625 63.605469 210.875 64.019531 213.230469 63.671875 C 214.988281 63.414062 216.699219 62.910156 218.304688 62.199219 C 214.828125 66.257812 208.949219 68.792969 202.25 69.660156 C 195.402344 70.542969 189.242188 69.484375 185.082031 66.25 C 186.839844 66.582031 188.675781 66.59375 190.445312 66.265625 C 192.347656 65.917969 194.394531 64.960938 194.863281 63.25 C 195.320312 61.582031 194.101562 59.992188 193.488281 58.382812 C 192.457031 55.671875 193.277344 52.402344 195.589844 50.390625 C 197.90625 48.378906 201.613281 47.792969 204.433594 49.078125 C 207.253906 50.363281 208.917969 53.472656 208.203125 56.292969 " fill-opacity="1" fill-rule="nonzero"/></g></g></g></g></g><g clip-path="url(#61de48ec7a)"><g clip-path="url(#6149395b89)"><g clip-path="url(#8137b33eb5)"><path fill="#e7e1ca" d="M 186.277344 43.621094 C 186.386719 44.460938 187.558594 44.285156 189.007812 44.097656 C 190.457031 43.910156 191.636719 43.78125 191.527344 42.945312 C 191.421875 42.105469 190.054688 40.785156 188.605469 40.972656 C 187.152344 41.160156 186.167969 42.78125 186.277344 43.621094 Z M 211.921875 40.308594 C 212.03125 41.144531 210.851562 41.273438 209.402344 41.460938 C 207.953125 41.648438 206.78125 41.824219 206.671875 40.984375 C 206.5625 40.148438 207.546875 38.523438 209 38.335938 C 210.449219 38.148438 211.816406 39.46875 211.921875 40.308594 " fill-opacity="1" fill-rule="nonzero"/></g></g></g><g clip-path="url(#2530853479)"><g clip-path="url(#64bd3e53ea)"><g clip-path="url(#4e74644c25)"><path fill="#f49274" d="M 203.820312 59.035156 C 203.878906 59.042969 203.9375 59.046875 203.992188 59.054688 C 203.789062 59.402344 203.570312 59.707031 203.203125 59.925781 C 202.726562 60.210938 202.1875 60.367188 201.640625 60.441406 C 201.109375 60.511719 200.546875 60.511719 200.027344 60.363281 C 199.5625 60.230469 199.234375 59.953125 198.886719 59.648438 C 199.832031 59.210938 200.617188 58.246094 201.050781 57.21875 C 201.734375 58.128906 202.773438 58.878906 203.820312 59.035156 " fill-opacity="1" fill-rule="nonzero"/></g></g></g><g clip-path="url(#7a52adafac)"><g clip-path="url(#b5db649b4e)"><g clip-path="url(#9c516c27d9)"><path fill="#000000" d="M 202.828125 61.632812 C 202.230469 62.496094 201.105469 62.574219 200.441406 61.734375 C 200.316406 61.574219 199.972656 61.730469 200.09375 61.925781 C 200.839844 63.117188 202.652344 63.089844 203.277344 61.792969 C 203.421875 61.484375 202.976562 61.410156 202.828125 61.632812 Z M 203.992188 59.054688 C 203.9375 59.046875 203.878906 59.042969 203.820312 59.035156 C 202.773438 58.878906 201.734375 58.128906 201.050781 57.21875 C 200.617188 58.246094 199.832031 59.210938 198.886719 59.648438 C 199.234375 59.953125 199.5625 60.230469 200.027344 60.363281 C 200.546875 60.511719 201.109375 60.511719 201.640625 60.441406 C 202.1875 60.367188 202.726562 60.210938 203.203125 59.925781 C 203.570312 59.707031 203.789062 59.402344 203.992188 59.054688 Z M 206.804688 57.042969 C 206.484375 58.136719 205.59375 58.921875 204.507812 59.046875 C 204.4375 60.269531 202.894531 60.839844 201.867188 60.976562 C 200.664062 61.136719 199.242188 60.882812 198.566406 59.773438 C 197.367188 60.15625 196.132812 59.609375 195.480469 58.519531 C 195.375 58.339844 195.691406 58.199219 195.804688 58.347656 C 196.527344 59.320312 197.816406 59.746094 198.875 59.027344 C 199.757812 58.433594 200.167969 57.460938 200.625 56.53125 C 200.578125 56.4375 200.53125 56.339844 200.492188 56.246094 C 200.441406 56.226562 200.394531 56.199219 200.347656 56.167969 L 197.609375 54.410156 C 196.894531 53.949219 197.140625 52.839844 197.984375 52.730469 L 202.917969 52.09375 C 203.761719 51.984375 204.28125 52.996094 203.707031 53.625 L 201.507812 56.019531 C 201.464844 56.066406 201.417969 56.105469 201.371094 56.140625 C 201.355469 56.222656 201.339844 56.304688 201.320312 56.386719 C 202.035156 57.183594 202.695312 58.066406 203.75 58.410156 C 204.941406 58.804688 206.015625 58.097656 206.457031 56.984375 C 206.527344 56.8125 206.867188 56.828125 206.804688 57.042969 Z M 181.472656 44.902344 C 182.898438 44.503906 183.957031 42.914062 184.613281 41.679688 C 185.03125 40.894531 185.378906 40.070312 185.734375 39.253906 C 185.921875 38.820312 186.09375 38.339844 186.363281 37.945312 C 186.722656 37.429688 187.097656 37.445312 187.605469 37.691406 C 187.667969 37.722656 187.761719 37.679688 187.753906 37.605469 C 187.6875 36.976562 186.71875 37.15625 186.378906 37.410156 C 185.6875 37.921875 185.382812 39.03125 185.050781 39.785156 C 184.617188 40.773438 184.167969 41.761719 183.546875 42.644531 C 183.261719 43.046875 182.941406 43.421875 182.578125 43.757812 C 182.1875 44.117188 181.738281 44.367188 181.3125 44.675781 C 181.160156 44.785156 181.335938 44.941406 181.472656 44.902344 Z M 209.121094 34.914062 C 209.292969 34.753906 209.421875 34.582031 209.675781 34.558594 C 209.957031 34.53125 210.203125 34.691406 210.402344 34.867188 C 210.765625 35.179688 211.050781 35.605469 211.347656 35.980469 C 211.925781 36.714844 212.496094 37.460938 213.136719 38.136719 C 214.078125 39.128906 215.449219 40.3125 216.890625 40.328125 C 217.035156 40.328125 217.160156 40.125 216.992188 40.050781 C 216.535156 39.859375 216.054688 39.746094 215.609375 39.515625 C 215.1875 39.300781 214.792969 39.03125 214.421875 38.730469 C 213.542969 38.019531 212.828125 37.132812 212.125 36.25 C 211.789062 35.828125 211.457031 35.402344 211.101562 35 C 210.839844 34.703125 210.539062 34.390625 210.148438 34.273438 C 209.757812 34.164062 208.875 34.3125 208.96875 34.878906 C 208.980469 34.945312 209.078125 34.949219 209.121094 34.914062 Z M 196.527344 56.316406 C 195.015625 56.832031 193.578125 57.8125 192.28125 58.730469 C 191.019531 59.617188 189.832031 60.605469 188.726562 61.679688 C 186.445312 63.898438 184.410156 66.515625 183.027344 69.398438 C 182.964844 69.527344 183.195312 69.570312 183.253906 69.472656 C 184.875 66.757812 186.703125 64.242188 188.96875 62.03125 C 190.152344 60.878906 191.421875 59.808594 192.765625 58.847656 C 194 57.964844 195.359375 57.273438 196.601562 56.410156 C 196.675781 56.359375 196.589844 56.292969 196.527344 56.316406 Z M 195.761719 55.203125 C 195.949219 55.171875 195.933594 54.886719 195.726562 54.910156 C 192.523438 55.328125 189.410156 56.332031 186.542969 57.8125 C 183.738281 59.265625 181.019531 61.144531 178.917969 63.523438 C 178.714844 63.753906 179.054688 63.921875 179.238281 63.753906 C 181.507812 61.644531 183.898438 59.742188 186.648438 58.300781 C 189.507812 56.796875 192.585938 55.78125 195.761719 55.203125 Z M 185.722656 52.355469 C 189.148438 52.097656 192.542969 52.546875 195.835938 53.5 C 195.941406 53.53125 196.082031 53.359375 195.945312 53.3125 C 192.726562 52.113281 189.214844 51.71875 185.800781 51.9375 C 182.402344 52.15625 178.917969 52.996094 175.917969 54.648438 C 175.714844 54.757812 175.898438 54.957031 176.078125 54.878906 C 179.164062 53.546875 182.359375 52.613281 185.722656 52.355469 Z M 214.242188 58.425781 C 212.859375 57.640625 211.414062 56.964844 209.925781 56.414062 C 208.441406 55.867188 206.816406 55.292969 205.230469 55.1875 C 205.15625 55.183594 205.117188 55.273438 205.195312 55.304688 C 205.914062 55.574219 206.671875 55.738281 207.40625 55.96875 C 208.152344 56.203125 208.894531 56.457031 209.625 56.742188 C 211.121094 57.324219 212.574219 58.011719 213.972656 58.800781 C 216.730469 60.363281 219.144531 62.332031 221.414062 64.542969 C 221.492188 64.621094 221.710938 64.507812 221.625 64.40625 C 219.585938 61.988281 216.980469 59.980469 214.242188 58.425781 Z M 215.375 54.101562 C 212.210938 53.394531 208.925781 53.207031 205.707031 53.621094 C 205.5 53.648438 205.449219 53.941406 205.695312 53.921875 C 208.820312 53.679688 211.96875 53.871094 215.03125 54.558594 C 218.144531 55.257812 220.996094 56.515625 223.816406 57.988281 C 224.007812 58.085938 224.371094 57.84375 224.132812 57.683594 C 221.535156 55.910156 218.429688 54.785156 215.375 54.101562 Z M 224.75 48.328125 C 221.394531 47.472656 217.753906 47.574219 214.378906 48.257812 C 211.066406 48.925781 207.828125 50.195312 205.042969 52.136719 C 204.925781 52.21875 205.074219 52.355469 205.179688 52.292969 C 208.109375 50.535156 211.265625 49.234375 214.632812 48.621094 C 217.972656 48.007812 221.300781 48.121094 224.644531 48.609375 C 224.832031 48.636719 224.96875 48.386719 224.75 48.328125 Z M 185.167969 48.488281 C 184.957031 48.761719 185.34375 48.945312 185.550781 48.738281 C 186.75 47.558594 188.453125 46.867188 190.140625 47.183594 C 191.738281 47.488281 192.84375 48.492188 193.773438 49.769531 C 193.886719 49.921875 194.238281 49.792969 194.164062 49.59375 C 193.585938 47.984375 191.851562 46.84375 190.21875 46.582031 C 188.359375 46.28125 186.339844 46.980469 185.167969 48.488281 Z M 205.816406 48.121094 C 205.992188 46.382812 207.414062 44.828125 208.960938 44.152344 C 210.667969 43.40625 212.769531 43.550781 214.257812 44.71875 C 214.515625 44.921875 214.125 45.207031 213.902344 45.082031 C 212.433594 44.269531 210.621094 44.007812 209.0625 44.722656 C 207.605469 45.390625 206.777344 46.664062 206.234375 48.125 C 206.171875 48.289062 205.792969 48.355469 205.816406 48.121094 " fill-opacity="1" fill-rule="nonzero"/></g></g></g></svg>