<svg xmlns="http://www.w3.org/2000/svg" xmlns:xlink="http://www.w3.org/1999/xlink" width="500" zoomAndPan="magnify" viewBox="0 0 375 374.999991" height="500" preserveAspectRatio="xMidYMid meet" version="1.0"><defs><g/><clipPath id="a5b09f63b5"><path d="M 123.84375 22.785156 L 275.25 22.785156 L 275.25 209.140625 L 123.84375 209.140625 Z M 123.84375 22.785156 " clip-rule="nonzero"/></clipPath><clipPath id="846000a927"><path d="M 217 104 L 344 104 L 344 224 L 217 224 Z M 217 104 " clip-rule="nonzero"/></clipPath><clipPath id="46b3060749"><path d="M 199.347656 115.40625 L 345.664062 96.496094 L 360.761719 213.289062 L 214.445312 232.203125 Z M 199.347656 115.40625 " clip-rule="nonzero"/></clipPath><clipPath id="883289388b"><path d="M 199.347656 115.40625 L 345.664062 96.496094 L 360.761719 213.289062 L 214.445312 232.203125 Z M 199.347656 115.40625 " clip-rule="nonzero"/></clipPath><clipPath id="daa2f1ef0d"><path d="M 210.464844 113.972656 L 334.519531 97.933594 L 349.648438 214.964844 L 225.589844 231 Z M 210.464844 113.972656 " clip-rule="nonzero"/></clipPath><clipPath id="7556eac03b"><path d="M 210.464844 113.972656 L 334.519531 97.933594 L 349.617188 214.738281 L 225.5625 230.773438 Z M 210.464844 113.972656 " clip-rule="nonzero"/></clipPath><clipPath id="8cb310c7bf"><path d="M 217 104 L 344 104 L 344 214 L 217 214 Z M 217 104 " clip-rule="nonzero"/></clipPath><clipPath id="0640785cab"><path d="M 199.347656 115.40625 L 345.664062 96.496094 L 360.761719 213.289062 L 214.445312 232.203125 Z M 199.347656 115.40625 " clip-rule="nonzero"/></clipPath><clipPath id="2797e74858"><path d="M 199.347656 115.40625 L 345.664062 96.496094 L 360.761719 213.289062 L 214.445312 232.203125 Z M 199.347656 115.40625 " clip-rule="nonzero"/></clipPath><clipPath id="07e8919eea"><path d="M 235 159 L 335 159 L 335 224 L 235 224 Z M 235 159 " clip-rule="nonzero"/></clipPath><clipPath id="db96596108"><path d="M 199.347656 115.40625 L 345.664062 96.496094 L 360.761719 213.289062 L 214.445312 232.203125 Z M 199.347656 115.40625 " clip-rule="nonzero"/></clipPath><clipPath id="1e2f795355"><path d="M 199.347656 115.40625 L 345.664062 96.496094 L 360.761719 213.289062 L 214.445312 232.203125 Z M 199.347656 115.40625 " clip-rule="nonzero"/></clipPath><clipPath id="4164cd5684"><path d="M 229.070312 166.300781 L 328.082031 153.5 L 336.253906 216.695312 L 237.238281 229.496094 Z M 229.070312 166.300781 " clip-rule="nonzero"/></clipPath><clipPath id="cf3a345192"><path d="M 229.070312 166.300781 L 328.082031 153.5 L 336.222656 216.46875 L 237.210938 229.265625 Z M 229.070312 166.300781 " clip-rule="nonzero"/></clipPath><clipPath id="46da1cfeed"><path d="M 238 129 L 316 129 L 316 148 L 238 148 Z M 238 129 " clip-rule="nonzero"/></clipPath><clipPath id="6fd6941d81"><path d="M 199.347656 115.40625 L 345.664062 96.496094 L 360.761719 213.289062 L 214.445312 232.203125 Z M 199.347656 115.40625 " clip-rule="nonzero"/></clipPath><clipPath id="3ac3da5fa7"><path d="M 199.347656 115.40625 L 345.664062 96.496094 L 360.761719 213.289062 L 214.445312 232.203125 Z M 199.347656 115.40625 " clip-rule="nonzero"/></clipPath><clipPath id="daad1fafb0"><path d="M 276 185 L 292 185 L 292 196 L 276 196 Z M 276 185 " clip-rule="nonzero"/></clipPath><clipPath id="513a1687b5"><path d="M 199.347656 115.40625 L 345.664062 96.496094 L 360.761719 213.289062 L 214.445312 232.203125 Z M 199.347656 115.40625 " clip-rule="nonzero"/></clipPath><clipPath id="f4911f0bc5"><path d="M 199.347656 115.40625 L 345.664062 96.496094 L 360.761719 213.289062 L 214.445312 232.203125 Z M 199.347656 115.40625 " clip-rule="nonzero"/></clipPath><clipPath id="3d3211b87b"><path d="M 207 117 L 354 117 L 354 223 L 207 223 Z M 207 117 " clip-rule="nonzero"/></clipPath><clipPath id="b996a1a4df"><path d="M 199.347656 115.40625 L 345.664062 96.496094 L 360.761719 213.289062 L 214.445312 232.203125 Z M 199.347656 115.40625 " clip-rule="nonzero"/></clipPath><clipPath id="0a45fc05ac"><path d="M 199.347656 115.40625 L 345.664062 96.496094 L 360.761719 213.289062 L 214.445312 232.203125 Z M 199.347656 115.40625 " clip-rule="nonzero"/></clipPath></defs><g clip-path="url(#a5b09f63b5)"><path fill="#fac264" d="M 274.46875 93.894531 C 274.03125 93.351562 273.441406 92.972656 272.851562 92.613281 C 264.199219 87.277344 254.066406 84.445312 243.914062 84.347656 C 240.875 84.316406 238.015625 82.863281 236.3125 80.351562 C 232.828125 75.207031 228.386719 70.480469 223.054688 66.460938 C 219.46875 63.757812 215.683594 61.527344 211.789062 59.773438 C 208.761719 58.414062 206.691406 55.558594 206.351562 52.257812 C 205.417969 43.179688 202.4375 34.308594 197.621094 26.554688 C 196.570312 24.875 195.214844 23.09375 193.246094 22.820312 C 190.917969 22.496094 188.933594 24.410156 187.441406 26.222656 C 180.636719 34.460938 175.367188 43.957031 171.933594 54.074219 C 171.050781 56.683594 169.226562 58.875 166.785156 60.15625 C 161.3125 63.035156 156.453125 67.0625 152.574219 72.210938 C 143.785156 83.882812 138.742188 97.324219 141.945312 110.816406 C 142.695312 113.980469 141.992188 117.308594 140.175781 120.003906 C 139.644531 120.792969 139.128906 121.585938 138.617188 122.394531 C 136.214844 126.210938 134.097656 130.203125 132.273438 134.328125 C 126.59375 147.144531 123.714844 161.246094 123.847656 175.28125 C 123.886719 179.222656 125.53125 182.976562 128.363281 185.714844 C 142.503906 199.402344 161.617188 207.960938 181.28125 209.027344 C 196.769531 209.867188 212.414062 206.046875 225.949219 198.488281 C 230.410156 196 233.242188 191.355469 233.441406 186.246094 L 233.445312 186.164062 C 233.734375 178.660156 232.976562 171.105469 231.179688 163.8125 C 230.449219 160.855469 229.550781 157.941406 228.480469 155.085938 C 226.894531 150.871094 227.878906 146.121094 231 142.875 C 233.0625 140.726562 235.042969 138.363281 236.964844 135.816406 C 239.796875 132.054688 241.910156 127.957031 243.332031 123.660156 C 244.449219 120.296875 247.171875 117.710938 250.585938 116.769531 C 259.867188 114.207031 268.261719 108.859375 273.542969 100.875 C 274.933594 98.773438 276.0625 95.847656 274.46875 93.894531 " fill-opacity="1" fill-rule="nonzero"/><path fill="#fac264" d="M 123.847656 175.28125 C 123.714844 161.246094 126.59375 147.144531 132.273438 134.328125 C 141.09375 149.753906 155.039062 162.210938 171.390625 169.167969 C 172.730469 169.742188 174.324219 170.269531 175.589844 169.546875 C 177.003906 168.730469 177.242188 166.671875 176.546875 165.199219 C 175.851562 163.71875 174.488281 162.691406 173.195312 161.695312 C 159.285156 150.984375 147.480469 137.546875 138.617188 122.394531 C 139.128906 121.585938 139.644531 120.792969 140.175781 120.003906 C 141.992188 117.308594 142.695312 113.980469 141.945312 110.816406 C 138.742188 97.324219 143.785156 83.882812 152.574219 72.210938 C 156.453125 67.0625 161.3125 63.035156 166.785156 60.15625 C 169.226562 58.875 171.050781 56.683594 171.933594 54.074219 C 175.367188 43.957031 180.636719 34.460938 187.441406 26.222656 C 188.933594 24.410156 190.917969 22.496094 193.246094 22.820312 C 195.214844 23.09375 196.570312 24.875 197.621094 26.554688 C 202.4375 34.308594 205.417969 43.179688 206.351562 52.257812 C 206.691406 55.558594 208.761719 58.414062 211.789062 59.773438 C 215.683594 61.527344 219.46875 63.757812 223.054688 66.460938 C 228.386719 70.480469 232.828125 75.207031 236.3125 80.351562 C 238.015625 82.863281 240.875 84.316406 243.914062 84.347656 C 254.066406 84.445312 264.199219 87.277344 272.851562 92.613281 C 273.441406 92.972656 274.03125 93.351562 274.46875 93.894531 C 276.0625 95.847656 274.933594 98.773438 273.542969 100.875 C 268.261719 108.859375 259.867188 114.207031 250.585938 116.769531 C 247.171875 117.710938 244.449219 120.296875 243.332031 123.660156 C 241.910156 127.957031 239.796875 132.054688 236.964844 135.816406 C 235.042969 138.363281 233.0625 140.726562 231 142.875 C 227.878906 146.121094 226.894531 150.871094 228.480469 155.085938 C 229.550781 157.941406 230.449219 160.855469 231.179688 163.8125 C 229.332031 169.417969 224.351562 174.1875 218.957031 177.054688 C 211.59375 180.964844 203.183594 182.589844 195.851562 186.554688 C 194.039062 187.535156 192.0625 189.148438 192.394531 191.179688 C 192.703125 193.039062 194.765625 193.996094 196.578125 194.5 C 206.585938 197.296875 217.679688 195.972656 226.753906 190.898438 C 229.148438 189.566406 231.386719 187.96875 233.445312 186.164062 L 233.441406 186.246094 C 233.242188 191.355469 230.410156 196 225.949219 198.488281 C 212.414062 206.046875 196.769531 209.867188 181.28125 209.027344 C 161.617188 207.960938 142.503906 199.402344 128.363281 185.714844 C 125.53125 182.976562 123.886719 179.222656 123.847656 175.28125 Z M 179.085938 55.804688 C 184.597656 54.683594 190.394531 54.503906 196.203125 55.285156 C 195.832031 51.039062 194.828125 46.839844 193.234375 42.882812 C 192.355469 40.683594 190.882812 38.257812 188.527344 38.070312 C 185.953125 37.855469 184.070312 40.40625 182.960938 42.734375 C 180.992188 46.851562 179.683594 51.28125 179.085938 55.804688 Z M 245.476562 106.539062 C 249.914062 106.671875 254.378906 105.714844 258.371094 103.757812 C 261.019531 102.457031 263.773438 99.964844 263.085938 97.09375 C 262.515625 94.6875 259.820312 93.496094 257.410156 92.945312 C 252.59375 91.847656 247.519531 91.890625 242.714844 93.050781 C 244.261719 97.46875 245.1875 102.011719 245.476562 106.539062 " fill-opacity="1" fill-rule="nonzero"/></g><path fill="#f37052" d="M 138.617188 122.394531 C 136.214844 126.210938 134.097656 130.203125 132.273438 134.328125 C 141.09375 149.753906 155.039062 162.210938 171.390625 169.167969 C 172.730469 169.742188 174.324219 170.269531 175.589844 169.546875 C 177.003906 168.730469 177.242188 166.671875 176.546875 165.199219 C 175.851562 163.71875 174.488281 162.691406 173.195312 161.695312 C 159.285156 150.984375 147.480469 137.546875 138.617188 122.394531 Z M 182.960938 42.734375 C 180.992188 46.851562 179.683594 51.28125 179.085938 55.804688 C 184.597656 54.683594 190.394531 54.503906 196.203125 55.285156 C 195.832031 51.039062 194.828125 46.839844 193.234375 42.882812 C 192.355469 40.683594 190.882812 38.257812 188.527344 38.070312 C 185.953125 37.855469 184.070312 40.40625 182.960938 42.734375 Z M 218.957031 177.054688 C 211.59375 180.964844 203.183594 182.589844 195.851562 186.554688 C 194.039062 187.535156 192.0625 189.148438 192.394531 191.179688 C 192.703125 193.039062 194.765625 193.996094 196.578125 194.5 C 206.585938 197.296875 217.679688 195.972656 226.753906 190.898438 C 229.148438 189.566406 231.386719 187.96875 233.445312 186.164062 C 233.734375 178.660156 232.976562 171.105469 231.179688 163.8125 C 229.332031 169.417969 224.351562 174.1875 218.957031 177.054688 Z M 242.714844 93.050781 C 247.519531 91.890625 252.59375 91.847656 257.410156 92.945312 C 259.820312 93.496094 262.515625 94.6875 263.085938 97.09375 C 263.773438 99.964844 261.019531 102.457031 258.371094 103.757812 C 254.378906 105.714844 249.914062 106.671875 245.476562 106.539062 C 245.1875 102.011719 244.261719 97.46875 242.714844 93.050781 " fill-opacity="1" fill-rule="nonzero"/><path fill="#f1dbc6" d="M 207.339844 122.101562 C 202.945312 131.695312 189.261719 134.835938 176.773438 129.113281 C 164.285156 123.390625 157.722656 110.972656 162.117188 101.378906 C 166.511719 91.78125 180.199219 88.644531 192.6875 94.367188 C 205.175781 100.085938 211.734375 112.503906 207.339844 122.101562 " fill-opacity="1" fill-rule="nonzero"/><path fill="#a1733a" d="M 227.433594 84.660156 C 224.285156 82.835938 220.632812 83.261719 219.28125 85.605469 C 217.925781 87.949219 221.648438 88.496094 224.800781 90.316406 C 227.953125 92.136719 229.339844 94.539062 230.691406 92.195312 C 232.046875 89.855469 230.585938 86.480469 227.433594 84.660156 Z M 191.527344 68.796875 C 190.175781 71.140625 188.789062 68.738281 185.636719 66.917969 C 182.484375 65.097656 178.765625 64.546875 180.113281 62.203125 C 181.46875 59.863281 185.121094 59.4375 188.273438 61.257812 C 191.421875 63.078125 192.882812 66.453125 191.527344 68.796875 " fill-opacity="1" fill-rule="nonzero"/><path fill="#000000" d="M 199.929688 116.90625 C 196.671875 119.128906 192.089844 119.332031 188.949219 116.765625 C 186.125 114.464844 185.386719 110.960938 185.828125 107.5625 C 185.945312 107.441406 186.0625 107.3125 186.175781 107.183594 C 186.542969 107.253906 186.929688 107.246094 187.3125 107.144531 L 195.390625 105.027344 C 197.640625 104.433594 198.046875 101.414062 196.03125 100.253906 L 185.75 94.316406 C 183.738281 93.152344 181.324219 95.011719 181.941406 97.257812 L 184.144531 105.3125 C 184.238281 105.660156 184.398438 105.972656 184.605469 106.234375 C 182.75 108.246094 180.113281 109.488281 177.289062 109.042969 C 173.4375 108.4375 170.5 105.109375 169.996094 101.316406 C 169.925781 100.777344 168.945312 100.894531 168.976562 101.433594 C 169.25 106.085938 172.945312 110.199219 177.652344 110.648438 C 179.957031 110.871094 182.238281 110.242188 184.105469 109.007812 C 183.539062 112.53125 185.117188 116.445312 187.945312 118.574219 C 191.816406 121.488281 197.628906 121.3125 201.210938 118.027344 C 202.191406 117.128906 200.804688 116.3125 199.929688 116.90625 Z M 214.042969 92.421875 C 215.351562 92.292969 216.617188 92.195312 217.804688 92.863281 C 216.285156 93.9375 215.183594 97.078125 215.183594 100.789062 C 215.183594 105.386719 216.871094 109.113281 218.957031 109.113281 C 221.046875 109.113281 222.734375 105.386719 222.734375 100.789062 C 222.734375 97.164062 221.6875 94.085938 220.21875 92.941406 C 218.625 91.21875 215.835938 90.480469 213.820312 91.902344 C 213.535156 92.105469 213.710938 92.453125 214.042969 92.421875 Z M 173.652344 70.828125 C 175.460938 70.691406 176.867188 71.203125 178.089844 72.078125 C 176.65625 73.261719 175.636719 76.304688 175.636719 79.875 C 175.636719 84.472656 177.328125 88.199219 179.414062 88.199219 C 181.5 88.199219 183.191406 84.472656 183.191406 79.875 C 183.191406 76.292969 182.164062 73.242188 180.726562 72.066406 C 178.992188 70.171875 175.78125 69.464844 173.433594 70.066406 C 172.871094 70.207031 173.152344 70.863281 173.652344 70.828125 Z M 212.03125 125.285156 C 211.78125 125.042969 211.152344 125.292969 211.4375 125.625 C 217.605469 132.820312 221.71875 141.113281 224.246094 150.222656 C 224.378906 150.695312 225.289062 150.636719 225.203125 150.117188 C 223.667969 140.722656 218.796875 131.933594 212.03125 125.285156 Z M 228.644531 127.710938 C 224.507812 123.742188 219.382812 119.605469 213.882812 117.734375 C 213.714844 117.675781 213.410156 117.867188 213.632812 118.023438 C 216.023438 119.703125 218.59375 121.085938 220.957031 122.824219 C 223.285156 124.535156 225.472656 126.4375 227.503906 128.492188 C 231.75 132.78125 235.316406 137.683594 238.308594 142.917969 C 238.550781 143.34375 239.46875 143.117188 239.238281 142.597656 C 236.71875 136.988281 233.078125 131.96875 228.644531 127.710938 Z M 256.527344 141.222656 C 249.960938 124.71875 233.25 113.019531 215.71875 111.363281 C 215.183594 111.3125 214.949219 112.023438 215.550781 112.09375 C 233.089844 114.195312 248.050781 125.726562 255.585938 141.546875 C 255.804688 142.011719 256.738281 141.75 256.527344 141.222656 Z M 157.269531 96.949219 C 149.792969 92.746094 141.273438 91.03125 132.742188 91.859375 C 132.316406 91.902344 132.355469 92.445312 132.785156 92.40625 C 141.15625 91.675781 149.5 93.449219 156.933594 97.351562 C 157.175781 97.480469 157.566406 97.117188 157.269531 96.949219 Z M 131.386719 70.769531 C 130.902344 70.679688 130.5 71.410156 131.078125 71.558594 C 142.617188 74.519531 152.84375 81.589844 159.144531 91.769531 C 159.445312 92.257812 160.523438 91.9375 160.203125 91.386719 C 154 80.808594 143.484375 73.046875 131.386719 70.769531 Z M 166.753906 92.054688 C 166.820312 92.476562 166.015625 92.617188 165.890625 92.238281 C 163.152344 84.117188 159.253906 76.820312 153.132812 70.722656 C 147.144531 64.75 139.769531 60.578125 131.679688 58.191406 C 130.933594 57.972656 131.574219 57.207031 132.15625 57.324219 C 148.546875 60.660156 163.988281 75.277344 166.753906 92.054688 " fill-opacity="1" fill-rule="nonzero"/><g clip-path="url(#846000a927)"><g clip-path="url(#46b3060749)"><g clip-path="url(#883289388b)"><g clip-path="url(#daa2f1ef0d)"><g clip-path="url(#7556eac03b)"><path fill="#e7e1ca" d="M 329.957031 135.589844 C 330.113281 135.507812 330.261719 135.410156 330.40625 135.3125 C 332.582031 133.792969 333.691406 131.089844 333.875 128.445312 C 334.054688 125.804688 333.433594 123.179688 332.769531 120.613281 C 331.972656 117.546875 331.097656 114.464844 329.535156 111.710938 C 327.96875 108.957031 325.644531 106.519531 322.675781 105.398438 C 318.84375 103.957031 314.4375 104.890625 310.878906 106.921875 C 308.328125 108.375 306.136719 110.332031 304.058594 112.421875 C 294.289062 107.160156 283.472656 104.535156 272.496094 105.953125 C 261.523438 107.371094 251.726562 112.660156 243.617188 120.234375 C 241.082031 118.742188 238.457031 117.40625 235.625 116.652344 C 231.664062 115.589844 227.164062 115.804688 223.824219 118.179688 C 221.242188 120.015625 219.609375 122.960938 218.796875 126.023438 C 217.988281 129.085938 217.921875 132.289062 217.929688 135.457031 C 217.941406 138.109375 218.007812 140.804688 218.859375 143.3125 C 219.707031 145.824219 221.464844 148.15625 223.957031 149.074219 C 224.121094 149.132812 224.289062 149.1875 224.460938 149.226562 C 220.023438 160.710938 218.195312 172.945312 219.613281 183.914062 C 221.261719 196.691406 226.925781 206.246094 235.355469 212.796875 C 247.707031 222.402344 266.003906 225.542969 286.335938 222.917969 C 306.230469 220.34375 323.6875 212.8125 334.007812 200.761719 C 341.433594 192.089844 345.167969 181.082031 343.464844 167.902344 C 342.046875 156.9375 337.167969 145.566406 329.957031 135.589844 " fill-opacity="1" fill-rule="nonzero"/></g></g></g></g></g><g clip-path="url(#8cb310c7bf)"><g clip-path="url(#0640785cab)"><g clip-path="url(#2797e74858)"><path fill="#a1733a" d="M 219.613281 183.914062 C 218.195312 172.945312 220.023438 160.710938 224.460938 149.226562 C 224.289062 149.1875 224.121094 149.132812 223.957031 149.074219 C 221.464844 148.15625 219.707031 145.824219 218.859375 143.3125 C 218.007812 140.804688 217.941406 138.109375 217.929688 135.457031 C 217.921875 132.289062 217.988281 129.085938 218.796875 126.023438 C 219.609375 122.960938 221.242188 120.015625 223.824219 118.179688 C 227.164062 115.804688 231.664062 115.589844 235.625 116.652344 C 238.457031 117.40625 241.082031 118.742188 243.617188 120.234375 C 251.726562 112.660156 261.523438 107.371094 272.496094 105.953125 C 283.472656 104.535156 294.289062 107.160156 304.058594 112.421875 C 306.136719 110.332031 308.328125 108.375 310.878906 106.921875 C 314.4375 104.890625 318.84375 103.957031 322.675781 105.402344 C 325.644531 106.519531 327.96875 108.957031 329.535156 111.710938 C 331.097656 114.464844 331.972656 117.546875 332.769531 120.613281 C 333.433594 123.179688 334.054688 125.804688 333.875 128.445312 C 333.691406 131.089844 332.582031 133.792969 330.40625 135.3125 C 330.261719 135.410156 330.113281 135.507812 329.957031 135.589844 C 337.167969 145.566406 342.046875 156.9375 343.464844 167.902344 C 345.167969 181.082031 341.433594 192.089844 334.007812 200.761719 C 329.246094 202.878906 324.167969 204.375 318.945312 205.140625 C 311.953125 206.167969 303.128906 204.941406 300.792969 198.921875 C 298.820312 193.847656 302.664062 188.511719 304.011719 183.21875 C 306.140625 174.847656 301.199219 165.613281 292.824219 161.796875 C 284.449219 157.984375 273.433594 159.722656 266.558594 165.695312 C 259.6875 171.667969 257.253906 181.375 260.320312 189.425781 C 262.140625 194.207031 265.757812 198.925781 264.402344 203.882812 C 263.011719 208.957031 256.929688 211.800781 251.285156 212.84375 C 246.023438 213.816406 240.578125 213.773438 235.355469 212.796875 C 226.925781 206.246094 221.261719 196.691406 219.613281 183.914062 " fill-opacity="1" fill-rule="nonzero"/></g></g></g><g clip-path="url(#07e8919eea)"><g clip-path="url(#db96596108)"><g clip-path="url(#1e2f795355)"><g clip-path="url(#4164cd5684)"><g clip-path="url(#cf3a345192)"><path fill="#e7e1ca" d="M 304.011719 183.21875 C 302.664062 188.511719 298.820312 193.847656 300.792969 198.921875 C 303.128906 204.941406 311.953125 206.167969 318.945312 205.140625 C 324.167969 204.375 329.246094 202.878906 334.007812 200.761719 C 323.6875 212.8125 306.230469 220.34375 286.335938 222.917969 C 266.003906 225.542969 247.707031 222.402344 235.355469 212.796875 C 240.578125 213.773438 246.023438 213.816406 251.285156 212.84375 C 256.929688 211.800781 263.011719 208.957031 264.402344 203.882812 C 265.757812 198.925781 262.140625 194.207031 260.320312 189.425781 C 257.253906 181.375 259.6875 171.667969 266.558594 165.695312 C 273.433594 159.722656 284.449219 157.984375 292.824219 161.796875 C 301.199219 165.613281 306.140625 174.847656 304.011719 183.21875 " fill-opacity="1" fill-rule="nonzero"/></g></g></g></g></g><g clip-path="url(#46da1cfeed)"><g clip-path="url(#6fd6941d81)"><g clip-path="url(#3ac3da5fa7)"><path fill="#e7e1ca" d="M 238.902344 145.59375 C 239.226562 148.085938 242.707031 147.566406 247.015625 147.011719 C 251.320312 146.453125 254.820312 146.070312 254.5 143.578125 C 254.175781 141.089844 250.121094 137.167969 245.8125 137.726562 C 241.507812 138.28125 238.582031 143.105469 238.902344 145.59375 Z M 315.0625 135.75 C 315.382812 138.242188 311.882812 138.625 307.578125 139.183594 C 303.269531 139.738281 299.789062 140.257812 299.46875 137.765625 C 299.144531 135.277344 302.070312 130.453125 306.378906 129.898438 C 310.683594 129.339844 314.738281 133.257812 315.0625 135.75 " fill-opacity="1" fill-rule="nonzero"/></g></g></g><g clip-path="url(#daad1fafb0)"><g clip-path="url(#513a1687b5)"><g clip-path="url(#f4911f0bc5)"><path fill="#f49274" d="M 290.996094 191.363281 C 291.171875 191.386719 291.34375 191.40625 291.515625 191.421875 C 290.910156 192.453125 290.261719 193.359375 289.171875 194.011719 C 287.757812 194.855469 286.152344 195.320312 284.53125 195.542969 C 282.953125 195.753906 281.273438 195.75 279.730469 195.3125 C 278.355469 194.921875 277.375 194.097656 276.347656 193.1875 C 279.160156 191.890625 281.492188 189.027344 282.78125 185.96875 C 284.808594 188.679688 287.886719 190.90625 290.996094 191.363281 " fill-opacity="1" fill-rule="nonzero"/></g></g></g><g clip-path="url(#3d3211b87b)"><g clip-path="url(#b996a1a4df)"><g clip-path="url(#0a45fc05ac)"><path fill="#000000" d="M 288.050781 199.078125 C 286.28125 201.648438 282.941406 201.875 280.96875 199.378906 C 280.597656 198.90625 279.578125 199.371094 279.9375 199.945312 C 282.148438 203.488281 287.527344 203.410156 289.386719 199.550781 C 289.824219 198.640625 288.5 198.421875 288.050781 199.078125 Z M 291.515625 191.421875 C 291.34375 191.40625 291.171875 191.386719 290.996094 191.363281 C 287.886719 190.90625 284.808594 188.679688 282.78125 185.96875 C 281.492188 189.027344 279.160156 191.890625 276.347656 193.1875 C 277.375 194.097656 278.355469 194.921875 279.730469 195.3125 C 281.273438 195.75 282.953125 195.753906 284.53125 195.542969 C 286.152344 195.320312 287.757812 194.855469 289.171875 194.011719 C 290.261719 193.359375 290.910156 192.453125 291.515625 191.421875 Z M 299.863281 185.445312 C 298.910156 188.695312 296.265625 191.035156 293.039062 191.394531 C 292.835938 195.039062 288.246094 196.722656 285.203125 197.128906 C 281.628906 197.605469 277.402344 196.855469 275.402344 193.558594 C 271.839844 194.695312 268.171875 193.070312 266.238281 189.832031 C 265.917969 189.300781 266.859375 188.878906 267.191406 189.320312 C 269.339844 192.214844 273.167969 193.476562 276.316406 191.347656 C 278.941406 189.574219 280.15625 186.6875 281.511719 183.933594 C 281.367188 183.652344 281.234375 183.367188 281.117188 183.085938 C 280.96875 183.023438 280.824219 182.945312 280.683594 182.855469 L 272.558594 177.632812 C 270.429688 176.265625 271.160156 172.972656 273.667969 172.648438 L 288.320312 170.753906 C 290.824219 170.429688 292.371094 173.429688 290.660156 175.292969 L 284.128906 182.410156 C 284.007812 182.546875 283.867188 182.664062 283.726562 182.769531 C 283.6875 183.011719 283.636719 183.261719 283.578125 183.507812 C 285.703125 185.867188 287.65625 188.484375 290.789062 189.511719 C 294.324219 190.675781 297.519531 188.585938 298.835938 185.273438 C 299.035156 184.765625 300.046875 184.8125 299.863281 185.445312 Z M 224.632812 149.402344 C 228.871094 148.21875 232.019531 143.496094 233.964844 139.832031 C 235.207031 137.496094 236.230469 135.050781 237.285156 132.628906 C 237.851562 131.332031 238.351562 129.910156 239.160156 128.742188 C 240.222656 127.210938 241.335938 127.257812 242.851562 127.984375 C 243.035156 128.070312 243.308594 127.953125 243.285156 127.730469 C 243.089844 125.859375 240.214844 126.398438 239.207031 127.148438 C 237.15625 128.671875 236.246094 131.964844 235.257812 134.203125 C 233.96875 137.132812 232.644531 140.070312 230.792969 142.691406 C 229.949219 143.886719 228.996094 145.007812 227.917969 146 C 226.761719 147.0625 225.421875 147.804688 224.164062 148.722656 C 223.710938 149.046875 224.226562 149.515625 224.632812 149.402344 Z M 306.738281 119.734375 C 307.25 119.261719 307.628906 118.746094 308.390625 118.675781 C 309.222656 118.597656 309.953125 119.074219 310.546875 119.589844 C 311.625 120.527344 312.476562 121.789062 313.355469 122.90625 C 315.070312 125.085938 316.757812 127.296875 318.667969 129.308594 C 321.460938 132.253906 325.535156 135.769531 329.820312 135.8125 C 330.242188 135.816406 330.609375 135.203125 330.117188 134.992188 C 328.757812 134.417969 327.335938 134.085938 326.011719 133.40625 C 324.753906 132.757812 323.582031 131.960938 322.480469 131.070312 C 319.867188 128.953125 317.746094 126.320312 315.664062 123.695312 C 314.667969 122.449219 313.679688 121.191406 312.625 119.992188 C 311.847656 119.105469 310.953125 118.175781 309.785156 117.839844 C 308.636719 117.503906 306.015625 117.949219 306.289062 119.628906 C 306.320312 119.824219 306.621094 119.84375 306.738281 119.734375 Z M 269.339844 183.289062 C 264.847656 184.828125 260.585938 187.738281 256.730469 190.460938 C 252.992188 193.097656 249.460938 196.027344 246.179688 199.21875 C 239.398438 205.804688 233.359375 213.578125 229.246094 222.140625 C 229.0625 222.523438 229.753906 222.65625 229.929688 222.363281 C 234.734375 214.304688 240.171875 206.828125 246.898438 200.265625 C 250.414062 196.835938 254.183594 193.667969 258.171875 190.8125 C 261.84375 188.183594 265.871094 186.136719 269.566406 183.570312 C 269.785156 183.417969 269.523438 183.230469 269.339844 183.289062 Z M 267.0625 179.992188 C 267.628906 179.890625 267.574219 179.042969 266.960938 179.121094 C 257.457031 180.355469 248.207031 183.339844 239.695312 187.742188 C 231.367188 192.046875 223.292969 197.632812 217.046875 204.699219 C 216.453125 205.375 217.460938 205.882812 218.003906 205.378906 C 224.742188 199.121094 231.84375 193.464844 240.007812 189.179688 C 248.503906 184.722656 257.640625 181.699219 267.0625 179.992188 Z M 237.253906 171.535156 C 247.425781 170.761719 257.507812 172.101562 267.289062 174.925781 C 267.609375 175.019531 268.015625 174.515625 267.617188 174.367188 C 258.054688 170.816406 247.628906 169.644531 237.488281 170.292969 C 227.394531 170.941406 217.042969 173.429688 208.140625 178.335938 C 207.539062 178.667969 208.082031 179.257812 208.617188 179.027344 C 217.785156 175.070312 227.265625 172.296875 237.253906 171.535156 Z M 321.949219 189.558594 C 317.84375 187.226562 313.554688 185.21875 309.128906 183.585938 C 304.722656 181.960938 299.902344 180.257812 295.1875 179.941406 C 294.96875 179.929688 294.855469 180.199219 295.085938 180.289062 C 297.21875 181.089844 299.472656 181.570312 301.644531 182.257812 C 303.863281 182.960938 306.070312 183.710938 308.238281 184.554688 C 312.675781 186.28125 316.996094 188.324219 321.144531 190.675781 C 329.335938 195.316406 336.511719 201.164062 343.246094 207.71875 C 343.484375 207.953125 344.132812 207.625 343.875 207.320312 C 337.816406 200.132812 330.078125 194.179688 321.949219 189.558594 Z M 325.316406 176.71875 C 315.914062 174.617188 306.164062 174.058594 296.605469 175.289062 C 295.984375 175.371094 295.84375 176.242188 296.566406 176.183594 C 305.847656 175.460938 315.195312 176.035156 324.289062 178.074219 C 333.535156 180.144531 342.011719 183.882812 350.382812 188.257812 C 350.949219 188.554688 352.027344 187.832031 351.324219 187.355469 C 343.601562 182.085938 334.382812 178.742188 325.316406 176.71875 Z M 353.148438 159.574219 C 343.1875 157.023438 332.378906 157.332031 322.359375 159.355469 C 312.519531 161.34375 302.898438 165.117188 294.632812 170.875 C 294.28125 171.121094 294.722656 171.527344 295.035156 171.339844 C 303.738281 166.121094 313.113281 162.265625 323.113281 160.4375 C 333.023438 158.625 342.910156 158.953125 352.84375 160.402344 C 353.394531 160.480469 353.804688 159.742188 353.148438 159.574219 Z M 235.613281 160.042969 C 234.980469 160.863281 236.128906 161.402344 236.746094 160.792969 C 240.308594 157.285156 245.363281 155.226562 250.375 156.175781 C 255.117188 157.070312 258.410156 160.058594 261.167969 163.847656 C 261.503906 164.308594 262.542969 163.921875 262.328125 163.324219 C 260.601562 158.542969 255.453125 155.15625 250.601562 154.378906 C 245.082031 153.496094 239.085938 155.570312 235.613281 160.042969 Z M 296.925781 158.953125 C 297.445312 153.792969 301.671875 149.175781 306.261719 147.167969 C 311.332031 144.953125 317.574219 145.390625 321.992188 148.851562 C 322.765625 149.457031 321.605469 150.304688 320.933594 149.933594 C 316.574219 147.519531 311.199219 146.734375 306.566406 148.863281 C 302.234375 150.851562 299.777344 154.628906 298.167969 158.96875 C 297.988281 159.449219 296.855469 159.65625 296.925781 158.953125 " fill-opacity="1" fill-rule="nonzero"/></g></g></g><g fill="#5f3f75" fill-opacity="1"><g transform="translate(19.272662, 234.463648)"><g><path d="M 35.4375 -34.015625 L 35.4375 0 L 28.390625 0 L 28.390625 -4.015625 C 27.285156 -2.609375 25.835938 -1.503906 24.046875 -0.703125 C 22.253906 0.0976562 20.347656 0.5 18.328125 0.5 C 15.660156 0.5 13.265625 -0.0546875 11.140625 -1.171875 C 9.023438 -2.285156 7.359375 -3.929688 6.140625 -6.109375 C 4.929688 -8.296875 4.328125 -10.929688 4.328125 -14.015625 L 4.328125 -34.015625 L 11.296875 -34.015625 L 11.296875 -15.0625 C 11.296875 -12.019531 12.054688 -9.6875 13.578125 -8.0625 C 15.097656 -6.4375 17.175781 -5.625 19.8125 -5.625 C 22.445312 -5.625 24.535156 -6.4375 26.078125 -8.0625 C 27.617188 -9.6875 28.390625 -12.019531 28.390625 -15.0625 L 28.390625 -34.015625 Z M 35.4375 -34.015625 "/></g></g></g><g fill="#5f3f75" fill-opacity="1"><g transform="translate(59.327983, 234.463648)"><g><path d="M 2.28125 -17.15625 C 2.28125 -20.570312 2.988281 -23.597656 4.40625 -26.234375 C 5.832031 -28.867188 7.769531 -30.914062 10.21875 -32.375 C 12.664062 -33.84375 15.390625 -34.578125 18.390625 -34.578125 C 20.617188 -34.578125 22.8125 -34.09375 24.96875 -33.125 C 27.132812 -32.15625 28.851562 -30.867188 30.125 -29.265625 L 30.125 -45.6875 L 37.21875 -45.6875 L 37.21875 0 L 30.125 0 L 30.125 -5.125 C 28.96875 -3.476562 27.367188 -2.117188 25.328125 -1.046875 C 23.296875 0.0234375 20.960938 0.5625 18.328125 0.5625 C 15.367188 0.5625 12.664062 -0.1875 10.21875 -1.6875 C 7.769531 -3.195312 5.832031 -5.296875 4.40625 -7.984375 C 2.988281 -10.679688 2.28125 -13.738281 2.28125 -17.15625 Z M 30.125 -17.03125 C 30.125 -19.382812 29.640625 -21.425781 28.671875 -23.15625 C 27.703125 -24.882812 26.4375 -26.195312 24.875 -27.09375 C 23.3125 -28 21.625 -28.453125 19.8125 -28.453125 C 18 -28.453125 16.3125 -28.007812 14.75 -27.125 C 13.1875 -26.25 11.921875 -24.957031 10.953125 -23.25 C 9.984375 -21.539062 9.5 -19.507812 9.5 -17.15625 C 9.5 -14.8125 9.984375 -12.753906 10.953125 -10.984375 C 11.921875 -9.210938 13.195312 -7.863281 14.78125 -6.9375 C 16.363281 -6.019531 18.039062 -5.5625 19.8125 -5.5625 C 21.625 -5.5625 23.3125 -6.007812 24.875 -6.90625 C 26.4375 -7.8125 27.703125 -9.140625 28.671875 -10.890625 C 29.640625 -12.640625 30.125 -14.6875 30.125 -17.03125 Z M 30.125 -17.03125 "/></g></g></g><g fill="#5f3f75" fill-opacity="1"><g transform="translate(101.173136, 234.463648)"><g><path d="M 8.203125 -38.515625 C 6.929688 -38.515625 5.863281 -38.945312 5 -39.8125 C 4.132812 -40.675781 3.703125 -41.75 3.703125 -43.03125 C 3.703125 -44.300781 4.132812 -45.367188 5 -46.234375 C 5.863281 -47.097656 6.929688 -47.53125 8.203125 -47.53125 C 9.441406 -47.53125 10.492188 -47.097656 11.359375 -46.234375 C 12.222656 -45.367188 12.65625 -44.300781 12.65625 -43.03125 C 12.65625 -41.75 12.222656 -40.675781 11.359375 -39.8125 C 10.492188 -38.945312 9.441406 -38.515625 8.203125 -38.515625 Z M 11.671875 -34.015625 L 11.671875 0 L 4.625 0 L 4.625 -34.015625 Z M 11.671875 -34.015625 "/></g></g></g><g fill="#5f3f75" fill-opacity="1"><g transform="translate(15.797627, 298.718457)"><g><path d="M 1.796875 -25.421875 C 1.796875 -30.773438 2.710938 -35.421875 4.546875 -39.359375 C 6.378906 -43.296875 8.890625 -46.300781 12.078125 -48.375 C 15.265625 -50.445312 18.84375 -51.484375 22.8125 -51.484375 C 26.113281 -51.484375 28.96875 -50.804688 31.375 -49.453125 C 33.78125 -48.097656 35.613281 -46.25 36.875 -43.90625 L 36.875 -50.84375 L 56.796875 -50.84375 L 56.796875 0 L 36.875 0 L 36.875 -6.9375 C 35.613281 -4.59375 33.78125 -2.742188 31.375 -1.390625 C 28.96875 -0.046875 26.113281 0.625 22.8125 0.625 C 18.84375 0.625 15.265625 -0.410156 12.078125 -2.484375 C 8.890625 -4.554688 6.378906 -7.5625 4.546875 -11.5 C 2.710938 -15.4375 1.796875 -20.078125 1.796875 -25.421875 Z M 36.875 -25.421875 C 36.875 -28.128906 36.179688 -30.234375 34.796875 -31.734375 C 33.421875 -33.234375 31.648438 -33.984375 29.484375 -33.984375 C 27.316406 -33.984375 25.539062 -33.234375 24.15625 -31.734375 C 22.78125 -30.234375 22.09375 -28.128906 22.09375 -25.421875 C 22.09375 -22.710938 22.78125 -20.609375 24.15625 -19.109375 C 25.539062 -17.609375 27.316406 -16.859375 29.484375 -16.859375 C 31.648438 -16.859375 33.421875 -17.609375 34.796875 -19.109375 C 36.179688 -20.609375 36.875 -22.710938 36.875 -25.421875 Z M 36.875 -25.421875 "/></g></g></g><g fill="#5f3f75" fill-opacity="1"><g transform="translate(77.099392, 298.718457)"><g><path d="M 58.328125 -50.84375 L 58.328125 0 L 38.3125 0 L 38.3125 -7.75 C 36.75 -5.34375 34.660156 -3.390625 32.046875 -1.890625 C 29.429688 -0.390625 26.320312 0.359375 22.71875 0.359375 C 16.882812 0.359375 12.328125 -1.59375 9.046875 -5.5 C 5.773438 -9.40625 4.140625 -14.691406 4.140625 -21.359375 L 4.140625 -50.84375 L 24.078125 -50.84375 L 24.078125 -23.890625 C 24.078125 -21.484375 24.722656 -19.570312 26.015625 -18.15625 C 27.304688 -16.75 29.03125 -16.046875 31.1875 -16.046875 C 33.414062 -16.046875 35.160156 -16.75 36.421875 -18.15625 C 37.679688 -19.570312 38.3125 -21.484375 38.3125 -23.890625 L 38.3125 -50.84375 Z M 58.328125 -50.84375 "/></g></g></g><g fill="#5f3f75" fill-opacity="1"><g transform="translate(139.933701, 298.718457)"><g><path d="M 1.796875 -25.421875 C 1.796875 -30.773438 2.710938 -35.421875 4.546875 -39.359375 C 6.378906 -43.296875 8.890625 -46.300781 12.078125 -48.375 C 15.265625 -50.445312 18.84375 -51.484375 22.8125 -51.484375 C 26.113281 -51.484375 28.953125 -50.804688 31.328125 -49.453125 C 33.703125 -48.097656 35.519531 -46.25 36.78125 -43.90625 L 36.78125 -66.71875 L 56.796875 -66.71875 L 56.796875 0 L 36.78125 0 L 36.78125 -6.9375 C 35.519531 -4.59375 33.703125 -2.742188 31.328125 -1.390625 C 28.953125 -0.046875 26.113281 0.625 22.8125 0.625 C 18.84375 0.625 15.265625 -0.410156 12.078125 -2.484375 C 8.890625 -4.554688 6.378906 -7.5625 4.546875 -11.5 C 2.710938 -15.4375 1.796875 -20.078125 1.796875 -25.421875 Z M 36.875 -25.421875 C 36.875 -28.128906 36.179688 -30.234375 34.796875 -31.734375 C 33.421875 -33.234375 31.648438 -33.984375 29.484375 -33.984375 C 27.316406 -33.984375 25.539062 -33.234375 24.15625 -31.734375 C 22.78125 -30.234375 22.09375 -28.128906 22.09375 -25.421875 C 22.09375 -22.710938 22.78125 -20.609375 24.15625 -19.109375 C 25.539062 -17.609375 27.316406 -16.859375 29.484375 -16.859375 C 31.648438 -16.859375 33.421875 -17.609375 34.796875 -19.109375 C 36.179688 -20.609375 36.875 -22.710938 36.875 -25.421875 Z M 36.875 -25.421875 "/></g></g></g><g fill="#5f3f75" fill-opacity="1"><g transform="translate(201.235466, 298.718457)"><g><path d="M 28.671875 0.625 C 23.554688 0.625 18.957031 -0.425781 14.875 -2.53125 C 10.789062 -4.632812 7.585938 -7.648438 5.265625 -11.578125 C 2.953125 -15.515625 1.796875 -20.128906 1.796875 -25.421875 C 1.796875 -30.710938 2.953125 -35.328125 5.265625 -39.265625 C 7.585938 -43.203125 10.789062 -46.222656 14.875 -48.328125 C 18.957031 -50.429688 23.554688 -51.484375 28.671875 -51.484375 C 33.773438 -51.484375 38.367188 -50.429688 42.453125 -48.328125 C 46.546875 -46.222656 49.75 -43.203125 52.0625 -39.265625 C 54.375 -35.328125 55.53125 -30.710938 55.53125 -25.421875 C 55.53125 -20.128906 54.375 -15.515625 52.0625 -11.578125 C 49.75 -7.648438 46.546875 -4.632812 42.453125 -2.53125 C 38.367188 -0.425781 33.773438 0.625 28.671875 0.625 Z M 28.671875 -16.671875 C 30.535156 -16.671875 32.097656 -17.40625 33.359375 -18.875 C 34.617188 -20.351562 35.25 -22.535156 35.25 -25.421875 C 35.25 -28.304688 34.617188 -30.484375 33.359375 -31.953125 C 32.097656 -33.429688 30.535156 -34.171875 28.671875 -34.171875 C 26.804688 -34.171875 25.242188 -33.429688 23.984375 -31.953125 C 22.722656 -30.484375 22.09375 -28.304688 22.09375 -25.421875 C 22.09375 -22.535156 22.707031 -20.351562 23.9375 -18.875 C 25.164062 -17.40625 26.742188 -16.671875 28.671875 -16.671875 Z M 28.671875 -16.671875 "/></g></g></g><g fill="#5f3f75" fill-opacity="1"><g transform="translate(258.570638, 298.718457)"><g><path d="M 36.15625 -17.046875 L 36.15625 0 L 28.578125 0 C 14.628906 0 7.65625 -6.941406 7.65625 -20.828125 L 7.65625 -34.171875 L 1.359375 -34.171875 L 1.359375 -50.84375 L 7.65625 -50.84375 L 7.65625 -63.109375 L 27.671875 -63.109375 L 27.671875 -50.84375 L 35.96875 -50.84375 L 35.96875 -34.171875 L 27.671875 -34.171875 L 27.671875 -20.46875 C 27.671875 -19.257812 27.957031 -18.382812 28.53125 -17.84375 C 29.101562 -17.3125 30.050781 -17.046875 31.375 -17.046875 Z M 36.15625 -17.046875 "/></g></g></g><g fill="#5f3f75" fill-opacity="1"><g transform="translate(297.875876, 298.718457)"><g><path d="M 1.796875 -25.421875 C 1.796875 -30.773438 2.710938 -35.421875 4.546875 -39.359375 C 6.378906 -43.296875 8.890625 -46.300781 12.078125 -48.375 C 15.265625 -50.445312 18.84375 -51.484375 22.8125 -51.484375 C 26.113281 -51.484375 28.96875 -50.804688 31.375 -49.453125 C 33.78125 -48.097656 35.613281 -46.25 36.875 -43.90625 L 36.875 -50.84375 L 56.796875 -50.84375 L 56.796875 0 L 36.875 0 L 36.875 -6.9375 C 35.613281 -4.59375 33.78125 -2.742188 31.375 -1.390625 C 28.96875 -0.046875 26.113281 0.625 22.8125 0.625 C 18.84375 0.625 15.265625 -0.410156 12.078125 -2.484375 C 8.890625 -4.554688 6.378906 -7.5625 4.546875 -11.5 C 2.710938 -15.4375 1.796875 -20.078125 1.796875 -25.421875 Z M 36.875 -25.421875 C 36.875 -28.128906 36.179688 -30.234375 34.796875 -31.734375 C 33.421875 -33.234375 31.648438 -33.984375 29.484375 -33.984375 C 27.316406 -33.984375 25.539062 -33.234375 24.15625 -31.734375 C 22.78125 -30.234375 22.09375 -28.128906 22.09375 -25.421875 C 22.09375 -22.710938 22.78125 -20.609375 24.15625 -19.109375 C 25.539062 -17.609375 27.316406 -16.859375 29.484375 -16.859375 C 31.648438 -16.859375 33.421875 -17.609375 34.796875 -19.109375 C 36.179688 -20.609375 36.875 -22.710938 36.875 -25.421875 Z M 36.875 -25.421875 "/></g></g></g></svg>