<svg xmlns="http://www.w3.org/2000/svg" xmlns:xlink="http://www.w3.org/1999/xlink" width="400" zoomAndPan="magnify" viewBox="0 0 300 74.999997" height="100" preserveAspectRatio="xMidYMid meet" version="1.0"><defs><g/><clipPath id="436240cc2a"><path d="M 16.652344 0 L 75.035156 0 L 75.035156 68.820312 L 16.652344 68.820312 Z M 16.652344 0 " clip-rule="nonzero"/></clipPath><clipPath id="428cd7ddc8"><path d="M 52 28 L 102 28 L 102 75 L 52 75 Z M 52 28 " clip-rule="nonzero"/></clipPath><clipPath id="0443469ffd"><path d="M 45.769531 32.675781 L 102.191406 25.382812 L 108.011719 70.421875 L 51.589844 77.714844 Z M 45.769531 32.675781 " clip-rule="nonzero"/></clipPath><clipPath id="3c1bce95a1"><path d="M 45.769531 32.675781 L 102.191406 25.382812 L 108.011719 70.421875 L 51.589844 77.714844 Z M 45.769531 32.675781 " clip-rule="nonzero"/></clipPath><clipPath id="cbfd6d84b0"><path d="M 50.054688 32.121094 L 97.894531 25.9375 L 103.726562 71.066406 L 55.886719 77.25 Z M 50.054688 32.121094 " clip-rule="nonzero"/></clipPath><clipPath id="be117d00c1"><path d="M 50.054688 32.121094 L 97.894531 25.9375 L 103.714844 70.980469 L 55.875 77.164062 Z M 50.054688 32.121094 " clip-rule="nonzero"/></clipPath><clipPath id="de98f362d6"><path d="M 52 28 L 102 28 L 102 71 L 52 71 Z M 52 28 " clip-rule="nonzero"/></clipPath><clipPath id="7e23367981"><path d="M 45.769531 32.675781 L 102.191406 25.382812 L 108.011719 70.421875 L 51.589844 77.714844 Z M 45.769531 32.675781 " clip-rule="nonzero"/></clipPath><clipPath id="308ac68df0"><path d="M 45.769531 32.675781 L 102.191406 25.382812 L 108.011719 70.421875 L 51.589844 77.714844 Z M 45.769531 32.675781 " clip-rule="nonzero"/></clipPath><clipPath id="2e61d03026"><path d="M 59 49 L 98 49 L 98 75 L 59 75 Z M 59 49 " clip-rule="nonzero"/></clipPath><clipPath id="728e9b39e7"><path d="M 45.769531 32.675781 L 102.191406 25.382812 L 108.011719 70.421875 L 51.589844 77.714844 Z M 45.769531 32.675781 " clip-rule="nonzero"/></clipPath><clipPath id="083b59fbe7"><path d="M 45.769531 32.675781 L 102.191406 25.382812 L 108.011719 70.421875 L 51.589844 77.714844 Z M 45.769531 32.675781 " clip-rule="nonzero"/></clipPath><clipPath id="d2aae56278"><path d="M 57.230469 52.300781 L 95.410156 47.363281 L 98.5625 71.734375 L 60.378906 76.671875 Z M 57.230469 52.300781 " clip-rule="nonzero"/></clipPath><clipPath id="370896828f"><path d="M 57.230469 52.300781 L 95.410156 47.363281 L 98.550781 71.648438 L 60.367188 76.582031 Z M 57.230469 52.300781 " clip-rule="nonzero"/></clipPath><clipPath id="e6b4b5e925"><path d="M 61 38 L 91 38 L 91 46 L 61 46 Z M 61 38 " clip-rule="nonzero"/></clipPath><clipPath id="1433c53185"><path d="M 45.769531 32.675781 L 102.191406 25.382812 L 108.011719 70.421875 L 51.589844 77.714844 Z M 45.769531 32.675781 " clip-rule="nonzero"/></clipPath><clipPath id="0d3b45f3df"><path d="M 45.769531 32.675781 L 102.191406 25.382812 L 108.011719 70.421875 L 51.589844 77.714844 Z M 45.769531 32.675781 " clip-rule="nonzero"/></clipPath><clipPath id="3a176f6bb3"><path d="M 75 59 L 82 59 L 82 64 L 75 64 Z M 75 59 " clip-rule="nonzero"/></clipPath><clipPath id="d1f82dafe7"><path d="M 45.769531 32.675781 L 102.191406 25.382812 L 108.011719 70.421875 L 51.589844 77.714844 Z M 45.769531 32.675781 " clip-rule="nonzero"/></clipPath><clipPath id="118fef2771"><path d="M 45.769531 32.675781 L 102.191406 25.382812 L 108.011719 70.421875 L 51.589844 77.714844 Z M 45.769531 32.675781 " clip-rule="nonzero"/></clipPath><clipPath id="1a5e024261"><path d="M 49 33 L 106 33 L 106 74 L 49 74 Z M 49 33 " clip-rule="nonzero"/></clipPath><clipPath id="ff97c0db2c"><path d="M 45.769531 32.675781 L 102.191406 25.382812 L 108.011719 70.421875 L 51.589844 77.714844 Z M 45.769531 32.675781 " clip-rule="nonzero"/></clipPath><clipPath id="9d1bfd12b7"><path d="M 45.769531 32.675781 L 102.191406 25.382812 L 108.011719 70.421875 L 51.589844 77.714844 Z M 45.769531 32.675781 " clip-rule="nonzero"/></clipPath></defs><rect x="-30" width="360" fill="#ffffff" y="-7.5" height="89.999996" fill-opacity="1"/><rect x="-30" width="360" fill="#ffffff" y="-7.5" height="89.999996" fill-opacity="1"/><rect x="-30" width="360" fill="#ffffff" y="-7.5" height="89.999996" fill-opacity="1"/><g clip-path="url(#436240cc2a)"><path fill="#fac264" d="M 74.738281 24.378906 C 74.566406 24.171875 74.339844 24.023438 74.113281 23.886719 C 70.777344 21.828125 66.867188 20.734375 62.953125 20.699219 C 61.78125 20.6875 60.679688 20.125 60.023438 19.15625 C 58.679688 17.171875 56.964844 15.351562 54.910156 13.800781 C 53.527344 12.757812 52.066406 11.898438 50.566406 11.222656 C 49.398438 10.695312 48.601562 9.597656 48.46875 8.324219 C 48.109375 4.824219 46.957031 1.402344 45.101562 -1.585938 C 44.699219 -2.234375 44.171875 -2.921875 43.414062 -3.027344 C 42.515625 -3.152344 41.753906 -2.414062 41.175781 -1.714844 C 38.550781 1.460938 36.519531 5.121094 35.195312 9.023438 C 34.855469 10.03125 34.152344 10.875 33.210938 11.371094 C 31.101562 12.480469 29.226562 14.03125 27.730469 16.019531 C 24.34375 20.519531 22.398438 25.703125 23.632812 30.90625 C 23.921875 32.125 23.652344 33.40625 22.949219 34.449219 C 22.746094 34.753906 22.546875 35.058594 22.347656 35.371094 C 21.421875 36.839844 20.605469 38.378906 19.902344 39.972656 C 17.710938 44.914062 16.601562 50.351562 16.652344 55.765625 C 16.667969 57.285156 17.304688 58.730469 18.394531 59.789062 C 23.847656 65.066406 31.21875 68.367188 38.800781 68.777344 C 44.773438 69.101562 50.804688 67.628906 56.027344 64.714844 C 57.746094 63.753906 58.839844 61.960938 58.914062 59.992188 L 58.917969 59.960938 C 59.027344 57.066406 58.734375 54.152344 58.042969 51.34375 C 57.761719 50.203125 57.414062 49.078125 57 47.976562 C 56.390625 46.351562 56.769531 44.519531 57.972656 43.265625 C 58.769531 42.441406 59.53125 41.527344 60.273438 40.546875 C 61.367188 39.09375 62.179688 37.515625 62.730469 35.859375 C 63.160156 34.5625 64.210938 33.5625 65.527344 33.199219 C 69.105469 32.210938 72.34375 30.148438 74.378906 27.070312 C 74.914062 26.261719 75.351562 25.132812 74.738281 24.378906 " fill-opacity="1" fill-rule="nonzero"/><path fill="#fac264" d="M 16.652344 55.765625 C 16.601562 50.351562 17.710938 44.914062 19.902344 39.972656 C 23.304688 45.921875 28.683594 50.722656 34.988281 53.40625 C 35.503906 53.628906 36.117188 53.832031 36.605469 53.554688 C 37.152344 53.238281 37.242188 52.445312 36.976562 51.875 C 36.707031 51.304688 36.179688 50.910156 35.683594 50.523438 C 30.316406 46.394531 25.765625 41.210938 22.347656 35.371094 C 22.546875 35.058594 22.746094 34.753906 22.949219 34.449219 C 23.652344 33.40625 23.921875 32.125 23.632812 30.90625 C 22.398438 25.703125 24.34375 20.519531 27.730469 16.019531 C 29.226562 14.03125 31.101562 12.480469 33.210938 11.371094 C 34.152344 10.875 34.855469 10.03125 35.195312 9.023438 C 36.519531 5.121094 38.550781 1.460938 41.175781 -1.714844 C 41.753906 -2.414062 42.515625 -3.152344 43.414062 -3.027344 C 44.171875 -2.921875 44.699219 -2.234375 45.101562 -1.585938 C 46.957031 1.402344 48.109375 4.824219 48.46875 8.324219 C 48.601562 9.597656 49.398438 10.695312 50.566406 11.222656 C 52.066406 11.898438 53.527344 12.757812 54.910156 13.800781 C 56.964844 15.351562 58.679688 17.171875 60.023438 19.15625 C 60.679688 20.125 61.78125 20.6875 62.953125 20.699219 C 66.867188 20.734375 70.777344 21.828125 74.113281 23.886719 C 74.339844 24.023438 74.566406 24.171875 74.738281 24.378906 C 75.351562 25.132812 74.914062 26.261719 74.378906 27.070312 C 72.34375 30.148438 69.105469 32.210938 65.527344 33.199219 C 64.210938 33.5625 63.160156 34.5625 62.730469 35.859375 C 62.179688 37.515625 61.367188 39.09375 60.273438 40.546875 C 59.53125 41.527344 58.769531 42.441406 57.972656 43.265625 C 56.769531 44.519531 56.390625 46.351562 57 47.976562 C 57.414062 49.078125 57.761719 50.203125 58.042969 51.34375 C 57.332031 53.503906 55.410156 55.34375 53.328125 56.449219 C 50.492188 57.957031 47.246094 58.582031 44.417969 60.113281 C 43.722656 60.488281 42.960938 61.113281 43.085938 61.894531 C 43.207031 62.613281 44 62.980469 44.699219 63.175781 C 48.558594 64.253906 52.835938 63.742188 56.335938 61.785156 C 57.257812 61.273438 58.121094 60.65625 58.917969 59.960938 L 58.914062 59.992188 C 58.839844 61.960938 57.746094 63.753906 56.027344 64.714844 C 50.804688 67.628906 44.773438 69.101562 38.800781 68.777344 C 31.21875 68.367188 23.847656 65.066406 18.394531 59.789062 C 17.304688 58.730469 16.667969 57.285156 16.652344 55.765625 Z M 37.953125 9.691406 C 40.078125 9.257812 42.316406 9.1875 44.554688 9.492188 C 44.410156 7.851562 44.023438 6.234375 43.410156 4.707031 C 43.070312 3.859375 42.503906 2.925781 41.59375 2.851562 C 40.601562 2.769531 39.875 3.753906 39.449219 4.652344 C 38.691406 6.238281 38.183594 7.949219 37.953125 9.691406 Z M 63.554688 29.257812 C 65.265625 29.308594 66.988281 28.9375 68.527344 28.183594 C 69.550781 27.683594 70.613281 26.71875 70.347656 25.613281 C 70.125 24.683594 69.085938 24.226562 68.160156 24.015625 C 66.300781 23.589844 64.34375 23.605469 62.492188 24.054688 C 63.085938 25.757812 63.445312 27.511719 63.554688 29.257812 " fill-opacity="1" fill-rule="nonzero"/></g><path fill="#f37052" d="M 22.347656 35.371094 C 21.421875 36.839844 20.605469 38.378906 19.902344 39.972656 C 23.304688 45.921875 28.683594 50.722656 34.988281 53.40625 C 35.503906 53.628906 36.117188 53.832031 36.605469 53.554688 C 37.152344 53.238281 37.242188 52.445312 36.976562 51.875 C 36.707031 51.304688 36.179688 50.910156 35.683594 50.523438 C 30.316406 46.394531 25.765625 41.210938 22.347656 35.371094 Z M 39.449219 4.652344 C 38.691406 6.238281 38.183594 7.949219 37.953125 9.691406 C 40.078125 9.257812 42.316406 9.1875 44.554688 9.492188 C 44.410156 7.851562 44.023438 6.234375 43.410156 4.707031 C 43.070312 3.859375 42.503906 2.925781 41.59375 2.851562 C 40.601562 2.769531 39.875 3.753906 39.449219 4.652344 Z M 53.328125 56.449219 C 50.492188 57.957031 47.246094 58.582031 44.417969 60.113281 C 43.722656 60.488281 42.960938 61.113281 43.085938 61.894531 C 43.207031 62.613281 44 62.980469 44.699219 63.175781 C 48.558594 64.253906 52.835938 63.742188 56.335938 61.785156 C 57.257812 61.273438 58.121094 60.65625 58.917969 59.960938 C 59.027344 57.066406 58.734375 54.152344 58.042969 51.34375 C 57.332031 53.503906 55.410156 55.34375 53.328125 56.449219 Z M 62.492188 24.054688 C 64.34375 23.605469 66.300781 23.589844 68.160156 24.015625 C 69.085938 24.226562 70.125 24.683594 70.347656 25.613281 C 70.613281 26.71875 69.550781 27.683594 68.527344 28.183594 C 66.988281 28.9375 65.265625 29.308594 63.554688 29.257812 C 63.445312 27.511719 63.085938 25.757812 62.492188 24.054688 " fill-opacity="1" fill-rule="nonzero"/><path fill="#f1dbc6" d="M 48.851562 35.257812 C 47.15625 38.957031 41.878906 40.167969 37.0625 37.960938 C 32.246094 35.753906 29.714844 30.964844 31.410156 27.265625 C 33.105469 23.566406 38.382812 22.355469 43.199219 24.5625 C 48.015625 26.769531 50.546875 31.554688 48.851562 35.257812 " fill-opacity="1" fill-rule="nonzero"/><path fill="#a1733a" d="M 56.597656 20.816406 C 55.382812 20.117188 53.976562 20.28125 53.453125 21.183594 C 52.933594 22.085938 54.367188 22.296875 55.582031 23 C 56.796875 23.703125 57.332031 24.628906 57.855469 23.726562 C 58.375 22.820312 57.8125 21.519531 56.597656 20.816406 Z M 42.753906 14.703125 C 42.230469 15.605469 41.695312 14.679688 40.480469 13.976562 C 39.265625 13.273438 37.828125 13.0625 38.351562 12.160156 C 38.871094 11.257812 40.28125 11.09375 41.496094 11.792969 C 42.710938 12.496094 43.273438 13.796875 42.753906 14.703125 " fill-opacity="1" fill-rule="nonzero"/><path fill="#000000" d="M 45.992188 33.253906 C 44.734375 34.109375 42.96875 34.1875 41.757812 33.199219 C 40.667969 32.3125 40.382812 30.960938 40.554688 29.652344 C 40.601562 29.601562 40.644531 29.554688 40.6875 29.503906 C 40.828125 29.53125 40.980469 29.527344 41.128906 29.488281 L 44.242188 28.671875 C 45.109375 28.445312 45.265625 27.28125 44.488281 26.832031 L 40.523438 24.542969 C 39.75 24.09375 38.816406 24.8125 39.054688 25.675781 L 39.90625 28.785156 C 39.941406 28.917969 40.003906 29.035156 40.082031 29.136719 C 39.367188 29.914062 38.351562 30.390625 37.261719 30.222656 C 35.777344 29.988281 34.644531 28.703125 34.449219 27.242188 C 34.421875 27.035156 34.042969 27.078125 34.054688 27.289062 C 34.160156 29.082031 35.585938 30.667969 37.402344 30.839844 C 38.289062 30.925781 39.171875 30.683594 39.890625 30.207031 C 39.671875 31.566406 40.28125 33.074219 41.371094 33.898438 C 42.863281 35.019531 45.105469 34.953125 46.488281 33.6875 C 46.863281 33.339844 46.328125 33.023438 45.992188 33.253906 Z M 51.433594 23.8125 C 51.941406 23.761719 52.425781 23.722656 52.886719 23.980469 C 52.296875 24.394531 51.875 25.609375 51.875 27.039062 C 51.875 28.8125 52.527344 30.25 53.328125 30.25 C 54.136719 30.25 54.785156 28.8125 54.785156 27.039062 C 54.785156 25.640625 54.382812 24.453125 53.816406 24.011719 C 53.203125 23.347656 52.125 23.0625 51.347656 23.613281 C 51.238281 23.6875 51.304688 23.824219 51.433594 23.8125 Z M 35.859375 15.484375 C 36.554688 15.433594 37.097656 15.628906 37.570312 15.964844 C 37.019531 16.421875 36.625 17.597656 36.625 18.972656 C 36.625 20.746094 37.277344 22.183594 38.082031 22.183594 C 38.886719 22.183594 39.539062 20.746094 39.539062 18.972656 C 39.539062 17.59375 39.140625 16.414062 38.585938 15.960938 C 37.917969 15.230469 36.679688 14.960938 35.777344 15.191406 C 35.558594 15.246094 35.664062 15.5 35.859375 15.484375 Z M 50.660156 36.484375 C 50.5625 36.390625 50.320312 36.488281 50.429688 36.613281 C 52.808594 39.390625 54.394531 42.589844 55.367188 46.101562 C 55.417969 46.285156 55.773438 46.261719 55.738281 46.0625 C 55.148438 42.4375 53.265625 39.046875 50.660156 36.484375 Z M 57.066406 37.421875 C 55.46875 35.890625 53.492188 34.292969 51.375 33.574219 C 51.308594 33.550781 51.191406 33.625 51.277344 33.683594 C 52.199219 34.332031 53.191406 34.863281 54.101562 35.535156 C 55 36.195312 55.839844 36.929688 56.625 37.722656 C 58.261719 39.375 59.636719 41.265625 60.792969 43.285156 C 60.886719 43.449219 61.238281 43.359375 61.148438 43.160156 C 60.179688 40.996094 58.777344 39.0625 57.066406 37.421875 Z M 67.816406 42.632812 C 65.285156 36.265625 58.839844 31.753906 52.082031 31.117188 C 51.875 31.097656 51.785156 31.371094 52.015625 31.398438 C 58.78125 32.207031 64.546875 36.652344 67.453125 42.753906 C 67.539062 42.933594 67.898438 42.835938 67.816406 42.632812 Z M 29.542969 25.558594 C 26.660156 23.9375 23.371094 23.277344 20.082031 23.59375 C 19.917969 23.609375 19.933594 23.820312 20.101562 23.804688 C 23.328125 23.523438 26.546875 24.207031 29.410156 25.710938 C 29.503906 25.761719 29.65625 25.621094 29.542969 25.558594 Z M 19.558594 15.460938 C 19.371094 15.425781 19.21875 15.710938 19.441406 15.765625 C 23.890625 16.90625 27.835938 19.632812 30.265625 23.558594 C 30.378906 23.75 30.796875 23.625 30.671875 23.414062 C 28.28125 19.332031 24.226562 16.339844 19.558594 15.460938 Z M 33.199219 23.671875 C 33.226562 23.832031 32.914062 23.886719 32.867188 23.742188 C 31.808594 20.609375 30.308594 17.796875 27.945312 15.445312 C 25.636719 13.140625 22.792969 11.53125 19.671875 10.613281 C 19.386719 10.527344 19.632812 10.230469 19.859375 10.277344 C 26.179688 11.5625 32.132812 17.199219 33.199219 23.671875 " fill-opacity="1" fill-rule="nonzero"/><g clip-path="url(#428cd7ddc8)"><g clip-path="url(#0443469ffd)"><g clip-path="url(#3c1bce95a1)"><g clip-path="url(#cbfd6d84b0)"><g clip-path="url(#be117d00c1)"><path fill="#e7e1ca" d="M 96.132812 40.457031 C 96.195312 40.425781 96.25 40.390625 96.308594 40.351562 C 97.144531 39.765625 97.574219 38.722656 97.644531 37.703125 C 97.714844 36.683594 97.472656 35.671875 97.21875 34.683594 C 96.910156 33.5 96.574219 32.3125 95.96875 31.25 C 95.367188 30.1875 94.472656 29.25 93.328125 28.816406 C 91.847656 28.257812 90.148438 28.621094 88.777344 29.402344 C 87.792969 29.964844 86.949219 30.71875 86.148438 31.523438 C 82.378906 29.496094 78.207031 28.480469 73.976562 29.03125 C 69.746094 29.578125 65.964844 31.617188 62.839844 34.535156 C 61.859375 33.960938 60.847656 33.445312 59.757812 33.15625 C 58.230469 32.746094 56.496094 32.828125 55.207031 33.742188 C 54.210938 34.453125 53.582031 35.589844 53.269531 36.769531 C 52.957031 37.949219 52.929688 39.1875 52.933594 40.40625 C 52.9375 41.429688 52.964844 42.46875 53.292969 43.4375 C 53.617188 44.40625 54.296875 45.304688 55.257812 45.65625 C 55.320312 45.679688 55.386719 45.703125 55.453125 45.71875 C 53.742188 50.144531 53.035156 54.863281 53.582031 59.09375 C 54.21875 64.019531 56.402344 67.707031 59.652344 70.230469 C 64.417969 73.933594 71.472656 75.148438 79.3125 74.132812 C 86.984375 73.140625 93.714844 70.238281 97.695312 65.589844 C 100.558594 62.246094 102 58 101.34375 52.917969 C 100.796875 48.691406 98.914062 44.304688 96.132812 40.457031 " fill-opacity="1" fill-rule="nonzero"/></g></g></g></g></g><g clip-path="url(#de98f362d6)"><g clip-path="url(#7e23367981)"><g clip-path="url(#308ac68df0)"><path fill="#a1733a" d="M 53.582031 59.09375 C 53.035156 54.863281 53.742188 50.144531 55.453125 45.71875 C 55.386719 45.703125 55.320312 45.679688 55.257812 45.65625 C 54.296875 45.304688 53.617188 44.40625 53.292969 43.4375 C 52.964844 42.46875 52.9375 41.429688 52.933594 40.40625 C 52.929688 39.1875 52.957031 37.949219 53.269531 36.769531 C 53.582031 35.589844 54.210938 34.453125 55.207031 33.742188 C 56.496094 32.828125 58.230469 32.746094 59.757812 33.15625 C 60.847656 33.445312 61.859375 33.960938 62.839844 34.535156 C 65.964844 31.617188 69.746094 29.578125 73.976562 29.03125 C 78.207031 28.480469 82.378906 29.496094 86.148438 31.523438 C 86.949219 30.71875 87.792969 29.964844 88.777344 29.402344 C 90.148438 28.621094 91.847656 28.257812 93.324219 28.816406 C 94.472656 29.25 95.367188 30.1875 95.96875 31.25 C 96.574219 32.3125 96.910156 33.5 97.21875 34.683594 C 97.472656 35.671875 97.714844 36.683594 97.644531 37.703125 C 97.574219 38.722656 97.144531 39.765625 96.308594 40.351562 C 96.25 40.390625 96.195312 40.425781 96.132812 40.457031 C 98.914062 44.304688 100.796875 48.691406 101.34375 52.917969 C 102 58 100.558594 62.246094 97.695312 65.589844 C 95.859375 66.40625 93.902344 66.984375 91.886719 67.277344 C 89.191406 67.675781 85.789062 67.203125 84.886719 64.882812 C 84.125 62.925781 85.609375 60.867188 86.128906 58.824219 C 86.949219 55.597656 85.042969 52.035156 81.8125 50.566406 C 78.585938 49.09375 74.335938 49.765625 71.6875 52.066406 C 69.035156 54.371094 68.097656 58.113281 69.28125 61.21875 C 69.984375 63.0625 71.375 64.882812 70.855469 66.792969 C 70.316406 68.75 67.972656 69.847656 65.796875 70.25 C 63.769531 70.625 61.667969 70.609375 59.652344 70.230469 C 56.402344 67.707031 54.21875 64.019531 53.582031 59.09375 " fill-opacity="1" fill-rule="nonzero"/></g></g></g><g clip-path="url(#2e61d03026)"><g clip-path="url(#728e9b39e7)"><g clip-path="url(#083b59fbe7)"><g clip-path="url(#d2aae56278)"><g clip-path="url(#370896828f)"><path fill="#e7e1ca" d="M 86.128906 58.824219 C 85.609375 60.867188 84.125 62.925781 84.886719 64.882812 C 85.789062 67.203125 89.191406 67.675781 91.886719 67.277344 C 93.902344 66.984375 95.859375 66.40625 97.695312 65.589844 C 93.714844 70.238281 86.984375 73.140625 79.3125 74.132812 C 71.472656 75.148438 64.417969 73.933594 59.652344 70.230469 C 61.667969 70.609375 63.769531 70.625 65.796875 70.25 C 67.972656 69.847656 70.316406 68.75 70.855469 66.792969 C 71.375 64.882812 69.984375 63.0625 69.28125 61.21875 C 68.097656 58.113281 69.035156 54.371094 71.6875 52.066406 C 74.335938 49.765625 78.585938 49.09375 81.8125 50.566406 C 85.042969 52.035156 86.949219 55.597656 86.128906 58.824219 " fill-opacity="1" fill-rule="nonzero"/></g></g></g></g></g><g clip-path="url(#e6b4b5e925)"><g clip-path="url(#1433c53185)"><g clip-path="url(#0d3b45f3df)"><path fill="#e7e1ca" d="M 61.019531 44.316406 C 61.144531 45.277344 62.488281 45.078125 64.148438 44.863281 C 65.808594 44.648438 67.160156 44.5 67.035156 43.539062 C 66.910156 42.578125 65.347656 41.066406 63.6875 41.28125 C 62.027344 41.496094 60.898438 43.355469 61.019531 44.316406 Z M 90.390625 40.519531 C 90.515625 41.480469 89.164062 41.628906 87.503906 41.84375 C 85.84375 42.058594 84.5 42.257812 84.375 41.296875 C 84.25 40.335938 85.378906 38.476562 87.039062 38.261719 C 88.703125 38.046875 90.265625 39.558594 90.390625 40.519531 " fill-opacity="1" fill-rule="nonzero"/></g></g></g><g clip-path="url(#3a176f6bb3)"><g clip-path="url(#d1f82dafe7)"><g clip-path="url(#118fef2771)"><path fill="#f49274" d="M 81.109375 61.964844 C 81.175781 61.976562 81.242188 61.980469 81.308594 61.988281 C 81.074219 62.386719 80.828125 62.734375 80.40625 62.988281 C 79.859375 63.3125 79.242188 63.492188 78.617188 63.578125 C 78.007812 63.660156 77.359375 63.65625 76.765625 63.488281 C 76.234375 63.335938 75.855469 63.019531 75.460938 62.667969 C 76.546875 62.167969 77.445312 61.066406 77.941406 59.886719 C 78.722656 60.929688 79.910156 61.789062 81.109375 61.964844 " fill-opacity="1" fill-rule="nonzero"/></g></g></g><g clip-path="url(#1a5e024261)"><g clip-path="url(#ff97c0db2c)"><g clip-path="url(#9d1bfd12b7)"><path fill="#000000" d="M 79.972656 64.941406 C 79.292969 65.933594 78.003906 66.019531 77.242188 65.054688 C 77.097656 64.875 76.707031 65.054688 76.84375 65.273438 C 77.699219 66.640625 79.769531 66.609375 80.488281 65.121094 C 80.65625 64.773438 80.148438 64.6875 79.972656 64.941406 Z M 81.308594 61.988281 C 81.242188 61.980469 81.175781 61.976562 81.109375 61.964844 C 79.910156 61.789062 78.722656 60.929688 77.941406 59.886719 C 77.445312 61.066406 76.546875 62.167969 75.460938 62.667969 C 75.855469 63.019531 76.234375 63.335938 76.765625 63.488281 C 77.359375 63.65625 78.007812 63.660156 78.617188 63.578125 C 79.242188 63.492188 79.859375 63.3125 80.40625 62.988281 C 80.828125 62.734375 81.074219 62.386719 81.308594 61.988281 Z M 84.527344 59.683594 C 84.160156 60.9375 83.140625 61.839844 81.898438 61.976562 C 81.820312 63.382812 80.050781 64.03125 78.875 64.1875 C 77.496094 64.375 75.867188 64.082031 75.09375 62.8125 C 73.722656 63.25 72.308594 62.625 71.5625 61.375 C 71.4375 61.171875 71.800781 61.007812 71.929688 61.179688 C 72.757812 62.292969 74.234375 62.78125 75.449219 61.960938 C 76.460938 61.277344 76.929688 60.164062 77.453125 59.101562 C 77.394531 58.992188 77.34375 58.882812 77.300781 58.773438 C 77.242188 58.75 77.1875 58.71875 77.132812 58.683594 L 74 56.671875 C 73.179688 56.144531 73.460938 54.875 74.425781 54.75 L 80.078125 54.019531 C 81.042969 53.894531 81.640625 55.050781 80.980469 55.769531 L 78.460938 58.511719 C 78.414062 58.566406 78.359375 58.609375 78.304688 58.652344 C 78.289062 58.746094 78.273438 58.839844 78.25 58.9375 C 79.066406 59.847656 79.820312 60.855469 81.027344 61.253906 C 82.394531 61.703125 83.625 60.894531 84.132812 59.617188 C 84.210938 59.421875 84.597656 59.4375 84.527344 59.683594 Z M 55.519531 45.785156 C 57.152344 45.328125 58.367188 43.507812 59.117188 42.09375 C 59.597656 41.195312 59.992188 40.25 60.398438 39.316406 C 60.617188 38.816406 60.808594 38.269531 61.121094 37.816406 C 61.53125 37.226562 61.960938 37.246094 62.542969 37.523438 C 62.613281 37.558594 62.71875 37.511719 62.710938 37.425781 C 62.636719 36.707031 61.527344 36.914062 61.136719 37.203125 C 60.347656 37.789062 59.996094 39.058594 59.617188 39.921875 C 59.117188 41.054688 58.605469 42.1875 57.894531 43.195312 C 57.566406 43.65625 57.199219 44.089844 56.785156 44.472656 C 56.339844 44.882812 55.824219 45.167969 55.335938 45.523438 C 55.164062 45.648438 55.363281 45.828125 55.519531 45.785156 Z M 87.179688 34.34375 C 87.378906 34.164062 87.523438 33.964844 87.816406 33.9375 C 88.136719 33.90625 88.417969 34.089844 88.648438 34.289062 C 89.066406 34.648438 89.394531 35.136719 89.730469 35.566406 C 90.394531 36.40625 91.042969 37.261719 91.78125 38.035156 C 92.855469 39.171875 94.429688 40.527344 96.082031 40.542969 C 96.242188 40.546875 96.386719 40.308594 96.195312 40.226562 C 95.671875 40.007812 95.121094 39.878906 94.613281 39.617188 C 94.128906 39.367188 93.675781 39.058594 93.25 38.714844 C 92.242188 37.898438 91.425781 36.882812 90.621094 35.871094 C 90.238281 35.390625 89.855469 34.90625 89.449219 34.445312 C 89.148438 34.101562 88.804688 33.742188 88.355469 33.613281 C 87.910156 33.484375 86.902344 33.65625 87.007812 34.304688 C 87.019531 34.378906 87.132812 34.386719 87.179688 34.34375 Z M 72.757812 58.851562 C 71.027344 59.445312 69.382812 60.570312 67.894531 61.617188 C 66.453125 62.632812 65.09375 63.765625 63.828125 64.996094 C 61.210938 67.535156 58.882812 70.53125 57.296875 73.835938 C 57.226562 73.980469 57.492188 74.03125 57.558594 73.917969 C 59.414062 70.8125 61.511719 67.929688 64.105469 65.398438 C 65.460938 64.078125 66.914062 62.855469 68.453125 61.753906 C 69.867188 60.738281 71.421875 59.949219 72.84375 58.960938 C 72.929688 58.902344 72.828125 58.828125 72.757812 58.851562 Z M 71.878906 57.582031 C 72.097656 57.542969 72.078125 57.214844 71.839844 57.246094 C 68.175781 57.722656 64.609375 58.871094 61.324219 60.570312 C 58.117188 62.230469 55 64.382812 52.59375 67.109375 C 52.363281 67.367188 52.753906 67.566406 52.960938 67.371094 C 55.558594 64.957031 58.300781 62.777344 61.449219 61.125 C 64.722656 59.40625 68.246094 58.238281 71.878906 57.582031 Z M 60.386719 54.320312 C 64.308594 54.019531 68.195312 54.539062 71.96875 55.628906 C 72.089844 55.664062 72.25 55.46875 72.09375 55.410156 C 68.40625 54.042969 64.386719 53.589844 60.476562 53.839844 C 56.582031 54.089844 52.59375 55.050781 49.15625 56.941406 C 48.925781 57.070312 49.136719 57.296875 49.34375 57.207031 C 52.878906 55.683594 56.535156 54.613281 60.386719 54.320312 Z M 93.046875 61.269531 C 91.460938 60.371094 89.808594 59.597656 88.101562 58.964844 C 86.402344 58.339844 84.542969 57.683594 82.726562 57.5625 C 82.640625 57.554688 82.597656 57.660156 82.6875 57.695312 C 83.507812 58.003906 84.378906 58.1875 85.214844 58.453125 C 86.070312 58.726562 86.921875 59.015625 87.757812 59.339844 C 89.46875 60.003906 91.136719 60.792969 92.734375 61.699219 C 95.894531 63.488281 98.660156 65.746094 101.257812 68.273438 C 101.347656 68.363281 101.601562 68.234375 101.5 68.117188 C 99.164062 65.347656 96.179688 63.050781 93.046875 61.269531 Z M 94.34375 56.316406 C 90.71875 55.507812 86.957031 55.292969 83.273438 55.765625 C 83.03125 55.796875 82.976562 56.132812 83.257812 56.113281 C 86.835938 55.832031 90.441406 56.054688 93.949219 56.839844 C 97.511719 57.640625 100.78125 59.082031 104.011719 60.769531 C 104.226562 60.882812 104.644531 60.605469 104.371094 60.417969 C 101.394531 58.386719 97.839844 57.097656 94.34375 56.316406 Z M 105.078125 49.707031 C 101.234375 48.722656 97.066406 48.84375 93.203125 49.625 C 89.410156 50.390625 85.699219 51.84375 82.511719 54.066406 C 82.375 54.160156 82.546875 54.316406 82.667969 54.242188 C 86.023438 52.230469 89.636719 50.746094 93.492188 50.039062 C 97.316406 49.339844 101.128906 49.46875 104.960938 50.027344 C 105.171875 50.058594 105.328125 49.773438 105.078125 49.707031 Z M 59.753906 49.886719 C 59.507812 50.203125 59.953125 50.410156 60.1875 50.175781 C 61.5625 48.824219 63.511719 48.03125 65.445312 48.394531 C 67.273438 48.742188 68.542969 49.894531 69.605469 51.355469 C 69.738281 51.53125 70.136719 51.382812 70.054688 51.152344 C 69.390625 49.308594 67.402344 48.003906 65.53125 47.703125 C 63.40625 47.363281 61.089844 48.164062 59.753906 49.886719 Z M 83.394531 49.46875 C 83.597656 47.476562 85.226562 45.699219 86.996094 44.921875 C 88.953125 44.070312 91.359375 44.238281 93.0625 45.574219 C 93.359375 45.804688 92.914062 46.132812 92.65625 45.988281 C 90.972656 45.058594 88.898438 44.757812 87.113281 45.574219 C 85.445312 46.34375 84.496094 47.800781 83.875 49.472656 C 83.804688 49.660156 83.367188 49.738281 83.394531 49.46875 " fill-opacity="1" fill-rule="nonzero"/></g></g></g><g fill="#5f3f75" fill-opacity="1"><g transform="translate(113.293429, 35.019121)"><g><path d="M 17.21875 -16.53125 L 17.21875 0 L 13.796875 0 L 13.796875 -1.953125 C 13.253906 -1.273438 12.546875 -0.738281 11.671875 -0.34375 C 10.804688 0.0390625 9.882812 0.234375 8.90625 0.234375 C 7.601562 0.234375 6.4375 -0.03125 5.40625 -0.5625 C 4.382812 -1.101562 3.578125 -1.90625 2.984375 -2.96875 C 2.390625 -4.03125 2.09375 -5.3125 2.09375 -6.8125 L 2.09375 -16.53125 L 5.484375 -16.53125 L 5.484375 -7.3125 C 5.484375 -5.832031 5.851562 -4.695312 6.59375 -3.90625 C 7.332031 -3.125 8.34375 -2.734375 9.625 -2.734375 C 10.90625 -2.734375 11.921875 -3.125 12.671875 -3.90625 C 13.421875 -4.695312 13.796875 -5.832031 13.796875 -7.3125 L 13.796875 -16.53125 Z M 17.21875 -16.53125 "/></g></g></g><g fill="#5f3f75" fill-opacity="1"><g transform="translate(132.759622, 35.019121)"><g><path d="M 1.109375 -8.34375 C 1.109375 -10 1.453125 -11.46875 2.140625 -12.75 C 2.835938 -14.03125 3.78125 -15.023438 4.96875 -15.734375 C 6.15625 -16.441406 7.476562 -16.796875 8.9375 -16.796875 C 10.019531 -16.796875 11.082031 -16.5625 12.125 -16.09375 C 13.175781 -15.625 14.015625 -15 14.640625 -14.21875 L 14.640625 -22.203125 L 18.09375 -22.203125 L 18.09375 0 L 14.640625 0 L 14.640625 -2.484375 C 14.078125 -1.691406 13.300781 -1.035156 12.3125 -0.515625 C 11.320312 0.00390625 10.1875 0.265625 8.90625 0.265625 C 7.46875 0.265625 6.15625 -0.0976562 4.96875 -0.828125 C 3.78125 -1.554688 2.835938 -2.570312 2.140625 -3.875 C 1.453125 -5.1875 1.109375 -6.675781 1.109375 -8.34375 Z M 14.640625 -8.28125 C 14.640625 -9.414062 14.40625 -10.40625 13.9375 -11.25 C 13.46875 -12.09375 12.851562 -12.734375 12.09375 -13.171875 C 11.332031 -13.609375 10.507812 -13.828125 9.625 -13.828125 C 8.75 -13.828125 7.929688 -13.613281 7.171875 -13.1875 C 6.410156 -12.757812 5.796875 -12.128906 5.328125 -11.296875 C 4.859375 -10.460938 4.625 -9.476562 4.625 -8.34375 C 4.625 -7.195312 4.859375 -6.191406 5.328125 -5.328125 C 5.796875 -4.472656 6.414062 -3.820312 7.1875 -3.375 C 7.957031 -2.925781 8.769531 -2.703125 9.625 -2.703125 C 10.507812 -2.703125 11.332031 -2.921875 12.09375 -3.359375 C 12.851562 -3.796875 13.46875 -4.4375 13.9375 -5.28125 C 14.40625 -6.132812 14.640625 -7.132812 14.640625 -8.28125 Z M 14.640625 -8.28125 "/></g></g></g><g fill="#5f3f75" fill-opacity="1"><g transform="translate(153.095643, 35.019121)"><g><path d="M 3.984375 -18.71875 C 3.367188 -18.71875 2.847656 -18.925781 2.421875 -19.34375 C 2.003906 -19.769531 1.796875 -20.289062 1.796875 -20.90625 C 1.796875 -21.53125 2.003906 -22.050781 2.421875 -22.46875 C 2.847656 -22.882812 3.367188 -23.09375 3.984375 -23.09375 C 4.585938 -23.09375 5.097656 -22.882812 5.515625 -22.46875 C 5.941406 -22.050781 6.15625 -21.53125 6.15625 -20.90625 C 6.15625 -20.289062 5.941406 -19.769531 5.515625 -19.34375 C 5.097656 -18.925781 4.585938 -18.71875 3.984375 -18.71875 Z M 5.671875 -16.53125 L 5.671875 0 L 2.25 0 L 2.25 -16.53125 Z M 5.671875 -16.53125 "/></g></g></g><g fill="#5f3f75" fill-opacity="1"><g transform="translate(111.604619, 66.245844)"><g><path d="M 0.875 -12.359375 C 0.875 -14.953125 1.316406 -17.207031 2.203125 -19.125 C 3.097656 -21.039062 4.316406 -22.5 5.859375 -23.5 C 7.410156 -24.507812 9.148438 -25.015625 11.078125 -25.015625 C 12.691406 -25.015625 14.082031 -24.6875 15.25 -24.03125 C 16.414062 -23.375 17.304688 -22.476562 17.921875 -21.34375 L 17.921875 -24.703125 L 27.609375 -24.703125 L 27.609375 0 L 17.921875 0 L 17.921875 -3.375 C 17.304688 -2.238281 16.414062 -1.335938 15.25 -0.671875 C 14.082031 -0.015625 12.691406 0.3125 11.078125 0.3125 C 9.148438 0.3125 7.410156 -0.191406 5.859375 -1.203125 C 4.316406 -2.210938 3.097656 -3.671875 2.203125 -5.578125 C 1.316406 -7.492188 0.875 -9.753906 0.875 -12.359375 Z M 17.921875 -12.359375 C 17.921875 -13.671875 17.582031 -14.691406 16.90625 -15.421875 C 16.238281 -16.148438 15.378906 -16.515625 14.328125 -16.515625 C 13.273438 -16.515625 12.410156 -16.148438 11.734375 -15.421875 C 11.066406 -14.691406 10.734375 -13.671875 10.734375 -12.359375 C 10.734375 -11.046875 11.066406 -10.019531 11.734375 -9.28125 C 12.410156 -8.550781 13.273438 -8.1875 14.328125 -8.1875 C 15.378906 -8.1875 16.238281 -8.550781 16.90625 -9.28125 C 17.582031 -10.019531 17.921875 -11.046875 17.921875 -12.359375 Z M 17.921875 -12.359375 "/></g></g></g><g fill="#5f3f75" fill-opacity="1"><g transform="translate(141.396217, 66.245844)"><g><path d="M 28.34375 -24.703125 L 28.34375 0 L 18.625 0 L 18.625 -3.765625 C 17.863281 -2.597656 16.847656 -1.648438 15.578125 -0.921875 C 14.304688 -0.191406 12.796875 0.171875 11.046875 0.171875 C 8.210938 0.171875 6 -0.773438 4.40625 -2.671875 C 2.8125 -4.566406 2.015625 -7.140625 2.015625 -10.390625 L 2.015625 -24.703125 L 11.703125 -24.703125 L 11.703125 -11.609375 C 11.703125 -10.441406 12.015625 -9.515625 12.640625 -8.828125 C 13.265625 -8.140625 14.101562 -7.796875 15.15625 -7.796875 C 16.238281 -7.796875 17.085938 -8.140625 17.703125 -8.828125 C 18.316406 -9.515625 18.625 -10.441406 18.625 -11.609375 L 18.625 -24.703125 Z M 28.34375 -24.703125 "/></g></g></g><g fill="#5f3f75" fill-opacity="1"><g transform="translate(171.932605, 66.245844)"><g><path d="M 0.875 -12.359375 C 0.875 -14.953125 1.316406 -17.207031 2.203125 -19.125 C 3.097656 -21.039062 4.316406 -22.5 5.859375 -23.5 C 7.410156 -24.507812 9.148438 -25.015625 11.078125 -25.015625 C 12.691406 -25.015625 14.070312 -24.6875 15.21875 -24.03125 C 16.375 -23.375 17.257812 -22.476562 17.875 -21.34375 L 17.875 -32.421875 L 27.609375 -32.421875 L 27.609375 0 L 17.875 0 L 17.875 -3.375 C 17.257812 -2.238281 16.375 -1.335938 15.21875 -0.671875 C 14.070312 -0.015625 12.691406 0.3125 11.078125 0.3125 C 9.148438 0.3125 7.410156 -0.191406 5.859375 -1.203125 C 4.316406 -2.210938 3.097656 -3.671875 2.203125 -5.578125 C 1.316406 -7.492188 0.875 -9.753906 0.875 -12.359375 Z M 17.921875 -12.359375 C 17.921875 -13.671875 17.582031 -14.691406 16.90625 -15.421875 C 16.238281 -16.148438 15.378906 -16.515625 14.328125 -16.515625 C 13.273438 -16.515625 12.410156 -16.148438 11.734375 -15.421875 C 11.066406 -14.691406 10.734375 -13.671875 10.734375 -12.359375 C 10.734375 -11.046875 11.066406 -10.019531 11.734375 -9.28125 C 12.410156 -8.550781 13.273438 -8.1875 14.328125 -8.1875 C 15.378906 -8.1875 16.238281 -8.550781 16.90625 -9.28125 C 17.582031 -10.019531 17.921875 -11.046875 17.921875 -12.359375 Z M 17.921875 -12.359375 "/></g></g></g><g fill="#5f3f75" fill-opacity="1"><g transform="translate(201.724203, 66.245844)"><g><path d="M 13.9375 0.3125 C 11.445312 0.3125 9.207031 -0.195312 7.21875 -1.21875 C 5.238281 -2.25 3.6875 -3.71875 2.5625 -5.625 C 1.4375 -7.539062 0.875 -9.785156 0.875 -12.359375 C 0.875 -14.921875 1.4375 -17.160156 2.5625 -19.078125 C 3.6875 -20.992188 5.238281 -22.460938 7.21875 -23.484375 C 9.207031 -24.503906 11.445312 -25.015625 13.9375 -25.015625 C 16.414062 -25.015625 18.644531 -24.503906 20.625 -23.484375 C 22.613281 -22.460938 24.171875 -20.992188 25.296875 -19.078125 C 26.421875 -17.160156 26.984375 -14.921875 26.984375 -12.359375 C 26.984375 -9.785156 26.421875 -7.539062 25.296875 -5.625 C 24.171875 -3.71875 22.613281 -2.25 20.625 -1.21875 C 18.644531 -0.195312 16.414062 0.3125 13.9375 0.3125 Z M 13.9375 -8.109375 C 14.84375 -8.109375 15.597656 -8.460938 16.203125 -9.171875 C 16.816406 -9.890625 17.125 -10.953125 17.125 -12.359375 C 17.125 -13.753906 16.816406 -14.8125 16.203125 -15.53125 C 15.597656 -16.25 14.84375 -16.609375 13.9375 -16.609375 C 13.03125 -16.609375 12.269531 -16.25 11.65625 -15.53125 C 11.039062 -14.8125 10.734375 -13.753906 10.734375 -12.359375 C 10.734375 -10.953125 11.03125 -9.890625 11.625 -9.171875 C 12.226562 -8.460938 13 -8.109375 13.9375 -8.109375 Z M 13.9375 -8.109375 "/></g></g></g><g fill="#5f3f75" fill-opacity="1"><g transform="translate(229.588105, 66.245844)"><g><path d="M 17.5625 -8.28125 L 17.5625 0 L 13.890625 0 C 7.109375 0 3.71875 -3.375 3.71875 -10.125 L 3.71875 -16.609375 L 0.65625 -16.609375 L 0.65625 -24.703125 L 3.71875 -24.703125 L 3.71875 -30.671875 L 13.453125 -30.671875 L 13.453125 -24.703125 L 17.484375 -24.703125 L 17.484375 -16.609375 L 13.453125 -16.609375 L 13.453125 -9.953125 C 13.453125 -9.359375 13.585938 -8.929688 13.859375 -8.671875 C 14.140625 -8.410156 14.601562 -8.28125 15.25 -8.28125 Z M 17.5625 -8.28125 "/></g></g></g><g fill="#5f3f75" fill-opacity="1"><g transform="translate(248.689771, 66.245844)"><g><path d="M 0.875 -12.359375 C 0.875 -14.953125 1.316406 -17.207031 2.203125 -19.125 C 3.097656 -21.039062 4.316406 -22.5 5.859375 -23.5 C 7.410156 -24.507812 9.148438 -25.015625 11.078125 -25.015625 C 12.691406 -25.015625 14.082031 -24.6875 15.25 -24.03125 C 16.414062 -23.375 17.304688 -22.476562 17.921875 -21.34375 L 17.921875 -24.703125 L 27.609375 -24.703125 L 27.609375 0 L 17.921875 0 L 17.921875 -3.375 C 17.304688 -2.238281 16.414062 -1.335938 15.25 -0.671875 C 14.082031 -0.015625 12.691406 0.3125 11.078125 0.3125 C 9.148438 0.3125 7.410156 -0.191406 5.859375 -1.203125 C 4.316406 -2.210938 3.097656 -3.671875 2.203125 -5.578125 C 1.316406 -7.492188 0.875 -9.753906 0.875 -12.359375 Z M 17.921875 -12.359375 C 17.921875 -13.671875 17.582031 -14.691406 16.90625 -15.421875 C 16.238281 -16.148438 15.378906 -16.515625 14.328125 -16.515625 C 13.273438 -16.515625 12.410156 -16.148438 11.734375 -15.421875 C 11.066406 -14.691406 10.734375 -13.671875 10.734375 -12.359375 C 10.734375 -11.046875 11.066406 -10.019531 11.734375 -9.28125 C 12.410156 -8.550781 13.273438 -8.1875 14.328125 -8.1875 C 15.378906 -8.1875 16.238281 -8.550781 16.90625 -9.28125 C 17.582031 -10.019531 17.921875 -11.046875 17.921875 -12.359375 Z M 17.921875 -12.359375 "/></g></g></g></svg>